<svg xmlns="http://www.w3.org/2000/svg" viewBox="0 0 487.77 626.22"><defs><style>.cls-1{fill:#282828;}.cls-2{fill:#fff;}</style></defs><title>dark_bg_logo</title><g id="Layer_5" data-name="Layer 5"><path class="cls-1" d="M214.16,606.42c-23.63,0-37.76-12.59-65.68-48-12.72-16.14-25.45-28.89-37.77-41.22-28.94-29-53.94-54-61.33-107.11a181,181,0,0,1-1.46-26.34c0-8.51,0-16.55-1.92-26.42-4.34-22.61-7-40.78-8.16-55.54-1.4-18-.07-29.51,1.21-40.66a207.47,207.47,0,0,0,1.79-26.36V234l.16-.71c.56-2.52-.74-5.71-3.09-11.14-3.32-7.68-7.86-18.19-8.63-34.64-1.08-10.33-1.49-28.4.6-48.38,2.66-25.39,11.05-50.53,22.45-67.26C55,67.9,61,62.2,65.66,58.19c10.93-9.38,14-9.38,15.75-9.38a7.06,7.06,0,0,1,5.26,2.29c4.46-4.06,9.72-7.39,15.16-10.85l2.37-1.5c10.62-6.79,30.6-12.83,38.9-12.83,5.59,0,7.56,3,8.24,4.83.06.15.11.32.17.52a231.11,231.11,0,0,1,39.54-9.17,283.94,283.94,0,0,1,36.52-2.3c36.13,0,38.52,5.21,39.81,8a7.18,7.18,0,0,1-.2,6.45,148.4,148.4,0,0,1,24.2-2.08,128.17,128.17,0,0,1,52.75,11.28c25.68,11.78,55.57,43.63,67.23,56.77,21.53,24.27,38.51,48.76,42.26,60.94,1.38,4.47,1.24,8-.43,10.73-17.58,29.11-24.22,43-23.27,49.64a9.85,9.85,0,0,1,3,1.21c10,6.06,22.69,20.59,25.4,41.63,1.94,15.07,1.18,34.29-2.07,52.71-2.33,13.23-6.53,29.89-13.26,34.12a22.17,22.17,0,0,1-3.6,1.87c-1.15,3.48-1.46,18.55-1.64,27.62-.21,10.35-.4,19.28-1.29,23.84-5.62,28.57-15.27,40.62-31.24,60.57-4.44,5.54-9.47,11.82-15.05,19.28C344.36,545.61,290.28,591,252.4,600.07c-15.08,3.6-27.47,6.35-38.24,6.35Z"/><path class="cls-2" d="M227.57,26.3c20.58,0,36.17,2.26,33.72,5.12-3.77,4.4-5.93,3.14-10.78,9.35-1.75,2.23-1.57,3,.26,3,4.61,0,19.71-5.12,40.61-5.12a121.3,121.3,0,0,1,50.09,10.71c43.42,19.92,112.69,108.33,106.16,119.15-23.46,38.83-28.15,51.54-21.71,59.8.19.24.35.33.51.33.46,0,.87-.8,1.8-.8a2.6,2.6,0,0,1,1.34.45c7.89,4.76,19.81,17.48,22.31,36.89,4.16,32.35-5.43,76.16-12.34,80.5-4.39,2.76-4.05.61-5.93,4.38-3.15,6.29-1.67,43.8-3.52,53.19-6.85,34.82-19.93,43.57-45.11,77.22C337.49,544,285.05,585.59,250.89,593.74c-15.52,3.71-27,6.18-36.73,6.18-20.72,0-33.51-11.21-60.58-45.57C110.5,499.64,66,482,55.82,409.15c-2.92-21,.34-33.44-3.44-53.09-4.67-24.32-7-41.55-8.06-54.82-2.33-30,3.11-40.78,3-66.54C49.7,224.14,37,214.73,35.77,187c-1.16-10.83-1.39-28.41.58-47.22,2.4-22.95,10.08-47.73,21.35-64.27,4.16-6.11,20.44-20.21,23.71-20.21.76,0,.82.76-.13,2.55-3.18,6-2.89,9.83-1,9.83,1.09,0,2.73-1.33,4.53-4.32C89.63,55.28,98,50.43,107.7,44.23c10.12-6.47,29-11.81,35.4-11.81,2.22,0,2.94.64,1.27,2.1-5.05,4.42-11.85,10.82-9.92,10.82.55,0,1.77-.51,3.92-1.7,9.8-5.44,33.59-12.46,53.53-15.1a279.63,279.63,0,0,1,35.67-2.24m0-13v0a291.79,291.79,0,0,0-37.38,2.35,235.61,235.61,0,0,0-36,7.93c-2.19-2.17-5.69-4.16-11.12-4.16-9.33,0-30.73,6.39-42.4,13.85l-2.35,1.5c-4.27,2.71-8.44,5.35-12.28,8.34a13.85,13.85,0,0,0-4.65-.8h0c-4.58,0-9.32,1.79-20,10.95C59,55.33,50.8,62.55,47,68.2,35,85.78,26.19,112,23.42,138.44c-1.82,17.34-2.05,35.83-.62,49.55.85,17.54,5.84,29.07,9.15,36.73,1.11,2.57,2.62,6.07,2.68,7.25l-.29,1.32v1.46a198.81,198.81,0,0,1-1.75,25.59c-1.32,11.45-2.68,23.3-1.23,41.9,1.17,15,3.87,33.41,8.26,56.27,1.77,9.26,1.79,16.65,1.8,25.2a190.69,190.69,0,0,0,1.52,27.23C46.47,436.27,54,457.07,66.67,476.4c11.16,17,24.9,30.79,39.44,45.35,12.19,12.19,24.79,24.8,37.26,40.64,28.06,35.64,44.1,50.53,70.79,50.53,11.48,0,24.25-2.83,39.75-6.53,19.22-4.59,42.5-17.92,67.33-38.53,25.22-21,50.86-48.46,74.15-79.57,5.51-7.38,10.51-13.62,14.91-19.12,16-20,26.62-33.24,32.55-63.38.95-4.87,1.15-12.65,1.4-25,.15-7,.37-17.93,1-23.38.39-.22.8-.46,1.22-.73,2.9-1.82,10.6-6.65,16.21-38.5,3.36-19.05,4.13-39,2.11-54.67-2.95-23-16.81-39.09-28-46.06a53.79,53.79,0,0,1,3-8c3.43-7.61,9.28-18.16,19-34.22,2.63-4.36,3-9.75,1.07-16-4.93-16-26.58-44.13-43.61-63.33-14.82-16.71-43.54-46.51-69.33-58.34l-.05,0,0,0a134.56,134.56,0,0,0-55.41-11.85,148.45,148.45,0,0,0-17.46,1.05,13.16,13.16,0,0,0-.63-1.64c-3.56-7.74-12.17-9.43-20.68-10.49a213.3,213.3,0,0,0-25-1.3Z"/><path class="cls-2" d="M230.73,418.73c-30.91,25.27-145-2.51-85.48,63.28-3.82,4.89,9.61,18.72-2.08,15.34-37.56-13.8-41-75.28-6.68-96.26C129,410,121.07,442,156.78,427.44c7.43-3.75,6.57-4.86,17.5-8.07,18.93-5.56,44.47-12.38,25-25.12-11.77-7.7-18.85,8.08-27.4-7.19,9.81-25.76-19.79-61.85-13.46-91.71.41-15.71,78.88-24.88,93.44-46.45,3-5.66,5.38-9.21,5.12-18s-8.56-19.93-12.64-25.62c-39.4-55-213.2-66.41-183,109.77-.69,11.34,18.64-11.16,44.52,2.16-.47,13-20.7-1.51-44.27,19.52C75,370.57,58.5,393.27,80.08,444.94c17.23,35.46,46.48,61.7,76.7,90.76,6.71,6.46,15.85,20.41,28.48,32.06,10.69,9.86,19.65,16.24,23.74,17,9.5,1.89,34.71-.56,55.11-12.11,30-17,61.65-48,69.72-76.79,3.65-13-2.94-21.43-10.52-33.17-9.86-15.28-24.05-33.48-46.71-47.15-8.49-12.6,21.15-30.74,21.23-61.72-39.07.12,48.13-107.28-105.2-59.7-2.14.49-17.37,9.39-17,24.55.49,18.63,17.55,59.91,19.3,59.62,5.24-.88,9.1.84,42.52,23.5,17.33,15.69,53.82,30.09,44.85,62.39-5.4,19.41-12.83,93.4-32.43,43.15-40.74-1.65,98.25-48.8-16.7-89.31C233.06,418,232.79,417.05,230.73,418.73Z"/><path class="cls-1" d="M146.89,474.48l.08-.35c2-3.78,39-9.23,69.29-14.89,17.06-3.19,32.48-8.23,37.05-8.69,3.85-.44,12.41,4.33,16.51,4.15,8.39-2,6.67,5.28,1,12.07C245,495,178.91,514.63,146.89,474.48Z"/><path class="cls-2" d="M191.11,492c11.94-2.47,20.23-6.77,38.84-14.21,5.14-1.92,10.73,0,16.55-2.8,3.82-3.56,7-13.28,2.75-16.33-.85-.6-4,1.59-5.27,1.36-3.75-.89-5.32,1.4-9.9,2.53-5.77-1.75-11.93-.52-18.49,3.5-4.9.72-8.13-4.34-14.42-1-4.75,3-11.38.79-17.33,3.18-4.75,3.37-7.53,4.72-14.37,1.45C169.45,469.59,169.61,496.45,191.11,492Z"/><path class="cls-1" d="M272.17,301a11.3,11.3,0,0,1-3.55,3.6c-49.22,31.37-26.88-2-54,11.92a27.53,27.53,0,0,0-7.46,6.58c-3.43,4.53-6,10.26-10.12,10.93h-.9c15.67-34,45-24.54,78.25-36.66Z"/><path class="cls-1" d="M97.73,354.64C86.17,357.07,89.66,360.71,87,366a25.74,25.74,0,0,0-12.37,5.58C79,345.22,113.19,347.16,129.15,355c.61.3,1.18.61,1.73.92C130.88,355.94,95.46,364.46,97.73,354.64Z"/></g></svg>