<?xml version="1.0" encoding="UTF-8" standalone="no"?>
<!DOCTYPE svg PUBLIC "-//W3C//DTD SVG 1.1//EN" "http://www.w3.org/Graphics/SVG/1.1/DTD/svg11.dtd">
<svg width="100%" height="100%" viewBox="0 0 1182 1609" version="1.1" xmlns="http://www.w3.org/2000/svg" xmlns:xlink="http://www.w3.org/1999/xlink" xml:space="preserve" xmlns:serif="http://www.serif.com/" style="fill-rule:evenodd;clip-rule:evenodd;stroke-linejoin:round;stroke-miterlimit:2;">
    <g transform="matrix(1,0,0,1,0,-20)">
        <g id="primary" transform="matrix(2.66667,0,0,2.66667,-18284,621.778)">
            <g>
                <g id="Layer-5" serif:id="Layer 5">
                    <g id="Background">
                    </g>
                    <g id="Logo">
                    </g>
                </g>
            </g>
        </g>
        <g id="primary1" serif:id="primary" transform="matrix(2.66667,0,0,2.66667,-15196,637.778)">
            <g>
                <g id="Layer-51" serif:id="Layer 5">
                    <g id="Background1" serif:id="Background">
                    </g>
                    <g id="Logo1" serif:id="Logo">
                    </g>
                </g>
            </g>
        </g>
        <g id="logo_text">
        </g>
        <g id="logo-head" transform="matrix(0.20731,0,0,0.518853,-3793.77,331.312)">
            <rect x="18300" y="-600" width="5700" height="3100" style="fill:none;"/>
            <g transform="matrix(13.3198,0,0,5.32198,14078.1,-1916.55)">
                <g id="Layer-52" serif:id="Layer 5">
                    <g id="Logo2" serif:id="Logo">
                        <g transform="matrix(1,0,0,1,717.087,627.94)">
                            <path d="M0,-172.729C-2.452,-174.209 -2.682,-171.463 -3.653,-172.71C-10.093,-180.964 -5.406,-193.676 18.054,-232.508C24.589,-243.324 -44.689,-331.736 -88.104,-351.654C-143.753,-376.617 -188.288,-348.503 -179.069,-360.283C-174.216,-366.486 -172.059,-365.227 -168.283,-369.631C-164.508,-374.036 -203.549,-377.023 -237.676,-372.508C-257.615,-369.87 -281.406,-362.845 -291.204,-357.407C-301.002,-351.968 -291.676,-360.868 -285.204,-366.531C-278.732,-372.193 -308.253,-365.528 -321.878,-356.823C-331.586,-350.621 -339.945,-345.766 -344.8,-337.676C-349.653,-329.586 -353.343,-333.687 -348.294,-343.193C-343.245,-352.7 -366.75,-333.057 -371.878,-325.528C-383.144,-308.987 -390.821,-284.209 -393.226,-261.256C-395.195,-242.448 -394.966,-224.865 -393.811,-214.042C-392.572,-186.319 -379.872,-176.908 -382.234,-166.347C-382.145,-140.585 -387.586,-129.787 -385.255,-99.812C-384.222,-86.54 -381.862,-69.311 -377.193,-44.991C-373.42,-25.336 -376.678,-12.911 -373.755,8.099C-363.616,80.98 -319.074,98.593 -275.991,153.301C-236.225,203.796 -227.262,204.294 -178.687,192.695C-144.53,184.537 -92.087,142.899 -44.598,79.447C-19.418,45.804 -6.334,37.051 0.515,2.234C2.363,-7.163 0.89,-44.673 4.031,-50.958C5.919,-54.733 5.571,-52.581 9.964,-55.339C16.874,-59.679 26.466,-103.492 22.306,-135.839C19.81,-155.248 7.883,-167.969 0,-172.729" style="fill:rgb(17,17,17);fill-rule:nonzero;"/>
                        </g>
                        <g transform="matrix(1,0,0,1,518.238,533.701)">
                            <path d="M0,111.925C-30.904,137.188 -145.006,109.412 -85.478,175.196C-89.299,180.093 -75.861,193.919 -87.559,190.543C-125.114,176.738 -128.543,115.257 -94.234,94.281C-101.748,103.214 -109.658,135.214 -73.941,120.634C-66.512,116.877 -67.378,115.775 -56.444,112.563C-37.513,107.001 -11.974,100.177 -31.456,87.439C-43.224,79.745 -50.306,95.523 -58.853,80.248C-49.042,54.487 -78.646,18.405 -72.311,-11.462C-71.905,-27.168 6.566,-36.337 21.129,-57.909C24.095,-63.572 26.504,-67.122 26.243,-75.929C25.982,-84.748 17.683,-95.863 13.603,-101.554C-25.794,-156.516 -199.592,-167.962 -169.398,8.216C-170.083,19.564 -150.757,-2.944 -124.88,10.385C-125.342,23.416 -145.572,8.871 -169.142,29.904C-155.78,63.756 -172.226,86.457 -150.646,138.136C-133.416,173.586 -104.163,199.835 -73.948,228.889C-67.231,235.349 -58.098,249.304 -45.467,260.947C-34.773,270.806 -25.811,277.19 -21.726,278.001C-12.227,279.887 12.98,277.439 33.384,265.893C63.414,248.9 95.036,217.863 103.106,189.102C106.753,176.107 100.162,167.672 92.589,155.934C82.729,140.65 68.539,122.45 45.873,108.781C37.382,96.178 67.029,78.042 67.104,47.06C28.036,47.177 115.233,-60.219 -38.092,-12.641C-40.232,-12.147 -55.463,-3.253 -55.065,11.914C-54.578,30.543 -37.518,71.82 -35.77,71.529C-30.529,70.655 -26.67,72.374 6.751,95.028C24.08,110.717 60.572,125.116 51.601,157.416C46.207,176.832 38.775,250.819 19.179,200.569C-21.561,198.916 117.429,151.772 2.476,111.263C2.331,111.212 2.061,110.24 0,111.925" style="fill:white;fill-rule:nonzero;"/>
                        </g>
                        <g transform="matrix(1,0,0,1,434.4,717.153)">
                            <path d="M0,-15.782C0.027,-15.897 0.055,-16.011 0.082,-16.127C2.092,-19.909 39.102,-25.364 69.371,-31.024C86.428,-34.214 101.855,-39.255 106.418,-39.713C110.27,-40.15 118.837,-35.381 122.934,-35.557C131.317,-37.579 129.606,-30.281 123.926,-23.495C98.135,4.715 32.026,24.368 0,-15.782" style="fill:rgb(40,40,40);fill-rule:nonzero;"/>
                        </g>
                        <g transform="matrix(1,0,0,1,478.625,689.396)">
                            <path d="M0,29.489C11.942,27.013 20.224,22.717 38.839,15.271C43.981,13.359 49.566,15.282 55.393,12.472C59.208,8.915 62.411,-0.803 58.135,-3.852C57.285,-4.457 54.17,-2.265 52.87,-2.492C49.12,-3.385 47.543,-1.098 42.969,0.032C37.197,-1.714 31.037,-0.485 24.482,3.532C19.574,4.254 16.345,-0.806 10.054,2.576C5.312,5.591 -1.327,3.368 -7.276,5.755C-12.023,9.122 -14.802,10.473 -21.642,7.203C-21.666,7.085 -21.506,33.946 0,29.489" style="fill:white;fill-rule:nonzero;"/>
                        </g>
                        <g transform="matrix(1,0,0,1,559.685,559.228)">
                            <path d="M0,-31.336C-0.894,-29.885 -2.111,-28.652 -3.549,-27.736C-52.775,3.631 -30.431,-29.734 -57.532,-15.818C-58.36,-15.393 -62.289,-12.804 -64.993,-9.233C-68.426,-4.702 -71.012,1.025 -75.116,1.696L-76.011,1.696C-60.345,-32.302 -31.046,-22.851 2.234,-34.967L0,-31.336Z" style="fill:rgb(40,40,40);fill-rule:nonzero;"/>
                        </g>
                        <g transform="matrix(1,0,0,1,385.243,589.021)">
                            <path d="M0,-7.486C-11.562,-5.056 -8.068,-1.418 -10.746,3.839C-15.835,4.805 -20.169,6.775 -23.125,9.424C-18.739,-16.91 15.461,-14.967 31.422,-7.106C32.026,-6.808 32.604,-6.503 33.153,-6.189C33.153,-6.189 -2.267,2.333 0,-7.486" style="fill:rgb(40,40,40);fill-rule:nonzero;"/>
                        </g>
                    </g>
                </g>
            </g>
        </g>
    </g>
</svg>
