<svg width="165" height="32" viewBox="0 0 165 32" fill="none" xmlns="http://www.w3.org/2000/svg">
<g clip-path="url(#clip0_492_22714)">
<path d="M71.0976 27.0123L73.2502 23.8926C74.3484 24.6168 75.5238 25.2167 76.7546 25.6812C77.7324 26.031 78.763 26.2104 79.8015 26.2116C80.8467 26.2635 81.8833 25.999 82.7756 25.4525C83.1225 25.2546 83.411 24.9686 83.6118 24.6235C83.8127 24.2784 83.9188 23.8863 83.9195 23.487C83.9305 23.2036 83.8751 22.9215 83.7578 22.6634C83.6404 22.4052 83.4643 22.178 83.2436 22C82.6054 21.5571 81.8713 21.272 81.1013 21.1681L77.4825 20.5545C75.8567 20.3496 74.3253 19.6777 73.0734 18.6204C72.5775 18.1482 72.1883 17.5755 71.9318 16.9406C71.6754 16.3056 71.5576 15.6232 71.5863 14.9391C71.5607 14.0588 71.7443 13.1851 72.1221 12.3896C72.4999 11.5941 73.0612 10.8998 73.7598 10.3636C75.4102 9.14509 77.4298 8.53189 79.4791 8.62697C80.8631 8.62262 82.2402 8.82235 83.5659 9.21972C84.9577 9.64642 86.2812 10.2697 87.4967 11.0707L85.3338 14.0864C84.3666 13.4506 83.3169 12.9503 82.2141 12.5993C81.2281 12.2897 80.2007 12.1318 79.1672 12.1314C78.2738 12.0857 77.3871 12.3065 76.6195 12.7657C76.3186 12.9502 76.0718 13.2108 75.9038 13.5212C75.7358 13.8316 75.6527 14.1808 75.6628 14.5336C75.6442 14.8108 75.6922 15.0884 75.8025 15.3435C75.9128 15.5985 76.0824 15.8234 76.2971 15.9998C76.9819 16.4226 77.7532 16.6856 78.5537 16.7692L82.1309 17.4244C83.8048 17.637 85.3823 18.3265 86.6752 19.4106C87.1666 19.8901 87.5518 20.4674 87.8062 21.105C88.0606 21.7427 88.1783 22.4266 88.1519 23.1127C88.1567 24.0203 87.9426 24.9156 87.5279 25.7228C87.094 26.5314 86.4953 27.2399 85.7705 27.8026C84.9847 28.4303 84.089 28.9063 83.1292 29.2065C82.0724 29.5537 80.9659 29.7259 79.8535 29.716C78.1945 29.7302 76.5429 29.4918 74.9556 29.0089C73.5539 28.5959 72.2442 27.9181 71.0976 27.0123ZM100.641 25.7124C101.587 25.7209 102.523 25.5258 103.386 25.1405C104.236 24.7726 104.986 24.2054 105.57 23.487L108.336 26.2531C107.359 27.3599 106.153 28.24 104.801 28.8321C103.407 29.4691 101.892 29.7955 100.36 29.7888C99.0046 29.7921 97.6626 29.5242 96.4122 29.001C95.1628 28.4776 94.0298 27.7096 93.0811 26.7419C92.1433 25.7673 91.4054 24.6194 90.9076 23.3623C90.3707 22.0415 90.0986 20.6282 90.1069 19.2026C90.095 17.7768 90.3672 16.3627 90.9076 15.0431C91.4054 13.7982 92.1442 12.6639 93.0811 11.705C94.0207 10.7602 95.1326 10.0048 96.3563 9.47968C97.6351 8.93521 99.0119 8.65911 100.402 8.66854C101.947 8.66357 103.478 8.96762 104.904 9.56284C106.286 10.1339 107.527 10.9958 108.544 12.0898L105.695 15.0639C105.037 14.3117 104.234 13.6998 103.334 13.2648C102.469 12.8607 101.524 12.6547 100.568 12.6618C99.7782 12.6516 98.9963 12.8159 98.2767 13.1431C97.5581 13.4703 96.9201 13.9521 96.4086 14.5543C95.3086 15.8452 94.7045 17.4857 94.7045 19.1818C94.7045 20.8779 95.3086 22.5186 96.4086 23.8094C96.9338 24.4142 97.5847 24.8975 98.3152 25.2261C99.0467 25.5547 99.8397 25.7206 100.641 25.7124ZM127.574 26.7523C126.439 27.7149 125.153 28.4842 123.768 29.0297C122.397 29.5322 120.944 29.7789 119.484 29.7576C118.084 29.766 116.697 29.49 115.407 28.9464C114.171 28.4272 113.051 27.6672 112.111 26.7107C110.175 24.6832 109.098 21.9854 109.105 19.1818C109.094 17.7609 109.348 16.3502 109.854 15.0223C110.323 13.7844 111.029 12.6504 111.934 11.6842C112.815 10.7441 113.876 9.99076 115.054 9.46928C116.297 8.91477 117.645 8.63454 119.005 8.64772C120.327 8.63663 121.636 8.90972 122.842 9.44846C124.002 9.95165 125.043 10.692 125.9 11.6219C126.78 12.5873 127.465 13.7137 127.917 14.9391C128.415 16.2869 128.661 17.7142 128.645 19.1507V20.2946H113.619C113.811 21.8289 114.549 23.2427 115.699 24.2774C116.789 25.3137 118.24 25.8844 119.744 25.8684C120.669 25.8692 121.586 25.6963 122.447 25.3588C123.254 25.0505 123.985 24.5716 124.59 23.955L127.574 26.7523ZM118.995 12.381C118.355 12.3691 117.718 12.4853 117.124 12.7228C116.529 12.9603 115.989 13.3143 115.532 13.764C114.543 14.7715 113.902 16.0685 113.702 17.4661H124.288C124.071 16.0817 123.424 14.8009 122.437 13.8057C121.986 13.3533 121.45 12.996 120.859 12.7548C120.268 12.5137 119.633 12.3936 118.995 12.4018V12.381ZM131.339 29.3521V8.97009H135.935V12.3082C136.623 11.1791 137.58 10.2392 138.722 9.57324C139.846 8.94376 141.115 8.62096 142.403 8.63731C143.347 8.60769 144.285 8.77771 145.158 9.13613C146.031 9.49454 146.817 10.0333 147.468 10.7171C148.789 12.1204 149.499 13.9902 149.443 15.9166V29.3416H144.847V17.2477C144.909 15.9569 144.473 14.6916 143.631 13.712C143.22 13.2622 142.716 12.9079 142.153 12.6743C141.591 12.4407 140.983 12.3335 140.376 12.3602C139.499 12.3517 138.636 12.5702 137.869 12.9945C137.096 13.4437 136.435 14.0624 135.935 14.8039V29.3624L131.339 29.3521ZM154.778 23.9862V12.6514H150.671V8.99091H154.778V5.80883L159.384 2.39795V8.99091H164.116V12.6514H159.384V22.9879C159.345 23.3682 159.381 23.7528 159.492 24.1189C159.603 24.4849 159.785 24.8252 160.029 25.1197C160.654 25.6009 161.438 25.8275 162.223 25.754C162.656 25.7585 163.087 25.7237 163.513 25.65C164.016 25.5544 164.513 25.4259 165 25.2653V29.1336C164.355 29.3321 163.694 29.4747 163.025 29.56C162.369 29.6475 161.709 29.6926 161.048 29.6952C159.372 29.8119 157.711 29.3004 156.39 28.2602C155.83 27.7096 155.396 27.0443 155.117 26.3101C154.84 25.5759 154.723 24.7903 154.778 24.007V23.9862ZM66.6676 10.5716C64.9281 9.1901 62.739 8.50109 60.5219 8.63731C59.12 8.64045 57.7235 8.81157 56.3623 9.14692C55.4863 9.3666 54.625 9.64094 53.7834 9.96841V13.9824C54.7724 13.5193 55.7985 13.1402 56.851 12.8489C57.7397 12.6079 58.6549 12.4787 59.5755 12.4642C60.8311 12.3752 62.0762 12.7447 63.08 13.5041C63.4851 13.8919 63.8003 14.3639 64.0033 14.8867C64.2064 15.4096 64.2922 15.9705 64.2551 16.5302V18.4227C63.3817 18.0122 62.4688 17.6917 61.5306 17.4661C60.6222 17.2654 59.6947 17.1642 58.7645 17.1644C56.7418 17.0522 54.7408 17.6277 53.0866 18.7971C52.4065 19.3718 51.8658 20.0935 51.5055 20.9078C51.1451 21.7221 50.9746 22.6076 51.0068 23.4974C50.986 24.3434 51.1567 25.1831 51.506 25.9537C51.8554 26.7244 52.3744 27.4062 53.0242 27.9482C54.4855 29.1445 56.337 29.7592 58.2237 29.6744C59.3202 29.6865 60.4095 29.4961 61.437 29.1128C62.4885 28.678 63.4536 28.0582 64.2863 27.2827V29.3624H68.841V16.0726C68.905 15.0554 68.7433 14.0367 68.3676 13.0892C67.9919 12.1418 67.4114 11.2891 66.6676 10.5923V10.5716ZM64.3071 24.7973C63.6555 25.3537 62.9038 25.7807 62.0922 26.0555C61.257 26.3315 60.3823 26.4685 59.5028 26.4611C58.4374 26.5163 57.3828 26.2244 56.4975 25.6292C56.1372 25.3847 55.8438 25.054 55.644 24.6672C55.4442 24.2802 55.3444 23.8496 55.3536 23.4143C55.3429 22.9402 55.4404 22.4701 55.6385 22.0394C55.8367 21.6088 56.1305 21.229 56.4975 20.9289C57.4183 20.3208 58.5179 20.0423 59.6172 20.1386C60.4507 20.133 61.2828 20.2061 62.1025 20.3569C62.8765 20.5157 63.6277 20.7707 64.3383 21.1161L64.3071 24.7973Z" fill="#111111"/>
<path d="M2.72453 29.7879C4.22923 29.7879 5.44905 28.5681 5.44905 27.0634C5.44905 25.5587 4.22923 24.3389 2.72453 24.3389C1.21981 24.3389 0 25.5587 0 27.0634C0 28.5681 1.21981 29.7879 2.72453 29.7879Z" fill="#111111"/>
<path d="M16.9246 29.7562C18.4293 29.7562 19.6491 28.5364 19.6491 27.0316C19.6491 25.5269 18.4293 24.3071 16.9246 24.3071C15.4199 24.3071 14.2001 25.5269 14.2001 27.0316C14.2001 28.5364 15.4199 29.7562 16.9246 29.7562Z" fill="#111111"/>
<path d="M23.9353 23.8454C26.0373 23.8454 27.7414 22.1414 27.7414 20.0394C27.7414 17.9374 26.0373 16.2334 23.9353 16.2334C21.8333 16.2334 20.1293 17.9374 20.1293 20.0394C20.1293 22.1414 21.8333 23.8454 23.9353 23.8454Z" fill="#111111"/>
<path d="M9.90265 23.8869C12.0047 23.8869 13.7087 22.1829 13.7087 20.0809C13.7087 17.9789 12.0047 16.2749 9.90265 16.2749C7.80064 16.2749 6.09663 17.9789 6.09663 20.0809C6.09663 22.1829 7.80064 23.8869 9.90265 23.8869Z" fill="#111111"/>
<path d="M16.9148 17.2343C19.2235 17.2343 21.0952 15.3626 21.0952 13.0539C21.0952 10.7452 19.2235 8.87354 16.9148 8.87354C14.6061 8.87354 12.7344 10.7452 12.7344 13.0539C12.7344 15.3626 14.6061 17.2343 16.9148 17.2343Z" fill="#111111"/>
<path d="M23.9353 10.8381C26.56 10.8381 28.6877 8.71044 28.6877 6.08582C28.6877 3.46118 26.56 1.3335 23.9353 1.3335C21.3107 1.3335 19.1831 3.46118 19.1831 6.08582C19.1831 8.71044 21.3107 10.8381 23.9353 10.8381Z" fill="#111111"/>
<path d="M30.9303 17.204C33.239 17.204 35.1106 15.3324 35.1106 13.0237C35.1106 10.7148 33.239 8.84326 30.9303 8.84326C28.6215 8.84326 26.7498 10.7148 26.7498 13.0237C26.7498 15.3324 28.6215 17.204 30.9303 17.204Z" fill="#111111"/>
<path d="M37.8458 23.8454C39.9478 23.8454 41.6518 22.1414 41.6518 20.0394C41.6518 17.9374 39.9478 16.2334 37.8458 16.2334C35.7438 16.2334 34.0398 17.9374 34.0398 20.0394C34.0398 22.1414 35.7438 23.8454 37.8458 23.8454Z" fill="#111111"/>
</g>
<defs>
<clipPath id="clip0_492_22714">
<rect width="165" height="32" fill="white"/>
</clipPath>
</defs>
</svg>
