<svg id="Layer_1" data-name="Layer 1" xmlns="http://www.w3.org/2000/svg" viewBox="0 0 451.92 421.81"><defs><style>.cls-1{fill:#231f20;}</style></defs><title>Artboard 1</title><polygon class="cls-1" points="129.9 361.21 112.6 388.91 86.87 368.8 51.87 374.89 55.75 396.9 80.95 392.54 118.4 421.81 143.58 381.5 451.92 327.04 448.04 305.04 129.9 361.21"/><path class="cls-1" d="M43.19,147.36c14-2.47,25.72-9.32,33.57-18.35L71.2,97.48l-37.32,6.58,3.31,18.78,13.56-2.39L51,122a22.79,22.79,0,0,1-11.33,5.57c-10.78,1.9-21.26-6-23.49-18.68-2-11.48,5.13-22.41,15.91-24.32,7-1.22,14.08-.09,19.21,3.19l12-18.24c-9.17-5.92-21.21-8.46-34.89-6A45.15,45.15,0,0,0,0,80.74l10.59,60.07A45.18,45.18,0,0,0,43.19,147.36Z"/><path class="cls-1" d="M113.93,115.64,124,113.86a1.42,1.42,0,0,1,.71,0L140.43,129l28.29-5-21.37-18.82c9.26-7.13,12.26-17.94,9.91-31.27-2.86-16.23-14.2-29.65-39.58-25.17L78.85,55.61l14.41,81.72L117,133.14ZM106,70.78l11-1.94c10-1.76,14.4,4.39,15.6,11.23,1.11,6.26-1.23,13.37-12.94,15.43l-9,1.59Z"/><polygon class="cls-1" points="245.76 110.44 242.34 91.09 199 98.73 197.07 87.83 230.8 81.89 227.49 63.11 193.76 69.06 191.41 55.73 232.33 48.51 228.91 29.15 164.93 40.44 179.34 122.15 245.76 110.44"/><polygon class="cls-1" points="325.82 96.33 322.4 76.97 279.05 84.61 277.13 73.72 310.85 67.77 307.54 48.99 273.82 54.94 271.47 41.61 312.38 34.4 308.97 15.04 244.99 26.32 259.4 108.04 325.82 96.33"/><polygon class="cls-1" points="385.61 43.24 336.17 10.24 325.04 12.2 339.45 93.92 363.21 89.73 356.08 49.28 405.52 82.27 408.66 81.72 394.25 0 378.47 2.78 385.61 43.24"/><path class="cls-1" d="M61,261.07C84,257,97.3,242.75,93.89,223.38c-3.18-18-17.72-22.66-40.47-23.5-13.14-.6-16.18-2.14-16.84-5.9-.57-3.23,1.53-6.23,7.18-7.23,8.47-1.49,19.88-.46,29.06,1.26l7.35-22.79c-10.61-2-23.16-4-39.56-1.07-10.39,1.83-18.44,6-23.85,11.62l7.93,45c6.93,2.77,15.68,3.61,25.38,4.09,13,.62,16,2.59,16.55,5.82.71,4-2.3,6.64-8.61,7.76-9.62,1.69-19.22,2.24-30.24-.25l4.28,24.28C41.28,263.78,49.51,263.1,61,261.07Z"/><polygon class="cls-1" points="173.39 239.87 200.01 235.17 183.3 140.38 156.68 145.07 164.43 189.04 131.35 194.87 123.6 150.9 96.84 155.62 113.56 250.42 140.32 245.7 135.31 217.33 168.39 211.5 173.39 239.87"/><rect class="cls-1" x="210.88" y="133.79" width="27.99" height="96.26" transform="translate(-28.17 41.81) rotate(-10)"/><path class="cls-1" d="M294.54,120.76l-45,7.94,16.71,94.8,27.57-4.86-3.58-20.3,11.7-2.07a1.75,1.75,0,0,1,.82,0l18.22,17.58,32.81-5.78L329,186.23C339.7,178,343.18,165.42,340.45,150,337.14,131.14,324,115.57,294.54,120.76Zm17.36,36.32c1.28,7.26-1.43,15.5-15,17.89l-10.49,1.85L281,146.3l12.77-2.25C305.36,142,310.5,149.14,311.9,157.08Z"/><polygon class="cls-1" points="345.96 134.85 373.81 129.94 386.56 202.28 414.12 197.42 401.36 125.08 415.86 122.52 411.9 100.07 342 112.39 345.96 134.85"/><path class="cls-1" d="M68.67,355.47c18.16-3.21,28.66-14.48,26-29.77-2.51-14.24-14-17.91-32-18.57-10.38-.47-12.79-1.69-13.31-4.66-.45-2.56,1.21-4.93,5.67-5.71,6.7-1.18,15.71-.36,23,1l5.8-18c-8.38-1.58-18.29-3.12-31.25-.84a36,36,0,0,0-16.38,6.92L43,324.66c4.91,1.39,10.7,1.9,17,2.21,10.27.49,12.62,2.05,13.07,4.59.56,3.19-1.81,5.26-6.8,6.14a59.71,59.71,0,0,1-20.93.39L48.7,356.9C54.87,357.44,60.8,356.85,68.67,355.47Z"/><polygon class="cls-1" points="126.16 344.23 147.93 340.39 137.85 283.25 159.74 279.39 156.61 261.65 90.96 273.22 94.09 290.96 116.08 287.08 126.16 344.23"/><path class="cls-1" d="M234.25,248l-21.14,3.72,6.91,39.2c2.38,13.49-1.52,18.67-10.77,20.3-9,1.59-14.46-1.94-16.84-15.43l-6.91-39.2-21.14,3.73,7.9,44.83c3.07,17.42,17.39,29,40.33,25s32.62-20,29.57-37.3Z"/><path class="cls-1" d="M282.17,239.51l-33.57,5.92,13.21,74.88,36-6.34c19.65-3.47,32.17-23.75,28.67-43.61A38.18,38.18,0,0,0,282.17,239.51Zm10.4,55.89-13,2.28-6.53-37.07,12.42-2.19c8.93-1.57,17.74,5.52,19.54,15.72C306.8,284.12,301.22,293.54,292.57,295.4Z"/><rect class="cls-1" x="338.11" y="228.28" width="22.11" height="76.04" transform="translate(-40.94 64.68) rotate(-10)"/><path class="cls-1" d="M404.82,216.9c-22.1,3.89-37,24.26-33.26,45.51s24.73,35.29,46.82,31.39a41.44,41.44,0,0,0,25.1-14.62l-10.07-57.13A41.49,41.49,0,0,0,404.82,216.9Zm24.73,35.28c1.87,10.63-4.59,20.53-14.58,22.29-9.76,1.72-19.34-5.35-21.21-16s4.71-20.55,14.47-22.27C418.22,234.47,427.7,241.67,429.55,252.18Z"/><path class="cls-1" d="M43.19,147.36c14-2.47,25.72-9.32,33.57-18.35L71.2,97.48l-37.32,6.58,3.31,18.78,13.56-2.39L51,122a22.79,22.79,0,0,1-11.33,5.57c-10.78,1.9-21.26-6-23.49-18.68-2-11.48,5.13-22.41,15.91-24.32,7-1.22,14.08-.09,19.21,3.19l12-18.24c-9.17-5.92-21.21-8.46-34.89-6A45.15,45.15,0,0,0,0,80.74l10.59,60.07A45.18,45.18,0,0,0,43.19,147.36Z"/><path class="cls-1" d="M113.93,115.64,124,113.86a1.42,1.42,0,0,1,.71,0L140.43,129l28.29-5-21.37-18.82c9.26-7.13,12.26-17.94,9.91-31.27-2.86-16.23-14.2-29.65-39.58-25.17L78.85,55.61l14.41,81.72L117,133.14ZM106,70.78l11-1.94c10-1.76,14.4,4.39,15.6,11.23,1.11,6.26-1.23,13.37-12.94,15.43l-9,1.59Z"/><polygon class="cls-1" points="245.76 110.44 242.34 91.09 199 98.73 197.07 87.83 230.8 81.89 227.49 63.11 193.76 69.06 191.41 55.73 232.33 48.51 228.91 29.15 164.93 40.44 179.34 122.15 245.76 110.44"/><polygon class="cls-1" points="325.82 96.33 322.4 76.97 279.05 84.61 277.13 73.72 310.85 67.77 307.54 48.99 273.82 54.94 271.47 41.61 312.38 34.4 308.97 15.04 244.99 26.32 259.4 108.04 325.82 96.33"/><polygon class="cls-1" points="385.61 43.24 336.17 10.24 325.04 12.2 339.45 93.92 363.21 89.73 356.08 49.28 405.52 82.27 408.66 81.72 394.25 0 378.47 2.78 385.61 43.24"/><path class="cls-1" d="M61,261.07C84,257,97.3,242.75,93.89,223.38c-3.18-18-17.72-22.66-40.47-23.5-13.14-.6-16.18-2.14-16.84-5.9-.57-3.23,1.53-6.23,7.18-7.23,8.47-1.49,19.88-.46,29.06,1.26l7.35-22.79c-10.61-2-23.16-4-39.56-1.07-10.39,1.83-18.44,6-23.85,11.62l7.93,45c6.93,2.77,15.68,3.61,25.38,4.09,13,.62,16,2.59,16.55,5.82.71,4-2.3,6.64-8.61,7.76-9.62,1.69-19.22,2.24-30.24-.25l4.28,24.28C41.28,263.78,49.51,263.1,61,261.07Z"/><polygon class="cls-1" points="173.39 239.87 200.01 235.17 183.3 140.38 156.68 145.07 164.43 189.04 131.35 194.87 123.6 150.9 96.84 155.62 113.56 250.42 140.32 245.7 135.31 217.33 168.39 211.5 173.39 239.87"/><rect class="cls-1" x="210.88" y="133.79" width="27.99" height="96.26" transform="translate(-28.17 41.81) rotate(-10)"/><path class="cls-1" d="M294.54,120.76l-45,7.94,16.71,94.8,27.57-4.86-3.58-20.3,11.7-2.07a1.75,1.75,0,0,1,.82,0l18.22,17.58,32.81-5.78L329,186.23C339.7,178,343.18,165.42,340.45,150,337.14,131.14,324,115.57,294.54,120.76Zm17.36,36.32c1.28,7.26-1.43,15.5-15,17.89l-10.49,1.85L281,146.3l12.77-2.25C305.36,142,310.5,149.14,311.9,157.08Z"/><polygon class="cls-1" points="345.96 134.85 373.81 129.94 386.56 202.28 414.12 197.42 401.36 125.08 415.86 122.52 411.9 100.07 342 112.39 345.96 134.85"/><path class="cls-1" d="M68.67,355.47c18.16-3.21,28.66-14.48,26-29.77-2.51-14.24-14-17.91-32-18.57-10.38-.47-12.79-1.69-13.31-4.66-.45-2.56,1.21-4.93,5.67-5.71,6.7-1.18,15.71-.36,23,1l5.8-18c-8.38-1.58-18.29-3.12-31.25-.84a36,36,0,0,0-16.38,6.92L43,324.66c4.91,1.39,10.7,1.9,17,2.21,10.27.49,12.62,2.05,13.07,4.59.56,3.19-1.81,5.26-6.8,6.14a59.71,59.71,0,0,1-20.93.39L48.7,356.9C54.87,357.44,60.8,356.85,68.67,355.47Z"/><polygon class="cls-1" points="126.16 344.23 147.93 340.39 137.85 283.25 159.74 279.39 156.61 261.65 90.96 273.22 94.09 290.96 116.08 287.08 126.16 344.23"/><path class="cls-1" d="M234.25,248l-21.14,3.72,6.91,39.2c2.38,13.49-1.52,18.67-10.77,20.3-9,1.59-14.46-1.94-16.84-15.43l-6.91-39.2-21.14,3.73,7.9,44.83c3.07,17.42,17.39,29,40.33,25s32.62-20,29.57-37.3Z"/><path class="cls-1" d="M282.17,239.51l-33.57,5.92,13.21,74.88,36-6.34c19.65-3.47,32.17-23.75,28.67-43.61A38.18,38.18,0,0,0,282.17,239.51Zm10.4,55.89-13,2.28-6.53-37.07,12.42-2.19c8.93-1.57,17.74,5.52,19.54,15.72C306.8,284.12,301.22,293.54,292.57,295.4Z"/><rect class="cls-1" x="338.11" y="228.28" width="22.11" height="76.04" transform="translate(-40.94 64.68) rotate(-10)"/><path class="cls-1" d="M404.82,216.9c-22.1,3.89-37,24.26-33.26,45.51s24.73,35.29,46.82,31.39a41.44,41.44,0,0,0,25.1-14.62l-10.07-57.13A41.49,41.49,0,0,0,404.82,216.9Zm24.73,35.28c1.87,10.63-4.59,20.53-14.58,22.29-9.76,1.72-19.34-5.35-21.21-16s4.71-20.55,14.47-22.27C418.22,234.47,427.7,241.67,429.55,252.18Z"/></svg>