<svg height='100px' width='100px'  fill="#333333" xmlns:x="http://ns.adobe.com/Extensibility/1.0/" xmlns:i="http://ns.adobe.com/AdobeIllustrator/10.0/" xmlns:graph="http://ns.adobe.com/Graphs/1.0/" xmlns="http://www.w3.org/2000/svg" xmlns:xlink="http://www.w3.org/1999/xlink" version="1.1" x="0px" y="0px" viewBox="0 0 100 100" style="enable-background:new 0 0 100 100;" xml:space="preserve"><g><g i:extraneous="self"><path d="M79.1,37.9l-8-34c-0.1-0.5-0.5-1-1-1.2c-0.5-0.2-1.1-0.2-1.6,0C60.6,6.9,54,6.8,47,6.7c-7.8-0.1-15.9-0.2-25.1,6    c0,0-0.1,0-0.1,0c-0.7,0.4-1.1,1.2-0.9,2l19.2,81.3c0.2,0.8,0.9,1.4,1.8,1.4c0.1,0,0.3,0,0.4,0c1-0.2,1.6-1.2,1.3-2.2L32.7,49.2    c8-5.1,14.9-5,22.2-4.9c7.2,0.1,14.6,0.2,23.2-4.4C78.9,39.5,79.3,38.7,79.1,37.9z M71,19.4L57.2,10c3.4-0.4,7-1.3,10.9-3L71,19.4    z M47,10.3c1.4,0,2.9,0,4.3,0l21,14.3l2.3,9.8l-35.1-24C41.9,10.3,44.4,10.3,47,10.3z M73.4,38.1c-3,1.3-5.9,1.9-8.8,2.3    L26.4,14.2c2.7-1.5,5.2-2.4,7.7-3L73.4,38.1z M31.9,45.4l-3-12.5l12.7,8.7C38.5,42.3,35.3,43.4,31.9,45.4z M55,40.6    c-2.7,0-5.4-0.1-8.1,0.2L27.7,27.7l-2.3-9.8l33.3,22.8C57.5,40.7,56.3,40.7,55,40.6z"></path></g></g></svg>