<svg height='100px' width='100px'  fill="#333333" xmlns="http://www.w3.org/2000/svg" data-name="Layer 1" viewBox="0 0 100 100" x="0px" y="0px"><title>Fist</title><path d="M94,79H87.5V58A2.5,2.5,0,0,0,85,55.5H52.5v-16H65.06a5.2,5.2,0,0,0,5.19-5.19V10.19A5.2,5.2,0,0,0,65.06,5H34.94a5.2,5.2,0,0,0-5.19,5.19V34.31a5.2,5.2,0,0,0,5.19,5.19H47.5v16H15A2.5,2.5,0,0,0,12.5,58V79H6a1,1,0,0,0-1,1V94a1,1,0,0,0,1,1H24a1,1,0,0,0,1-1V80a1,1,0,0,0-1-1H17.5V60.5h30V79H41a1,1,0,0,0-1,1V94a1,1,0,0,0,1,1H59a1,1,0,0,0,1-1V80a1,1,0,0,0-1-1H52.5V60.5h30V79H76a1,1,0,0,0-1,1V94a1,1,0,0,0,1,1H94a1,1,0,0,0,1-1V80A1,1,0,0,0,94,79ZM34.75,34.31V10.19a.18.18,0,0,1,.19-.19H65.06a.18.18,0,0,1,.19.19V34.31a.18.18,0,0,1-.19.19H34.94A.18.18,0,0,1,34.75,34.31Z"></path></svg>