<svg width="80" height="80" viewBox="0 0 80 80" fill="none" xmlns="http://www.w3.org/2000/svg">
<path d="M40 14.3998C33.401 14.3998 28 19.8008 28 26.3998C28 32.9988 33.401 38.3998 40 38.3998C46.599 38.3998 52 32.9988 52 26.3998C52 19.8008 46.599 14.3998 40 14.3998ZM40 19.1998C44.0049 19.1998 47.2 22.3949 47.2 26.3998C47.2 30.4047 44.0049 33.5998 40 33.5998C35.9951 33.5998 32.8 30.4047 32.8 26.3998C32.8 22.3949 35.9951 19.1998 40 19.1998ZM18.4 22.3998C14.0107 22.3998 10.4 26.0106 10.4 30.3998C10.4 34.7889 14.0106 38.3748 18.4 38.3748C22.7894 38.3748 26.4 34.7889 26.4 30.3998C26.4 26.0106 22.7893 22.3998 18.4 22.3998ZM61.6 22.3998C57.2107 22.3998 53.6 26.0106 53.6 30.3998C53.6 34.7889 57.2106 38.3748 61.6 38.3748C65.9894 38.3748 69.6 34.7889 69.6 30.3998C69.6 26.0106 65.9893 22.3998 61.6 22.3998ZM18.4 27.1998C20.1962 27.1998 21.6 28.6057 21.6 30.3998C21.6 32.1938 20.1962 33.5748 18.4 33.5748C16.6038 33.5748 15.2 32.1938 15.2 30.3998C15.2 28.6057 16.6038 27.1998 18.4 27.1998ZM61.6 27.1998C63.3962 27.1998 64.8 28.6057 64.8 30.3998C64.8 32.1938 63.3962 33.5748 61.6 33.5748C59.8038 33.5748 58.4 32.1938 58.4 30.3998C58.4 28.6057 59.8038 27.1998 61.6 27.1998ZM18.4 40.7998C10.4756 40.7998 4 47.2752 4 55.1998C4.00013 56.4564 5.1434 57.5997 6.4 57.5998H19.15C18.666 59.392 18.4 61.2577 18.4 63.1998C18.4001 64.4564 19.5434 65.5997 20.8 65.5998H59.2C60.4566 65.5997 61.5999 64.4564 61.6 63.1998C61.6 61.2577 61.334 59.392 60.85 57.5998H73.6C74.8566 57.5997 75.9999 56.4564 76 55.1998C76 47.2752 69.5244 40.7998 61.6 40.7998C57.6708 40.7998 54.1382 42.4187 51.55 44.9748C48.2077 42.851 44.2407 41.5998 40 41.5998C35.7593 41.5998 31.7923 42.851 28.45 44.9748C25.8616 42.418 22.3282 40.7998 18.4 40.7998ZM18.4 45.5998C20.8231 45.5998 23.0141 46.4938 24.7 47.9748C23.2782 49.4012 22.0818 51.0249 21.1 52.7998H9.275C10.3533 48.6759 13.9221 45.5998 18.4 45.5998ZM61.6 45.5998C66.0779 45.5998 69.6467 48.6759 70.725 52.7998H58.9C57.924 51.0354 56.7361 49.4201 55.325 47.9998C57.0079 46.5186 59.1785 45.5998 61.6 45.5998ZM40 46.3998C48.4855 46.3998 55.3845 52.6464 56.55 60.7998H23.45C24.6155 52.6464 31.5145 46.3998 40 46.3998Z" fill="#111111"/>
</svg>
