<svg width="80" height="80" viewBox="0 0 80 80" fill="none" xmlns="http://www.w3.org/2000/svg">
<path fill-rule="evenodd" clip-rule="evenodd" d="M30 71.6666V66.6666C30 62.9847 32.9848 60 36.6667 60C40.3486 60 43.3333 62.9847 43.3333 66.6666V71.6666C43.3333 72.5871 44.0795 73.3333 45 73.3333H61.6667C62.5871 73.3333 63.3333 72.5871 63.3333 71.6666V53.3333H66.6667C72.1895 53.3333 76.6667 48.8561 76.6667 43.3333C76.6667 37.8104 72.1895 33.3333 66.6667 33.3333H63.3333V21.6666C63.3333 20.7462 62.5871 20 61.6667 20H46.6667V16.6666C46.6667 11.1438 42.1895 6.66663 36.6667 6.66663C31.1438 6.66663 26.6667 11.1438 26.6667 16.6666V20H11.6667C10.7462 20 10 20.7462 10 21.6666V35C10 35.9204 10.7462 36.6666 11.6667 36.6666H16.6667C20.3486 36.6666 23.3333 39.6514 23.3333 43.3333C23.3333 47.0152 20.3486 50 16.6667 50H11.6667C10.7462 50 10 50.7462 10 51.6666V71.6666C10 72.5871 10.7462 73.3333 11.6667 73.3333H28.3333C29.2538 73.3333 30 72.5871 30 71.6666ZM13.3333 70V53.3333H16.6667C22.1895 53.3333 26.6667 48.8561 26.6667 43.3333C26.6667 37.8104 22.1895 33.3333 16.6667 33.3333H13.3333V23.3333H28.3333C29.2538 23.3333 30 22.5871 30 21.6666V16.6666C30 12.9847 32.9848 9.99996 36.6667 9.99996C40.3486 9.99996 43.3333 12.9847 43.3333 16.6666V21.6666C43.3333 22.5871 44.0795 23.3333 45 23.3333H60V35C60 35.9204 60.7462 36.6666 61.6667 36.6666H66.6667C70.3486 36.6666 73.3333 39.6514 73.3333 43.3333C73.3333 47.0152 70.3486 50 66.6667 50H61.6667C60.7462 50 60 50.7462 60 51.6666V70H46.6667V66.6666C46.6667 61.1438 42.1895 56.6666 36.6667 56.6666C31.1438 56.6666 26.6667 61.1438 26.6667 66.6666V70H13.3333Z" fill="#111111"/>
</svg>
