<svg width="80" height="80" viewBox="0 0 80 80" fill="none" xmlns="http://www.w3.org/2000/svg">
<path d="M6.40176 16.8C5.56402 16.8 4.80184 17.5622 4.80176 18.4V61.6C4.80184 62.4377 5.56402 63.1999 6.40176 63.2H73.6018C74.4395 63.1999 75.2017 62.4377 75.2018 61.6V18.4C75.2052 17.6099 74.5383 16.8741 73.7518 16.8C73.7018 16.7976 73.6517 16.7976 73.6018 16.8H6.40176ZM8.00176 20H72.0018V27.2H8.00176V20ZM48.8018 21.6V25.6H52.8018V21.6H48.8018ZM56.8018 21.6V25.6H60.8018V21.6H56.8018ZM64.8018 21.6V25.6H68.8018V21.6H64.8018ZM8.00176 30.4H72.0018V60H8.00176V30.4Z" fill="#111111"/>
</svg>
