<svg height='100px' width='100px'  fill="#333333" xmlns="http://www.w3.org/2000/svg" xmlns:xlink="http://www.w3.org/1999/xlink" version="1.1" x="0px" y="0px" viewBox="0 0 100 100" style="enable-background:new 0 0 100 100;" xml:space="preserve"><path d="M52.1,62.4l1.4-1.9c0,0-0.1-0.5-1-2c2.4-0.2,4.9-1.6,7-2.5C59,54.8,59,53.1,59,51.9c1.3-1.5,1.5-4.7,1.9-6.5  c1.8-1.9,3.2-4.6,2.9-7.4c-0.1-1-0.6-3.3-2-3.2c0.6-3.3,1.3-9.3-3.1-10.5C57.9,24.1,57,24,56.2,24c0.1-1.9-3-2.6-4.4-2.8  c-3.4-0.5-7.1,0.3-9.7,2.5v0.1v-0.1c-3.2,2.7-4,7-3.6,11c-1.4-0.1-1.9,2.2-2,3.2c-0.3,2.7,1.1,5.4,2.9,7.4c0.4,1.8,0.6,5.1,1.9,6.5  c0.1,1.2-0.1,2.6-0.2,3.3C41,55.4,41,55.6,41,55.6v0.1c2.2,1,4.9,2.5,7.3,2.6c-0.9,1.5-1,2-1,2c0.5,0.7,1,1.4,1.5,2.1  c-0.6,5.1-1.3,10.2-1.9,15.3c-2.1-6.8-4.2-13.5-6.3-20.3c-3.3,1.5-7,3.2-9.7,5.6c-3.1,2.8-3.7,7.6-4,11.6c12,9.4,35.1,10.6,46.8-0.1  c-0.4-3.3-0.8-7.7-2.8-10.4c-2.3-3-7.1-4.8-10.5-6.3l0,0c-2.1,6.7-4.2,13.3-6.2,20"></path><path d="M61.6,55.8l0.2,0.6c0.3,0.1,0.6,0.3,0.9,0.4c2.4,1.1,5.2,2.3,7.4,4c-0.8-2.7-1.7-5.4-2.5-8C65.6,53.6,63.4,54.6,61.6,55.8z"></path><path d="M95.6,67.3c-0.4-2.8-0.7-6.6-2.4-8.9c-2-2.6-6.1-4.1-8.9-5.4l0,0c-1.8,5.7-3.5,11.3-5.3,17l-1.6-13.1l1.2-1.6  c0,0-0.1-0.4-0.9-1.7c2-0.1,4.2-1.3,6-2.1c-0.4-1-0.4-2.4-0.4-3.5c1.1-1.2,1.3-4,1.6-5.5c1.6-1.6,2.7-3.9,2.5-6.3  c-0.1-0.8-0.5-2.8-1.7-2.7c0.5-2.8,1.1-7.9-2.6-8.9c-0.7-0.2-1.4-0.3-2.1-0.2c0.1-1.6-2.6-2.2-3.7-2.4c-2.9-0.4-6,0.2-8.3,2.1  c0,0,0,0,0,0.1c0,0,0,0,0-0.1c-2.7,2.3-3.4,6-3.1,9.4c-0.5,0-0.9,0.4-1.2,0.9c0.6,0.9,1,2,1.2,3.5c0.1,1.1,0,2.3-0.3,3.4  c0.3,0.4,0.6,0.9,1,1.2c0.3,1.5,0.5,4.3,1.6,5.5c0.1,1-0.1,2.2-0.2,2.8c-0.1,0.2-0.1,0.4-0.1,0.4v0.1c1.9,0.8,4.2,2.1,6.2,2.2  c-0.8,1.3-0.9,1.7-0.9,1.7c0.4,0.6,0.9,1.2,1.3,1.7c-0.3,2.7-0.7,5.4-1,8.1c1.1,2.6,1.5,5.6,1.8,8.1c0,0.2,0,0.3,0.1,0.5  C83,73.9,90.6,71.9,95.6,67.3z"></path><path d="M36.4,57.1c-3-1.5-6.4-2.8-6.4-2.8s-0.1,0-0.4,0c-0.1,2.6-0.3,5.1-0.5,7.5c0.1-0.1,0.1-0.1,0.2-0.2  C31.4,59.8,33.9,58.3,36.4,57.1z"></path><path d="M18.4,54.3c-0.5,0.3-9.4,3.5-11.2,6.1c-1.9,2.8-2.4,9.8-2.4,9.8s4.7,2.3,15.9,2.7c-1-4.6-1.7-11.1-2-18.6  C18.5,54.3,18.4,54.3,18.4,54.3z"></path><path d="M34.4,39.7C34,41,33,41.8,32.2,41.9c-0.6,3.7-2.9,8.8-7.3,8.8s-6.7-5.1-7.3-8.8c-0.9,0-1.5-0.7-1.9-1.5  c2.3-0.7,9.6-2.8,12.2-8.8c0.9,2.5,3.2,7.4,6.6,6.7c0-0.2,0-0.4,0-0.6c0.2-1.9,0.9-3.4,2-4.3c0-0.2,0-0.4,0-0.7  c-0.6-4.4-2.1-9.8-6.6-8.4c-1.9-3.4-7.4-3.3-10.5-1.9c-3.1,1.5-5,4.5-6.2,7.6c-2.4,6.7-2,14.2-1.6,21.2c3.7,0.9,19.8,1.2,25,0.3  c0-0.9,0.2-3.3,0.2-6.3c-1.4-1.9-2.2-3.9-2.4-5.9C34.4,39.6,34.4,39.7,34.4,39.7z"></path></svg>