<svg height='100px' width='100px'  fill="#333333" xmlns="http://www.w3.org/2000/svg" xmlns:xlink="http://www.w3.org/1999/xlink" version="1.1" x="0px" y="0px" viewBox="0 0 48 48" enable-background="new 0 0 48 48" xml:space="preserve"><g><path d="M38.8,17.5l3.6-3.6c0.2-0.2,0.3-0.4,0.3-0.7s-0.1-0.5-0.3-0.7l-3.1-3.1c-0.4-0.4-1-0.4-1.4,0L34,13.2   c-1.8-1.1-3.8-2-5.9-2.4v-4h1.1c0.6,0,1-0.4,1-1V1c0-0.6-0.4-1-1-1H18.7c-0.6,0-1,0.4-1,1v4.7c0,0.6,0.4,1,1,1h1.1v4   c-2,0.5-4,1.3-5.7,2.3l-3.7-3.7c-0.4-0.4-1-0.4-1.4,0L6,12.5c-0.2,0.2-0.3,0.4-0.3,0.7s0.1,0.5,0.3,0.7l3.4,3.4   c-2.6,3.2-4.2,7.4-4.2,11.8C5.2,39.5,13.6,48,24,48c10.4,0,18.8-8.5,18.8-18.8C42.8,24.8,41.3,20.7,38.8,17.5z M38.5,11.5l1.7,1.7   l-2.6,2.6l-1.7-1.7L38.5,11.5z M19.7,4.7V2h8.5v2.7H19.7z M26.1,6.7v3.7c0,0-3.3-0.3-4.3,0V6.7H26.1z M8.1,13.2l1.7-1.7l2.6,2.6   l-1.6,1.6c0,0-0.1,0.1-0.1,0.1L8.1,13.2z M24,46c-9.3,0-16.8-7.6-16.8-16.8c0-4.6,1.8-8.7,4.8-11.7l0.3-0.3   c2.5-2.5,5.9-4.2,9.6-4.6c0.2,0,2.4-0.4,4.4,0c8.3,1.1,14.7,8.1,14.7,16.7C40.8,38.4,33.3,46,24,46z"></path><path d="M24,19.6c0.6,0,1-0.4,1-1v-2.8c0-0.6-0.4-1-1-1c-0.6,0-1,0.4-1,1v2.8C23,19.2,23.4,19.6,24,19.6z"></path><path d="M24,38.7c-0.6,0-1,0.4-1,1v2.8c0,0.6,0.4,1,1,1c0.6,0,1-0.4,1-1v-2.8C25,39.1,24.6,38.7,24,38.7z"></path><path d="M37.3,28.2h-2.8c-0.6,0-1,0.4-1,1s0.4,1,1,1h2.8c0.6,0,1-0.4,1-1S37.9,28.2,37.3,28.2z"></path><path d="M13.5,28.2h-2.8c-0.6,0-1,0.4-1,1s0.4,1,1,1h2.8c0.6,0,1-0.4,1-1S14,28.2,13.5,28.2z"></path><path d="M25,26.1v-3.5c0-0.6-0.4-1-1-1c-0.6,0-1,0.4-1,1v3.5c-1.3,0.4-2.2,1.6-2.2,3c0,1.8,1.4,3.2,3.2,3.2c1.8,0,3.2-1.4,3.2-3.2   C27.2,27.7,26.3,26.6,25,26.1z M24,30.3c-0.7,0-1.2-0.5-1.2-1.2c0-0.6,0.5-1.1,1.1-1.2c0,0,0.1,0,0.1,0s0.1,0,0.1,0   c0.6,0,1.1,0.5,1.1,1.2C25.2,29.8,24.7,30.3,24,30.3z"></path></g></svg>