<svg height='100px' width='100px'  fill="#333333" xmlns="http://www.w3.org/2000/svg" xmlns:xlink="http://www.w3.org/1999/xlink" version="1.1" x="0px" y="0px" viewBox="0 0 100 100" enable-background="new 0 0 100 100" xml:space="preserve"><path d="M66.623,30.723c0-12.743-7.649-17.162-17.084-17.162S32.455,17.98,32.455,30.723c0,12.744,7.649,23.074,17.083,23.074  S66.623,43.467,66.623,30.723z"></path><g><path d="M62.662,77.012c0,1.414,1.15,2.564,2.564,2.564c1.414,0,2.564-1.15,2.564-2.564c0-1.414-1.15-2.563-2.564-2.563   C63.812,74.448,62.662,75.598,62.662,77.012z M65.226,75.279c0.956,0,1.734,0.777,1.734,1.733c0,0.957-0.778,1.734-1.734,1.734   c-0.956,0-1.733-0.778-1.733-1.734C63.492,76.056,64.27,75.279,65.226,75.279z"></path><path d="M51.5,87.439h32.577c0-13.041-7.23-24.387-17.897-30.264c0.724,4.073,1.268,9.61,0.559,15.54   c0,0.004-0.002,0.006-0.003,0.01c1.773,0.626,3.055,2.302,3.055,4.287c0,2.517-2.047,4.564-4.564,4.564   c-2.517,0-4.564-2.047-4.564-4.564c0-2.002,1.305-3.688,3.102-4.302c-0.013-0.115-0.017-0.231-0.003-0.352   c0.777-6.5-0.05-12.539-0.88-16.46c-0.024-0.112-0.032-0.223-0.03-0.333c-1.175-0.491-2.381-0.924-3.619-1.285l-0.944,0.149   c-2.038,1.716-3.822,2.532-6.787,2.737V87.439z"></path><circle cx="65.226" cy="77.012" r="0.734"></circle><path d="M48.5,57.187c-3.242-0.175-5.179-1.024-7.288-2.868l-0.944-0.16c-0.749,0.208-1.484,0.447-2.211,0.703   c-0.21,0.969-0.417,1.702-0.6,2.345c-0.483,1.7-0.765,2.704-0.363,6.556c2.851,0.908,4.963,4.041,4.963,7.766   c0,0.427-0.181,0.811-0.467,1.084c-0.052,0.796-0.236,1.701-0.667,2.639c0.333,0.321,0.541,0.77,0.541,1.269   c0,0.977-0.791,1.768-1.767,1.768c-0.977,0-1.768-0.791-1.768-1.768c0-0.904,0.681-1.641,1.558-1.747   c0.315-0.642,0.485-1.268,0.563-1.839c-0.578-0.209-0.993-0.756-0.993-1.406c0-2.732-1.675-5.04-3.657-5.04   s-3.656,2.308-3.656,5.04c0,0.687-0.463,1.259-1.093,1.437c-0.028,0.913,0.041,1.894,0.332,2.683   c0.607,0.159,1.057,0.706,1.057,1.362c0,0.782-0.633,1.415-1.414,1.415s-1.414-0.633-1.414-1.415c0-0.348,0.13-0.662,0.338-0.908   c-0.383-1.094-0.439-2.4-0.381-3.532c-0.262-0.27-0.425-0.637-0.425-1.043c0-3.882,2.29-7.131,5.325-7.878   c-0.375-3.894-0.07-5.247,0.503-7.265c0.008-0.028,0.017-0.059,0.025-0.087c-11.591,5.572-19.595,17.419-19.595,31.14H48.5V57.187z   "></path></g></svg>