<svg height='100px' width='100px'  fill="#333333" xmlns="http://www.w3.org/2000/svg" xmlns:xlink="http://www.w3.org/1999/xlink" version="1.1" x="0px" y="0px" viewBox="0 0 100 100" style="enable-background:new 0 0 100 100;" xml:space="preserve"><path d="M90,31.6c-0.4-0.5-10.8-12.4-27.4-9.3C47.8,25,40.4,14,40.1,13.5c-0.3-0.5-0.8-0.7-1.4-0.7c-0.6,0.1-1,0.4-1.2,0.9  L23.1,50.7c0,0,0,0,0,0L9.7,85.1c-0.3,0.8,0.1,1.6,0.9,1.9c0.2,0.1,0.4,0.1,0.5,0.1c0.6,0,1.2-0.4,1.4-1L25,54.1  c3.4,3.6,11.6,10.5,24.3,7.8c14.8-3.1,24.1,8.7,24.4,9.2c0.3,0.4,0.9,0.7,1.4,0.6c0.5-0.1,1-0.4,1.2-1l14-37.6  C90.5,32.6,90.4,32,90,31.6z M68.8,48.8c-3.6-1.4-7.9-2.3-12.7-1.9l4.4-11.3c4.9-0.6,9.2,0.3,12.8,1.7L68.8,48.8z M44.4,34.5  L40,46.1c-4.9-2-8-5.3-9.3-6.9l4.4-11.3C36.8,29.7,39.9,32.6,44.4,34.5z M63,25.2l-3.6,9.1c-0.4,0.1-0.7,0.1-1.1,0.2  c-4.7,0.9-8.7,0.4-12-0.7l3.6-9.5C53.5,25.5,57.9,26.1,63,25.2z M36.9,58.5l4-10.5c3.5,1.2,7.7,1.7,12.7,0.8c0,0,0.1,0,0.1,0  l-4,10.1c-0.4,0.1-0.7,0.1-1.1,0.2C44.1,60,40.2,59.6,36.9,58.5z M74.4,67.3c-1.7-1.8-4.7-4.3-8.7-6.3l4-10.3c4.4,2,7.5,4.7,8.7,5.9  L74.4,67.3z M83.7,42.2c-1.6-1.5-4.5-3.8-8.5-5.6l3.6-9.4c4.3,2,7.2,4.6,8.3,5.7L83.7,42.2z"></path></svg>