<svg height='100px' width='100px'  fill="#333333" xmlns="http://www.w3.org/2000/svg" data-name="Layer 1" viewBox="0 0 100 100" x="0px" y="0px"><title>Untitled-1</title><path d="M40.27,28.56a4.49,4.49,0,0,0,4.51,3.9h3.31a1,1,0,0,1,1,1v9.88a1,1,0,0,0,1,1h8.56a1,1,0,0,1,1,1v1.84a5.45,5.45,0,0,0,9.3,4,5.47,5.47,0,0,0,1.59-3.86v-2a1,1,0,0,1,1-1h9.15a1,1,0,0,0,1-1V34.53a1,1,0,0,0-1-1H78a5.52,5.52,0,0,1-5.55-5,5.44,5.44,0,0,1,5.42-5.94h3a1,1,0,0,0,1-1.05V12.7a1,1,0,0,0-1-1H71.7a1,1,0,0,1-1-1V8.33a5.45,5.45,0,0,0-10.89,0v2.29a1,1,0,0,1-1,1H50.17a1,1,0,0,0-1,1v9.89a1,1,0,0,1-1,1H44.65A4.42,4.42,0,0,0,40.27,28.56Z"></path><path d="M54.37,64.27a5.45,5.45,0,0,0-5.44-5.45H47a1,1,0,0,1-1-1V48.93a1,1,0,0,0-1-1h-8a1,1,0,0,0-1,1v.14A6.58,6.58,0,0,1,30,55.67a6.49,6.49,0,0,1-7.08-6.46v-.28a1,1,0,0,0-1-1H14.19a1,1,0,0,0-1,1v8.85a1,1,0,0,1-1.05,1H9.81a5.45,5.45,0,0,0,0,10.9H12.1a1,1,0,0,1,1.05,1v8.85a1,1,0,0,0,1,1H23a1,1,0,0,1,1,1v4a5.45,5.45,0,0,0,5.45,5.45h0A5.45,5.45,0,0,0,35,85.72v-4a1,1,0,0,1,1-1h8.86a1,1,0,0,0,1-1V70.76a1,1,0,0,1,1-1h2A5.45,5.45,0,0,0,54.37,64.27Z"></path><path d="M96.05,74.73a1,1,0,0,0,0-1.47l-6.37-6.15a1,1,0,0,1,0-1.47L91,64.21a5.45,5.45,0,0,0-7.84-7.56L81.8,58.07a1.06,1.06,0,0,1-1.48,0L74,52a1.05,1.05,0,0,0-1.48,0l-5.54,5.74a1.05,1.05,0,0,0,0,1.47l.2.2a6.48,6.48,0,1,1-9,9.32l-.2-.19a1.05,1.05,0,0,0-1.48,0L51.18,74a1.05,1.05,0,0,0,0,1.48l6.37,6.14a1.05,1.05,0,0,1,0,1.48L56,84.79a5.45,5.45,0,1,0,7.84,7.56l1.59-1.65a1,1,0,0,1,1.47,0l6.37,6.15a1,1,0,0,0,1.47,0l6-6.25a1,1,0,0,1,1.47,0l1.57,1.52a5.45,5.45,0,0,0,7.57-7.84l-1.57-1.52a1,1,0,0,1,0-1.47Z"></path><path d="M9.1,33.49H12a1,1,0,0,1,1,1v8.85a1,1,0,0,0,1,1h9.88a1,1,0,0,1,1,1v1.89a4.44,4.44,0,0,0,3.86,4.45,4.36,4.36,0,0,0,4.86-4.33v-2a1,1,0,0,1,1-1h10a1,1,0,0,0,1-1V35.57a1,1,0,0,0-1-1H42.88a6.49,6.49,0,0,1-6.45-7.08A6.58,6.58,0,0,1,43,21.56h1.68a1,1,0,0,0,1-1V12.7a1,1,0,0,0-1-1H35.86a1,1,0,0,1-1-1V8.33a5.45,5.45,0,1,0-10.9,0v2.29a1,1,0,0,1-1,1H14a1,1,0,0,0-1,1v8.85a1,1,0,0,1-1,1.05H9.1a5.45,5.45,0,1,0,0,10.89Z"></path></svg>