<svg height='100px' width='100px'  fill="#333333" xmlns="http://www.w3.org/2000/svg" viewBox="0 0 64 64" x="0px" y="0px"><g><path d="M53.163,5.293a1,1,0,0,0-1.414,0l-6.2,6.2-4.019,1.34a.959.959,0,0,0-.2.091l-3.441,2.064-6.2,2.067-.465.093L26.2,12.119a17.2,17.2,0,0,0-6.7-4.142l-.4-.135-6.2-6.2a1,1,0,0,0-1.414,0L2.293,10.837a1,1,0,0,0,0,1.414l6.2,6.2,1.34,4.019a.959.959,0,0,0,.091.2l2.064,3.441,2.067,6.2L14.47,34.4a2.725,2.725,0,0,0,5.344,0A11.922,11.922,0,0,0,20.03,31.4l2.3,2.3.16-.16V44.188a17.231,17.231,0,0,0,1.811,7.67l.189.378V61a1,1,0,0,0,1,1h13a1,1,0,0,0,1-1V52.236l1.9-3.789a1.047,1.047,0,0,0,.075-.205l.973-3.893L45.361,38.5l1.181-1.772a2.725,2.725,0,0,0,.274-2.464L51.881,29.2a17.214,17.214,0,0,0,4.142-6.7l.135-.4,6.2-6.2a1,1,0,0,0,0-1.414ZM29.909,21.035a.983.983,0,0,0-.248-.347A.726.726,0,0,1,30,19.431L31.1,19.21A2.972,2.972,0,0,0,30.5,21v.171A3.066,3.066,0,0,0,29.909,21.035ZM19.264,27.808a1,1,0,0,0-1.688.9l.278,1.386a9.953,9.953,0,0,1,0,3.906.726.726,0,0,1-1.423,0L16,31.854a.978.978,0,0,0-.032-.121L13.848,25.37a.959.959,0,0,0-.091-.2L11.692,21.73l-1.38-4.138a.981.981,0,0,0-.241-.391L4.414,11.544l7.778-7.778L17.85,9.423a1,1,0,0,0,.39.241l.626.21a15.206,15.206,0,0,1,5.922,3.659L28.954,17.7a2.735,2.735,0,0,0-1.374,1.51.986.986,0,0,0-1.245.112,1,1,0,0,0,0,1.414l1.1,1.1a2.982,2.982,0,0,0-.924,2.05l-.826-.967a1,1,0,0,0-1.522,1.3l1.54,1.8c-.068,0-.134-.018-.2-.018a2.967,2.967,0,0,0-1.782.6l-.914-.914A1,1,0,1,0,21.385,27.1l1.2,1.2a2.936,2.936,0,0,0-.091.7v2.039Zm25.614,7.814-1.215,1.823a.888.888,0,0,0-.062.108l-3,6a.99.99,0,0,0-.076.205l-.973,3.893-1.951,3.9a.99.99,0,0,0-.106.447v8h-11V52a.994.994,0,0,0-.106-.448l-.295-.589a15.227,15.227,0,0,1-1.6-6.775V29a1,1,0,0,1,2,0v9a1,1,0,0,0,2,0V24a1,1,0,0,1,2,0V37a1,1,0,1,0,2,0V21a1,1,0,0,1,2,0V37a1,1,0,0,0,2,0V24a1,1,0,0,1,2,0V34.1l-.19.19.19.19V38a1,1,0,0,0,1.832.555l.784-1.177a9.923,9.923,0,0,1,2.762-2.762.725.725,0,0,1,1.005,1.006Zm9.7-14.772a1,1,0,0,0-.241.39l-.21.626a15.206,15.206,0,0,1-3.659,5.922l-4.991,4.991a2.732,2.732,0,0,0-2.712.173,11.985,11.985,0,0,0-1.4,1.105l3.309-3.308-1.414-1.414L40.495,32.1V24a3,3,0,0,0-4-2.829V21a3,3,0,0,0-1.935-2.8l4.07-1.356a.959.959,0,0,0,.2-.091l3.442-2.065,4.138-1.38a.981.981,0,0,0,.391-.241l5.657-5.657,7.778,7.778Z"></path></g></svg>