<svg height='100px' width='100px'  fill="#333333" xmlns:dc="http://purl.org/dc/elements/1.1/" xmlns:cc="http://creativecommons.org/ns#" xmlns:rdf="http://www.w3.org/1999/02/22-rdf-syntax-ns#" xmlns:svg="http://www.w3.org/2000/svg" xmlns="http://www.w3.org/2000/svg" xmlns:sodipodi="http://sodipodi.sourceforge.net/DTD/sodipodi-0.dtd" xmlns:inkscape="http://www.inkscape.org/namespaces/inkscape" version="1.1" x="0px" y="0px" viewBox="0 0 100 100"><g transform="translate(0,-952.36218)"><path style="font-size:medium;font-style:normal;font-variant:normal;font-weight:normal;font-stretch:normal;text-indent:0;text-align:start;text-decoration:none;line-height:normal;letter-spacing:normal;word-spacing:normal;text-transform:none;direction:ltr;block-progression:tb;writing-mode:lr-tb;text-anchor:start;baseline-shift:baseline;opacity:1;color:#000000;fill:#333333;fill-opacity:1;stroke:none;stroke-width:4;marker:none;visibility:visible;display:inline;overflow:visible;enable-background:accumulate;font-family:Sans;-inkscape-font-specification:Sans" d="M 50.59375 5.96875 A 2.0002 2.0002 0 0 0 48.8125 8 L 48.8125 11.1875 A 2.0002 2.0002 0 1 0 52.8125 11.1875 L 52.8125 8 A 2.0002 2.0002 0 0 0 50.59375 5.96875 z M 50 16.96875 C 31.776036 16.96876 16.96875 31.77629 16.96875 50 C 16.968766 68.2237 31.776113 83.03125 50 83.03125 C 55.958435 83.03125 61.574502 81.4543 66.40625 78.6875 A 2.0019915 2.0019915 0 1 0 64.40625 75.21875 C 60.160146 77.65015 55.251591 79.03125 50 79.03125 C 33.937849 79.03125 20.968764 66.0619 20.96875 50 C 20.96875 33.93799 33.93776 20.96876 50 20.96875 C 66.061758 20.96875 79.031241 33.93803 79.03125 50 C 79.031248 57.1038 76.507177 63.5799 72.28125 68.625 A 2.006658 2.006658 0 0 0 71.96875 69.15625 L 67.8125 65.03125 C 71.244125 60.968256 73.343748 55.725989 73.34375 50 C 73.343742 37.1306 62.869598 26.65625 50 26.65625 C 37.130884 26.65625 26.656329 37.13059 26.65625 50 C 26.656302 62.8694 37.130852 73.34355 50 73.34375 C 52.970319 73.34355 55.818658 72.79685 58.4375 71.78125 A 2.0002 2.0002 0 1 0 57 68.0625 C 54.832572 68.903 52.471457 69.34365 50 69.34375 C 39.292622 69.34365 30.656294 60.7076 30.65625 50 C 30.656315 39.29233 39.292694 30.65625 50 30.65625 C 60.707884 30.65625 69.343744 39.29234 69.34375 50 C 69.343748 54.638794 67.712757 58.88778 65 62.21875 L 59.5625 56.78125 C 60.917068 54.868861 61.718737 52.510229 61.71875 50 C 61.718739 43.55769 56.442553 38.3125 50 38.3125 C 43.557905 38.31246 38.281346 43.55768 38.28125 50 C 38.281412 56.4422 43.557973 61.71855 50 61.71875 A 2.0002 2.0002 0 1 0 50 57.71875 C 45.719765 57.71865 42.281358 54.2806 42.28125 50 C 42.281314 45.71944 45.719815 42.31248 50 42.3125 C 54.280921 42.3125 57.718743 45.71939 57.71875 50 C 57.718743 51.426314 57.32438 52.737289 56.65625 53.875 L 52.25 49.46875 A 2.0002 2.0002 0 0 0 50.8125 48.84375 A 2.0002 2.0002 0 0 0 49.40625 52.28125 L 71.0625 73.9375 L 71.0625 79.96875 A 2.0002 2.0002 0 1 0 75.0625 79.96875 L 75.0625 75.125 L 79.09375 75.125 L 84.25 80.3125 L 82.25 80.3125 A 2.0002 2.0002 0 0 0 80.25 82.3125 L 80.25 84.3125 L 79.125 83.1875 A 2.0002 2.0002 0 1 0 76.3125 86.03125 L 80.84375 90.53125 A 2.0002 2.0002 0 0 0 84.25 89.125 L 84.25 84.3125 L 89.0625 84.3125 A 2.0002 2.0002 0 0 0 90.46875 80.875 L 81.3125 71.6875 A 2.0002 2.0002 0 0 0 79.90625 71.125 L 75.40625 71.125 C 80.167698 65.400846 83.031248 58.01963 83.03125 50 C 83.031239 31.77625 68.223542 16.96875 50 16.96875 z M 8 47.15625 A 2.0002 2.0002 0 1 0 8 51.15625 L 11.1875 51.15625 A 2.0002 2.0002 0 1 0 11.1875 47.15625 L 8 47.15625 z M 88.8125 47.15625 A 2.0002 2.0002 0 1 0 88.8125 51.15625 L 92 51.15625 A 2.0002 2.0002 0 1 0 92 47.15625 L 88.8125 47.15625 z M 50.59375 86.78125 A 2.0002 2.0002 0 0 0 48.8125 88.78125 L 48.8125 92 A 2.0002 2.0002 0 1 0 52.8125 92 L 52.8125 88.78125 A 2.0002 2.0002 0 0 0 50.59375 86.78125 z " transform="translate(0,952.36218)"></path></g></svg>