<svg height='100px' width='100px'  fill="#333333" xmlns="http://www.w3.org/2000/svg" xmlns:xlink="http://www.w3.org/1999/xlink" version="1.1" x="0px" y="0px" viewBox="0 0 1024 1024" style="enable-background:new 0 0 1024 1024;" xml:space="preserve"><g><g><g><path d="M737,568.2c0,25.4,0,50.9,0,76.3c0,39.3,0,78.7,0,118c0,10.9,0.7,22.2-0.6,33c0.6-4.4,1.2-8.9,1.8-13.3     c-0.9,6.7-2.7,13.1-5.2,19.4c1.7-4,3.4-8,5-11.9c-2.6,6.1-5.9,11.7-9.9,17c2.6-3.4,5.2-6.7,7.8-10.1c-4.1,5.2-8.7,9.8-13.8,13.8     c3.4-2.6,6.7-5.2,10.1-7.8c-5.3,4-10.9,7.3-17,9.9c4-1.7,8-3.4,11.9-5c-6.3,2.6-12.7,4.3-19.4,5.2c4.4-0.6,8.9-1.2,13.3-1.8     c-7.4,0.9-15,0.6-22.5,0.6c-13.1,0-26.1,0-39.2,0c-44,0-87.9,0-131.9,0c-53.7,0-107.4,0-161.2,0c-46,0-92,0-138,0     c-21.4,0-42.8,0.1-64.2,0c-3.4,0-6.7-0.2-10.1-0.6c4.4,0.6,8.9,1.2,13.3,1.8c-6.7-0.9-13.1-2.7-19.4-5.2c4,1.7,8,3.4,11.9,5     c-6.1-2.6-11.7-5.9-17-9.9c3.4,2.6,6.7,5.2,10.1,7.8c-5.2-4.1-9.8-8.7-13.8-13.8c2.6,3.4,5.2,6.7,7.8,10.1     c-4-5.3-7.3-10.9-9.9-17c1.7,4,3.4,8,5,11.9c-2.6-6.3-4.3-12.7-5.2-19.4c0.6,4.4,1.2,8.9,1.8,13.3c-0.9-7.4-0.6-15-0.6-22.5     c0-13.1,0-26.1,0-39.2c0-44,0-87.9,0-131.9c0-53.7,0-107.4,0-161.2c0-46,0-92,0-138c0-21.4-0.1-42.8,0-64.2     c0-3.4,0.2-6.7,0.6-10.1c-0.6,4.4-1.2,8.9-1.8,13.3c0.9-6.7,2.7-13.1,5.2-19.4c-1.7,4-3.4,8-5,11.9c2.6-6.1,5.9-11.7,9.9-17     c-2.6,3.4-5.2,6.7-7.8,10.1c4.1-5.2,8.7-9.8,13.8-13.8c-3.4,2.6-6.7,5.2-10.1,7.8c5.3-4,10.9-7.3,17-9.9c-4,1.7-8,3.4-11.9,5     c6.3-2.6,12.7-4.3,19.4-5.2c-4.4,0.6-8.9,1.2-13.3,1.8c14-1.7,28.6-0.6,42.7-0.6c29,0,58,0,87.1,0c35.8,0,71.6,0,107.3,0     c31.3,0,62.6,0,94,0c15.2,0,30.4,0.2,45.6,0c0.2,0,0.4,0,0.6,0c12.8,0,26.3-5.6,35.4-14.6c8.7-8.7,15.2-22.9,14.6-35.4     c-0.6-12.9-4.8-26.3-14.6-35.4c-9.8-9-21.8-14.6-35.4-14.6c-18.9,0-37.8,0-56.7,0c-41.7,0-83.4,0-125.1,0c-42.2,0-84.3,0-126.5,0     c-19.8,0-39.5-0.2-59.3,0c-21.9,0.2-43.6,5.9-62.6,16.7c-19.2,11-36.3,28.1-46.9,47.4c-11,20.1-16.1,42-16.1,64.9     c0,20.2,0,40.5,0,60.7c0,37.8,0,75.7,0,113.5c0,45,0,90,0,134.9c0,42.1,0,84.2,0,126.3c0,29.1,0,58.1,0,87.2c0,6.5,0,13,0,19.4     c0,25.7,7,52.5,22.6,73.3c4.3,5.8,8.7,11.8,13.8,17c5.4,5.5,11.8,10.1,17.9,14.7c9.2,6.9,19.4,11.3,30.2,15.4     c13,5.1,27.6,7,41.5,7.1c4.8,0,9.7,0,14.5,0c26.7,0,53.5,0,80.2,0c41,0,82.1,0,123.1,0c45.2,0,90.3,0,135.5,0     c39.3,0,78.6,0,117.9,0c23,0,45.9,0,68.9,0c12.4,0,24.6-0.9,36.8-3.6c44.1-9.8,82-47.7,92.2-91.7c3.7-15.7,3.7-30.9,3.7-46.7     c0-17.8,0-35.5,0-53.3c0-41.7,0-83.3,0-125c0-7.7,0-15.3,0-23c0-12.8-5.6-26.3-14.6-35.4c-8.7-8.7-22.9-15.2-35.4-14.6     c-12.9,0.6-26.3,4.8-35.4,14.6C742.6,542.6,737,554.6,737,568.2L737,568.2z"></path></g></g><g><g><path d="M985.9,370.7c0-23.4,0-46.8,0-70.2c0-37.3,0-74.7,0-112c0-8.6,0-17.3,0-25.9c0-27-22.9-50-50-50     c-23.4,0-46.8,0-70.2,0c-37.3,0-74.7,0-112,0c-8.6,0-17.3,0-25.9,0c-12.8,0-26.3,5.6-35.4,14.6c-8.7,8.7-15.2,22.9-14.6,35.4     c0.6,12.9,4.8,26.3,14.6,35.4c9.8,9,21.8,14.6,35.4,14.6c23.4,0,46.8,0,70.2,0c37.3,0,74.7,0,112,0c8.6,0,17.3,0,25.9,0     c-16.7-16.7-33.3-33.3-50-50c0,23.4,0,46.8,0,70.2c0,37.3,0,74.7,0,112c0,8.6,0,17.3,0,25.9c0,12.8,5.6,26.3,14.6,35.4     c8.7,8.7,22.9,15.2,35.4,14.6c12.9-0.6,26.3-4.8,35.4-14.6C980.2,396.3,985.9,384.3,985.9,370.7L985.9,370.7z"></path></g></g><g><g><path d="M483.3,685.9c4.3-4.3,8.7-8.7,13-13c11.8-11.8,23.6-23.6,35.4-35.4c17.6-17.6,35.1-35.1,52.7-52.7     c21.3-21.3,42.6-42.6,64-64c23.4-23.4,46.7-46.7,70.1-70.1c23.6-23.6,47.2-47.2,70.7-70.7c22.1-22.1,44.2-44.2,66.3-66.3     c18.6-18.6,37.2-37.2,55.7-55.7c13.4-13.4,26.7-26.7,40.1-40.1c6.4-6.4,12.8-12.6,19.1-19.1c0.3-0.3,0.6-0.6,0.8-0.8     c9.1-9.1,14.6-22.5,14.6-35.4c0-12.3-5.4-26.9-14.6-35.4c-9.5-8.7-22-15.2-35.4-14.6c-13.3,0.6-25.8,5.1-35.4,14.6     c-4.3,4.3-8.7,8.7-13,13c-11.8,11.8-23.6,23.6-35.4,35.4c-17.6,17.6-35.1,35.1-52.7,52.7c-21.3,21.3-42.6,42.6-64,64     c-23.4,23.4-46.7,46.7-70.1,70.1c-23.6,23.6-47.2,47.2-70.7,70.7c-22.1,22.1-44.2,44.2-66.3,66.3c-18.6,18.6-37.2,37.2-55.7,55.7     c-13.4,13.4-26.7,26.7-40.1,40.1c-6.4,6.4-12.8,12.6-19.1,19.1c-0.3,0.3-0.6,0.6-0.8,0.8c-9.1,9.1-14.6,22.5-14.6,35.4     c0,12.3,5.4,26.9,14.6,35.4c9.5,8.7,22,15.2,35.4,14.6C461.2,699.9,473.7,695.4,483.3,685.9L483.3,685.9z"></path></g></g></g></svg>