<svg height='100px' width='100px'  fill="#333333" xmlns="http://www.w3.org/2000/svg" xmlns:xlink="http://www.w3.org/1999/xlink" version="1.1" x="0px" y="0px" viewBox="0 0 32 32" style="enable-background:new 0 0 32 32;" xml:space="preserve"><path d="M23.554,14.533C21.719,16.652,19.017,18,16,18s-5.719-1.348-7.554-3.467C4.535,17.408,2,22.426,2,28c0,2.203,1.813,4,4,4h20  c2.188,0,4-1.797,4-4C30,22.426,27.465,17.408,23.554,14.533z M16,16c4.418,0,8-3.582,8-8s-3.582-8-8-8c-4.418,0-8,3.582-8,8  S11.582,16,16,16z"></path></svg>