<svg height='100px' width='100px'  fill="#333333" xmlns="http://www.w3.org/2000/svg" xmlns:xlink="http://www.w3.org/1999/xlink" xml:space="preserve" version="1.1" style="shape-rendering:geometricPrecision;text-rendering:geometricPrecision;image-rendering:optimizeQuality;" viewBox="0 0 2539.98 2539.98" x="0px" y="0px" fill-rule="evenodd" clip-rule="evenodd"><defs><style type="text/css">
   
    .fil0 {fill:#333333;fill-rule:nonzero}
   
  </style></defs><g><path class="fil0" d="M2086.5 2182.26l-565.51 0 0 -565.51 232.95 0 0.01 -484.52 -483.96 -3.84 -483.96 3.84 0.01 230.53 232.95 0 0 565.5 -565.5 0 0 -565.5 232.95 0 -0.01 -338.59 533.56 4.22 0 -105.17 -232.75 0 0 -565.51 565.51 0 0 565.51 -232.76 0 0 105.17 533.56 -4.22 -0.01 592.58 232.96 0 0 565.51zm-1167.51 -354l0 -365.5 -365.5 0 0 365.5 365.5 0zm533.76 -1005.04l0 -365.51 -365.51 0 0 365.51 365.51 0zm533.75 1259.04l0 -365.51 -365.51 0 0 365.51 365.51 0z"></path></g></svg>