<svg width="80" height="80" viewBox="0 0 80 80" fill="none" xmlns="http://www.w3.org/2000/svg">
<path d="M16.6508 8.79996C16.1946 8.84618 15.7635 9.09924 15.5008 9.47496L5.10078 23.875C4.90879 24.1426 4.80239 24.4706 4.80078 24.8V69.5999C4.80087 70.4377 5.56305 71.1999 6.40078 71.1999H73.6008C74.4385 71.1999 75.2007 70.4377 75.2008 69.5999V24.8C75.1992 24.4706 75.0928 24.1426 74.9008 23.875L64.5008 9.47496C64.2076 9.06116 63.7079 8.80173 63.2008 8.79996H16.8008C16.7508 8.79764 16.7007 8.79764 16.6508 8.79996ZM17.6008 12H38.4008V23.2H9.52578L17.6008 12ZM41.6008 12H62.4008L70.4758 23.2H41.6008V12ZM8.00078 26.4H32.8008V32.8C32.8009 33.6377 33.563 34.3999 34.4008 34.4H45.6008C46.4385 34.3999 47.2007 33.6377 47.2008 32.8V26.4H72.0008V67.9999H8.00078V26.4ZM36.0008 26.4H44.0008V31.2H36.0008V26.4Z" fill="#111111"/>
</svg>
