<svg height='100px' width='100px'  fill="#333333" xmlns="http://www.w3.org/2000/svg" xmlns:xlink="http://www.w3.org/1999/xlink" viewBox="0 0 24 24" version="1.1" x="0px" y="0px"><title>icon/thought</title><desc>Created with Sketch.</desc><g stroke="none" stroke-width="1" fill="none" fill-rule="evenodd"><path d="M15.5,4 C19.0761424,4 22,6.92385763 22,10.5 C22,13.8925353 19.3612734,16.7075083 16.0118357,16.9717062 C15.0750657,18.2325391 13.5989391,19 12,19 C10.3718264,19 8.87828554,18.1982676 7.9472555,16.8941781 C7.62103195,16.963944 7.31200288,17 7,17 C4.24885763,17 2,14.7511424 2,12 C2,9.98327151 3.22723423,8.19612199 5.05131409,7.41821547 C5.34375817,4.92878139 7.45964071,3 10,3 C11.2761371,3 12.4782938,3.49410432 13.3977378,4.35508713 C14.0728902,4.12136197 14.7794182,4 15.5,4 Z M21,10.5 C21,7.47614237 18.5238576,5 15.5,5 C14.7971892,5 14.1101321,5.13681156 13.4591982,5.39963436 C13.2677182,5.47694685 13.0484085,5.42859381 12.9071925,5.27792905 C12.1481661,4.4681162 11.1082207,4 10,4 C7.88394741,4 6.13225234,5.6806473 6.02232685,7.79693632 C6.01181584,7.99929464 5.88021164,8.1753009 5.68908617,8.24260935 C4.09270231,8.80480618 3,10.3026277 3,12 C3,14.1988576 4.80114237,16 7,16 C7.32436931,16 7.6559274,15.9474022 8.03789877,15.8427664 C8.25275447,15.7839096 8.48063144,15.8742948 8.59673035,16.0644214 C9.32497734,17.2570178 10.601651,18 12,18 C13.3459892,18 14.5846065,17.3184943 15.3263452,16.2090952 C15.4151608,16.076256 15.5621199,15.9938695 15.7217844,15.9874088 C18.6538422,15.8687653 21,13.4386552 21,10.5 Z M7,20 C7,19.4481424 6.55185763,19 6,19 C5.44814237,19 5,19.4481424 5,20 C5,20.5518576 5.44814237,21 6,21 C6.55185763,21 7,20.5518576 7,20 Z M8,20 C8,21.1041424 7.10414237,22 6,22 C4.89585763,22 4,21.1041424 4,20 C4,18.8958576 4.89585763,18 6,18 C7.10414237,18 8,18.8958576 8,20 Z" fill="#333333" fill-rule="nonzero"></path></g></svg>