<svg height='100px' width='100px'  fill="#000000" xmlns="http://www.w3.org/2000/svg" data-name="Layer 1" viewBox="0 0 68 68" x="0px" y="0px"><path d="M42.26,65.12H25.74a1,1,0,0,1-1-1V22.34a1,1,0,0,1,.33-.74l8.26-7.53a1,1,0,0,1,1.34,0l8.26,7.53a1,1,0,0,1,.33.74V64.12A1,1,0,0,1,42.26,65.12Zm-15.52-2H41.26V22.79L34,16.17l-7.26,6.62Z"></path><path d="M45,25.81a1,1,0,0,1-.67-.26L34,16.17,23.67,25.55a1,1,0,1,1-1.34-1.48l11-10a1,1,0,0,1,1.34,0l11,10a1,1,0,0,1,.07,1.42A1,1,0,0,1,45,25.81Z"></path><path d="M25.74,65.12H4a1,1,0,0,1-1-1V34a1,1,0,0,1,1-1H25.74a1,1,0,0,1,1,1V64.12A1,1,0,0,1,25.74,65.12ZM5,63.12H24.74V35H5Z"></path><path d="M64,65.12H42.26a1,1,0,0,1-1-1V34a1,1,0,0,1,1-1H64a1,1,0,0,1,1,1V64.12A1,1,0,0,1,64,65.12Zm-20.74-2H63V35H43.26Z"></path><path d="M66,65.12H2a1,1,0,0,1,0-2H66a1,1,0,0,1,0,2Z"></path><path d="M38,65.12H30a1,1,0,0,1-1-1V48.93a1,1,0,0,1,1-1H38a1,1,0,0,1,1,1V64.12A1,1,0,0,1,38,65.12Zm-7.06-2H37V49.93H31Z"></path><path d="M34,33a5.75,5.75,0,1,1,5.75-5.75A5.76,5.76,0,0,1,34,33Zm0-9.5a3.75,3.75,0,1,0,3.75,3.75A3.75,3.75,0,0,0,34,23.49Z"></path><polygon points="36.52 27.99 33.25 27.99 33.25 24.98 34.75 24.98 34.75 26.49 36.52 26.49 36.52 27.99"></polygon><rect x="32.2" y="53.8" width="1.5" height="2"></rect><rect x="28.97" y="36.03" width="2" height="2"></rect><rect x="37.03" y="36.03" width="2" height="2"></rect><rect x="33" y="36.03" width="2" height="2"></rect><rect x="28.97" y="42.03" width="2" height="2"></rect><rect x="37.03" y="42.03" width="2" height="2"></rect><rect x="33" y="42.03" width="2" height="2"></rect><rect x="33" y="3.88" width="2" height="10.94"></rect><path d="M41.43,10.07H34a1,1,0,0,1-1-1V3.88a1,1,0,0,1,1-1h7.43a1,1,0,0,1,1,1V9.07A1,1,0,0,1,41.43,10.07ZM35,8.07h5.43V4.88H35Z"></path><path d="M51.34,48h-5a1,1,0,0,1-1-1v-8.4a1,1,0,0,1,1-1h5a1,1,0,0,1,1,1V47A1,1,0,0,1,51.34,48Zm-4-2h3v-6.4h-3Z"></path><path d="M59.92,48h-5a1,1,0,0,1-1-1v-8.4a1,1,0,0,1,1-1h5a1,1,0,0,1,1,1V47A1,1,0,0,1,59.92,48Zm-4-2h3v-6.4h-3Z"></path><path d="M51.34,60.44h-5a1,1,0,0,1-1-1V51a1,1,0,0,1,1-1h5a1,1,0,0,1,1,1v8.4A1,1,0,0,1,51.34,60.44Zm-4-2h3V52h-3Z"></path><path d="M59.92,60.44h-5a1,1,0,0,1-1-1V51a1,1,0,0,1,1-1h5a1,1,0,0,1,1,1v8.4A1,1,0,0,1,59.92,60.44Zm-4-2h3V52h-3Z"></path><path d="M13.08,48h-5a1,1,0,0,1-1-1v-8.4a1,1,0,0,1,1-1h5a1,1,0,0,1,1,1V47A1,1,0,0,1,13.08,48Zm-4-2h3v-6.4h-3Z"></path><path d="M21.66,48h-5a1,1,0,0,1-1-1v-8.4a1,1,0,0,1,1-1h5a1,1,0,0,1,1,1V47A1,1,0,0,1,21.66,48Zm-4-2h3v-6.4h-3Z"></path><path d="M13.08,60.44h-5a1,1,0,0,1-1-1V51a1,1,0,0,1,1-1h5a1,1,0,0,1,1,1v8.4A1,1,0,0,1,13.08,60.44Zm-4-2h3V52h-3Z"></path><path d="M21.66,60.44h-5a1,1,0,0,1-1-1V51a1,1,0,0,1,1-1h5a1,1,0,0,1,1,1v8.4A1,1,0,0,1,21.66,60.44Zm-4-2h3V52h-3Z"></path></svg>