<svg height='100px' width='100px'  fill="#333333" xmlns="http://www.w3.org/2000/svg" xmlns:xlink="http://www.w3.org/1999/xlink" version="1.1" x="0px" y="0px" viewBox="0 0 100 100" style="enable-background:new 0 0 100 100;" xml:space="preserve"><g><path d="M91.7,63.1c-1.9-2.5-11-6.7-11-6.7l0,0l-6.5,21l-2-16l1.6-2.2c0,0-0.1-0.5-1.1-2.1c1.5-0.1,5.9-2,7.4-2.6   c0-0.1-0.1-0.2-0.1-0.4c0,0-0.4-2.3-0.3-3.9c0.8-0.9,1.2-3.2,2-6.8c5.1-5.3,2.8-11.2,0.9-11.1c1-5.9,0.7-11.6-5.8-11.2   c0.2-4.3-20.2-6.7-18.6,11.2c-1.9-0.1-4.2,5.8,0.9,11.1c0.8,3.6,1.1,5.9,2,6.8c0.1,1.2-0.2,2.7-0.2,3.5c-0.2,0.3-0.2,0.5-0.2,0.5   v0.1c1,0.4,6,2.6,7.7,2.8c-0.9,1.6-1.1,2.1-1.1,2.1l1.6,2.2l-2,16L60,56c-0.7,0.3-8.1,3.7-10.9,6.6c1.4,0.9,2.5,1.7,3,2.5   c2,2.9,3,11.7,3.1,12.7l0.1,0.9L55,78.9c3.4,1.2,7.8,2.3,12.9,2.6c0,0,0,0,0.1,0c0.9,0.1,1.9,0.1,2.9,0.1s2,0,2.9-0.1   c0.1,0,0.2,0,0.2,0C88,80.6,94.8,74,94.8,74S93.6,65.5,91.7,63.1z"></path></g><path d="M45.5,37.7L45.5,37.7c-0.2-4.2-0.9-18.1-8.5-15.6c-2.4-4.1-9.1-4.1-12.8-2.3c-3.8,1.8-6.2,5.5-7.5,9.3  c-2.9,8.2-2.5,17.4-1.9,26c4.6,1.2,24.2,1.4,30.6,0.4C45.3,53.6,45.9,45.5,45.5,37.7z M42.6,40.7c-0.5,1.6-1.7,2.6-2.7,2.7  C39.2,48,36.4,54.2,31,54.2s-8.2-6.2-8.9-10.8c-1,0-1.9-0.8-2.4-1.8c2.8-0.8,11.7-3.4,14.9-10.8c1.1,3.1,4,9.3,8.3,8.2  C42.9,39.6,42.8,40.1,42.6,40.7z"></path><path d="M23.3,58.5c-0.2,0-0.4,0-0.4,0c-0.7,0.3-11.5,4.2-13.7,7.5c-2.4,3.4-2.9,12-2.9,12s5.8,2.8,19.5,3.3  C24.6,75.7,23.7,67.7,23.3,58.5z"></path><path d="M50.9,65.9c-1.8-2.7-13.7-7.3-13.7-7.3s-0.2,0-0.5,0c-0.3,9.2-1.2,17.2-2.4,22.8c14.5-0.4,19.5-3.5,19.5-3.5  S52.8,68.6,50.9,65.9z"></path></svg>