<svg height='100px' width='100px'  fill="#333333" xmlns="http://www.w3.org/2000/svg" xmlns:xlink="http://www.w3.org/1999/xlink" version="1.1" x="0px" y="0px" viewBox="0 0 100 100" style="enable-background:new 0 0 100 100;" xml:space="preserve"><g><path d="M50,0L0,22.905v50.99L50,100l50-26.104v-50.99L50,0z M50,4.555l42.903,19.654L77.926,31.07L35.878,11.032L50,4.555z    M47.875,94.214L4.25,71.438V27.46l43.624,19.984V94.214z M7.096,24.209l20.805-9.523l42.053,20.036L50,43.864L7.096,24.209z    M95.75,71.438L52.125,94.214v-46.77l20.732-9.498v12.716l6.822-3.141V34.822l16.07-7.362V71.438z M37.243,51.452l-2.624-1.426   l5.113-3.264l4.752,8.627l-2.624-1.427l-0.21,6.928l-4.617-2.51L37.243,51.452z M9.676,38.709l-2.624-1.166l5.112-3.772   l4.752,8.155l-2.624-1.166l-0.209,6.949l-4.618-2.051L9.676,38.709z"></path></g></svg>