<svg height='100px' width='100px'  fill="#333333" xmlns="http://www.w3.org/2000/svg" xmlns:xlink="http://www.w3.org/1999/xlink" version="1.1" x="0px" y="0px" viewBox="0 0 100 100" style="enable-background:new 0 0 100 100;" xml:space="preserve"><path d="M76.898,54.843v26.238c0,1.596-1.293,2.89-2.889,2.89H12.21c-1.596,0-2.889-1.293-2.889-2.89V19.284  c0-1.596,1.293-2.889,2.889-2.889h51.871V7.073H12.21C5.464,7.073,0,12.538,0,19.284v61.798c0,6.746,5.464,12.21,12.21,12.21h61.798  c6.746,0,12.21-5.464,12.21-12.21V54.843H76.898z"></path><g><polygon points="46.057,67.242 23.502,44.686 30.093,38.095 46.057,54.059 93.41,6.708 100,13.299  "></polygon></g></svg>