<svg width="80" height="80" viewBox="0 0 80 80" fill="none" xmlns="http://www.w3.org/2000/svg">
<path d="M40 4C30.3082 4 22.4 11.9082 22.4 21.6C22.4 31.2918 30.3082 39.2 40 39.2C49.6918 39.2 57.6 31.2918 57.6 21.6C57.6 11.9082 49.6918 4 40 4ZM40 8.8C47.0977 8.8 52.8 14.5023 52.8 21.6C52.8 28.6977 47.0977 34.4 40 34.4C32.9023 34.4 27.2 28.6977 27.2 21.6C27.2 14.5023 32.9023 8.8 40 8.8ZM40 42.4C22.3904 42.4 8 56.361 8 73.6C8.00006 74.2365 8.25294 74.8469 8.70301 75.297C9.15309 75.7471 9.7635 75.9999 10.4 76H69.6C70.2365 75.9999 70.8469 75.7471 71.297 75.297C71.7471 74.8469 71.9999 74.2365 72 73.6C72 56.361 57.6096 42.4 40 42.4ZM40 47.2C54.2357 47.2 65.6892 57.7674 66.95 71.2H13.05C14.3108 57.7674 25.7643 47.2 40 47.2Z" fill="#111111"/>
</svg>
