<svg width="80" height="80" viewBox="0 0 80 80" fill="none" xmlns="http://www.w3.org/2000/svg">
<g clip-path="url(#clip0)">
<path d="M64.667 29.1667L70.667 23.1667C71.0003 22.8333 71.167 22.5 71.167 22C71.167 21.5 71.0003 21.1667 70.667 20.8333L65.5003 15.6667C64.8337 15 63.8337 15 63.167 15.6667L56.667 22C53.667 20.1667 50.3337 18.6667 46.8337 18V11.3333H48.667C49.667 11.3333 50.3337 10.6667 50.3337 9.66667V1.66667C50.3337 0.666667 49.667 0 48.667 0H31.167C30.167 0 29.5003 0.666667 29.5003 1.66667V9.5C29.5003 10.5 30.167 11.1667 31.167 11.1667H33.0003V17.8333C29.667 18.6667 26.3337 20 23.5003 21.6667L17.3337 15.5C16.667 14.8333 15.667 14.8333 15.0003 15.5L10.0003 20.8333C9.66699 21.1667 9.50033 21.5 9.50033 22C9.50033 22.5 9.66699 22.8333 10.0003 23.1667L15.667 28.8333C11.3337 34.1667 8.66699 41.1667 8.66699 48.5C8.66699 65.8333 22.667 80 40.0003 80C57.3337 80 71.3337 65.8333 71.3337 48.6667C71.3337 41.3333 68.8337 34.5 64.667 29.1667ZM64.167 19.1667L67.0003 22L62.667 26.3333L59.8337 23.5L64.167 19.1667ZM32.8337 7.83333V3.33333H47.0003V7.83333H32.8337ZM43.5003 11.1667V17.3333C43.5003 17.3333 38.0003 16.8333 36.3337 17.3333V11.1667H43.5003ZM13.5003 22L16.3337 19.1667L20.667 23.5L18.0003 26.1667L17.8337 26.3333L13.5003 22ZM40.0003 76.6667C24.5003 76.6667 12.0003 64 12.0003 48.6667C12.0003 41 15.0003 34.1667 20.0003 29.1667L20.5003 28.6667C24.667 24.5 30.3337 21.6667 36.5003 21C36.8337 21 40.5003 20.3333 43.8337 21C57.667 22.8333 68.3337 34.5 68.3337 48.8333C68.0003 64 55.5003 76.6667 40.0003 76.6667Z" fill="#333333"/>
<path d="M40.0006 32.6668C41.0006 32.6668 41.6673 32.0001 41.6673 31.0001V26.3334C41.6673 25.3334 41.0006 24.6667 40.0006 24.6667C39.0006 24.6667 38.334 25.3334 38.334 26.3334V31.0001C38.334 32.0001 39.0006 32.6668 40.0006 32.6668Z" fill="#333333"/>
<path d="M40.0006 64.5C39.0006 64.5 38.334 65.1667 38.334 66.1667V70.8333C38.334 71.8333 39.0006 72.5 40.0006 72.5C41.0006 72.5 41.6673 71.8333 41.6673 70.8333V66.1667C41.6673 65.1667 41.0006 64.5 40.0006 64.5Z" fill="#333333"/>
<path d="M62.1673 47H57.5006C56.5007 47 55.834 47.6667 55.834 48.6667C55.834 49.6667 56.5007 50.3333 57.5006 50.3333H62.1673C63.1673 50.3333 63.834 49.6667 63.834 48.6667C63.834 47.6667 63.1673 47 62.1673 47Z" fill="#333333"/>
<path d="M22.5003 47H17.8337C16.8337 47 16.167 47.6667 16.167 48.6667C16.167 49.6667 16.8337 50.3333 17.8337 50.3333H22.5003C23.5003 50.3333 24.167 49.6667 24.167 48.6667C24.167 47.6667 23.3337 47 22.5003 47Z" fill="#333333"/>
<path d="M41.667 43.5V37.6667C41.667 36.6667 41.0003 36 40.0003 36C39.0003 36 38.3337 36.6667 38.3337 37.6667V43.5C36.167 44.1667 34.667 46.1667 34.667 48.5C34.667 51.5 37.0003 53.8333 40.0003 53.8333C43.0003 53.8333 45.3337 51.5 45.3337 48.5C45.3337 46.1667 43.8337 44.3333 41.667 43.5ZM40.0003 50.5C38.8337 50.5 38.0003 49.6667 38.0003 48.5C38.0003 47.5 38.8337 46.6667 39.8337 46.5H40.0003H40.167C41.167 46.5 42.0003 47.3333 42.0003 48.5C42.0003 49.6667 41.167 50.5 40.0003 50.5Z" fill="#333333"/>
</g>
<defs>
<clipPath id="clip0">
<rect width="80" height="80" fill="white"/>
</clipPath>
</defs>
</svg>
