<svg height='100px' width='100px'  fill="#333333" xmlns="http://www.w3.org/2000/svg" xmlns:xlink="http://www.w3.org/1999/xlink" version="1.1" x="0px" y="0px" viewBox="0 0 512 512" style="enable-background:new 0 0 512 512;" xml:space="preserve"><g><path d="M202.972,249.396c-3.867-3.942-10.2-4.003-14.142-0.134l-44.137,43.309c-1.916,1.88-2.996,4.453-2.996,7.138   s1.08,5.257,2.996,7.138l44.137,43.31c1.946,1.91,4.476,2.862,7.003,2.862c2.591,0,5.181-1.001,7.139-2.996   c3.868-3.942,3.809-10.273-0.134-14.142l-36.862-36.172l36.862-36.171C206.78,259.669,206.84,253.337,202.972,249.396z"></path><path d="M316.675,249.262c-3.943-3.868-10.272-3.807-14.142,0.134c-3.868,3.942-3.809,10.273,0.134,14.142l36.862,36.171   l-36.862,36.172c-3.942,3.868-4.002,10.2-0.134,14.142c1.958,1.996,4.547,2.996,7.139,2.996c2.527,0,5.057-0.952,7.003-2.862   l44.137-43.31c1.916-1.88,2.996-4.453,2.996-7.138s-1.08-5.257-2.996-7.138L316.675,249.262z"></path><path d="M272.179,215.308c-5.358-1.361-10.795,1.876-12.155,7.228l-38.257,150.5c-1.361,5.353,1.875,10.795,7.228,12.156   c0.827,0.21,1.655,0.311,2.471,0.311c4.466,0,8.534-3.013,9.685-7.539l38.257-150.5   C280.768,222.111,277.531,216.669,272.179,215.308z"></path><path d="M419,56.355H93c-27.57,0-50,22.43-50,50v299.289c0,27.57,22.43,50,50,50h326c27.57,0,50-22.43,50-50V106.355   C469,78.785,446.57,56.355,419,56.355z M93,76.355h326c16.542,0,30,13.458,30,30v51.158H63v-51.158   C63,89.813,76.458,76.355,93,76.355z M419,435.645H93c-16.542,0-30-13.458-30-30V177.513h386v228.131   C449,422.187,435.542,435.645,419,435.645z"></path></g></svg>