<svg height='100px' width='100px'  fill="#333333" xmlns:sketch="http://www.bohemiancoding.com/sketch/ns" xmlns="http://www.w3.org/2000/svg" xmlns:xlink="http://www.w3.org/1999/xlink" version="1.1" x="0px" y="0px" viewBox="0 0 100 100" enable-background="new 0 0 100 100" xml:space="preserve"><title>windowClick</title><desc>Created with Sketch.</desc><g sketch:type="MSPage"><g><path fill="none" d="M9,81.5c0,1.1,0.9,2,2,2h78c1.1,0,2-0.9,2-2V28.6H9V81.5z M41.1,35.7l24.7,22.9l-11.1-0.3L60.3,71    c0.7,1.7-0.1,3.8-1.8,4.5s-3.7-0.1-4.5-1.8l-5.5-12.6l-7.6,8.3L41.1,35.7z"></path><path fill="#333333" d="M13.8,18.7c-1.2,0-2.1,0.9-2.1,2.1s1,2.1,2.1,2.1c1.2,0,2.1-0.9,2.1-2.1S15,18.7,13.8,18.7z"></path><path fill="#333333" d="M19.6,18.7c-1.2,0-2.1,0.9-2.1,2.1s0.9,2.1,2.1,2.1c1.2,0,2.1-0.9,2.1-2.1S20.8,18.7,19.6,18.7z"></path><path fill="#333333" d="M54,73.7c0.8,1.7,2.8,2.5,4.5,1.8s2.5-2.8,1.8-4.5l-5.6-12.7l11.1,0.3L41.1,35.7l-0.2,33.7l7.6-8.3    L54,73.7z"></path><path fill="#333333" d="M89,12.5H11c-3.3,0-6,2.7-6,6v63c0,3.3,2.7,6,6,6h78c3.3,0,6-2.7,6-6v-63C95,15.2,92.3,12.5,89,12.5z     M91,81.5c0,1.1-0.9,2-2,2H11c-1.1,0-2-0.9-2-2V28.6h82V81.5z M91,24.6H9v-6.1c0-1.1,0.9-2,2-2h78c1.1,0,2,0.9,2,2V24.6z"></path><path fill="#333333" d="M25.4,18.7c-1.2,0-2.1,0.9-2.1,2.1s0.9,2.1,2.1,2.1c1.2,0,2.1-0.9,2.1-2.1S26.6,18.7,25.4,18.7z"></path><path fill="#333333" d="M13.8,22.9c-1.1,0-2.1-0.9-2.1-2.1s0.9-2.1,2.1-2.1s2.1,0.9,2.1,2.1S15,22.9,13.8,22.9z M19.6,22.9    c-1.2,0-2.1-0.9-2.1-2.1s0.9-2.1,2.1-2.1c1.2,0,2.1,0.9,2.1,2.1S20.8,22.9,19.6,22.9z M25.4,22.9c-1.2,0-2.1-0.9-2.1-2.1    s0.9-2.1,2.1-2.1c1.2,0,2.1,0.9,2.1,2.1S26.6,22.9,25.4,22.9z"></path></g></g></svg>