<svg height='100px' width='100px'  fill="#333333" xmlns="http://www.w3.org/2000/svg" data-name="Layer 1" viewBox="0 0 100 100" x="0px" y="0px"><title>Artboard 25</title><path d="M94.94,17.65h-7.4V9.28A2.5,2.5,0,0,0,85,6.78H69.59A28.77,28.77,0,0,0,50,14.47,28.77,28.77,0,0,0,30.44,6.78H15a2.5,2.5,0,0,0-2.5,2.5v8.37H5.09a3.77,3.77,0,0,0-3.77,3.77v44a2.5,2.5,0,0,0,5,0V22.65h6.17v9.74a2.5,2.5,0,1,0,5,0V11.78h13A23.76,23.76,0,0,1,47.52,19V24.7a2.5,2.5,0,0,0,5,0V19a23.76,23.76,0,0,1,17.07-7.25h13V66.92h-13a28.77,28.77,0,0,0-21.44,9.6,2.5,2.5,0,1,0,3.73,3.33,23.77,23.77,0,0,1,17.71-7.93H85a2.5,2.5,0,0,0,2.5-2.5V22.65h6.17V79.15H70.29a19.77,19.77,0,0,0-14.74,6.6l-.21.22a7.39,7.39,0,0,1-.86.76L54.1,87a7.45,7.45,0,0,1-.85.48l-.21.1-.41.17A6.6,6.6,0,0,1,52,88c-.13,0-.3.08-.51.13a7.49,7.49,0,0,1-1,.13,6.7,6.7,0,0,1-1.84-.14L48.06,88a6.21,6.21,0,0,1-.73-.23L47,87.56l-.12-.06-.07,0a7.44,7.44,0,0,1-.92-.53l-.27-.19a7.58,7.58,0,0,1-1-.84l-.1-.1-.07-.08a19.48,19.48,0,0,0-14.73-6.59H25.69a2.5,2.5,0,1,0,0,5h4.05a14.48,14.48,0,0,1,11,4.88l.18.2.13.14a12.69,12.69,0,0,0,1.59,1.41l.49.34a12.52,12.52,0,0,0,1.54.88l.06,0,.15.07.64.28.12,0a10.3,10.3,0,0,0,1.15.36c.21.06.48.13.8.19a12.36,12.36,0,0,0,2.45.25l.71,0A12.16,12.16,0,0,0,52.41,93c.38-.07.7-.16.87-.21a10.66,10.66,0,0,0,1.11-.35c.27-.1.54-.21.78-.33l.28-.13a12.28,12.28,0,0,0,1.4-.8c.21-.14.42-.28.63-.44a12.46,12.46,0,0,0,1.43-1.26l.37-.39a14.77,14.77,0,0,1,11-4.93H94.94a3.77,3.77,0,0,0,3.77-3.77v-59A3.77,3.77,0,0,0,94.94,17.65Z"></path><path d="M3.29,85.21a6.83,6.83,0,0,0,9.65,0L27.42,70.73a22.35,22.35,0,1,0-9.66-9.65L3.29,75.56A6.83,6.83,0,0,0,3.29,85.21ZM25.37,38.58h0a17.35,17.35,0,1,1-5.08,12.27A17.24,17.24,0,0,1,25.37,38.58ZM6.82,79.09,20.61,65.31c.39.46.79.92,1.23,1.35s.89.83,1.36,1.23L9.4,81.67a1.83,1.83,0,1,1-2.58-2.58Z"></path><circle cx="37.64" cy="50.85" r="2.5"></circle><circle cx="46.56" cy="50.85" r="2.5"></circle><circle cx="28.72" cy="50.85" r="2.5"></circle></svg>