<svg height='100px' width='100px'  fill="#333333" xmlns:dc="http://purl.org/dc/elements/1.1/" xmlns:cc="http://creativecommons.org/ns#" xmlns:rdf="http://www.w3.org/1999/02/22-rdf-syntax-ns#" xmlns:svg="http://www.w3.org/2000/svg" xmlns="http://www.w3.org/2000/svg" xmlns:sodipodi="http://sodipodi.sourceforge.net/DTD/sodipodi-0.dtd" xmlns:inkscape="http://www.inkscape.org/namespaces/inkscape" viewBox="0 0 8.4666667 8.4666669" version="1.1" x="0px" y="0px"><svg:g><svg:path style="color:#000000;font-style:normal;font-variant:normal;font-weight:normal;font-stretch:normal;font-size:medium;line-height:normal;font-family:sans-serif;font-variant-ligatures:normal;font-variant-position:normal;font-variant-caps:normal;font-variant-numeric:normal;font-variant-alternates:normal;font-feature-settings:normal;text-indent:0;text-align:start;text-decoration:none;text-decoration-line:none;text-decoration-style:solid;text-decoration-color:#000000;letter-spacing:normal;word-spacing:normal;text-transform:none;writing-mode:lr-tb;direction:ltr;text-orientation:mixed;dominant-baseline:auto;baseline-shift:baseline;text-anchor:start;white-space:normal;shape-padding:0;clip-rule:nonzero;display:inline;overflow:visible;visibility:visible;opacity:1;isolation:auto;mix-blend-mode:normal;color-interpolation:sRGB;color-interpolation-filters:linearRGB;solid-color:#000000;solid-opacity:1;vector-effect:none;fill:#333333;fill-opacity:1;fill-rule:nonzero;stroke:none;stroke-width:0.52916664;stroke-linecap:round;stroke-linejoin:round;stroke-miterlimit:4;stroke-dasharray:none;stroke-dashoffset:0;stroke-opacity:1;color-rendering:auto;image-rendering:auto;shape-rendering:auto;text-rendering:auto;enable-background:accumulate" d="M 1.0740956,-1.6666667e-7 A 0.26460979,0.26460979 0 0 0 0.81054676,0.26561783 V 8.2031178 a 0.26460979,0.26460979 0 0 0 0.26354884,0.263549 h 0.9064042 a 0.26460979,0.26460979 0 0 0 0.2635515,-0.263549 v -2.887162 c 0.372274,-0.10944 1.443646,-0.366387 2.3300901,0.04341 1.3519124,0.624967 2.9119645,0.0078 2.9119671,0.0078 A 0.26460979,0.26460979 0 0 0 7.6561218,5.1211348 V 0.91984283 a 0.26460979,0.26460979 0 0 0 -0.3415797,-0.251666 c 0,0 -1.1041062,0.34141297 -2.5662519,-0.0062 -0.7993486,-0.190015 -1.5121096,-0.189227 -2.0236497,-0.140559 -0.1952731,0.01858 -0.3499565,0.044 -0.4805892,0.06873 v -0.32453 A 0.26460979,0.26460979 0 0 0 1.9804998,-1.6666667e-7 Z M 1.3397134,0.52916683 h 0.3751712 v 0.390676 4.20129197 2.816365 H 1.3397134 Z M 3.170093,1.0237128 c 0.4084452,-0.0093 0.9063857,0.02366 1.4546897,0.153996 1.2654095,0.300804 2.1214794,0.142189 2.5021725,0.05478 v 3.679878 c -0.243168,0.07852 -1.3593736,0.417222 -2.3300902,-0.03152 -1.0967084,-0.50699 -2.12648,-0.230982 -2.5528137,-0.0956 v -3.644747 c 0.09978,-0.02621 0.2057559,-0.06399 0.5488014,-0.0956 0.1147286,-0.01057 0.241091,-0.01808 0.3772403,-0.02119 z"></svg:path></svg:g></svg>