<?xml version="1.0" encoding="UTF-8" standalone="no"?>
<!DOCTYPE svg PUBLIC "-//W3C//DTD SVG 1.1//EN" "http://www.w3.org/Graphics/SVG/1.1/DTD/svg11.dtd">
<svg width="100%" height="100%" viewBox="0 0 2896 2896" version="1.1" xmlns="http://www.w3.org/2000/svg" xmlns:xlink="http://www.w3.org/1999/xlink" xml:space="preserve" xmlns:serif="http://www.serif.com/" style="fill-rule:evenodd;clip-rule:evenodd;stroke-linejoin:round;stroke-miterlimit:10;">
    <g transform="matrix(1,0,0,1,-1687.5,-6604.17)">
        <g id="sid-outline" transform="matrix(1.28704,0,0,0.891026,78.7037,1035.26)">
            <rect x="1250" y="6250" width="2250" height="3250" style="fill:none;"/>
            <g transform="matrix(1,0,0,1,453.318,22.5738)">
                <g transform="matrix(3.23741,0,0,4.67626,2653.07,6959.68)">
                    <path d="M0,381.584C-12.177,331.668 -38.059,285.169 -74.065,248.516C-48.943,269.713 -23.82,290.909 1.303,312.105C-6.819,264.029 -49.635,230.611 -89.738,202.879L0.493,248.149C-25.106,204.363 -59.291,165.619 -99.548,134.766C-66.213,148.9 -35.256,168.628 -8.365,192.875C-27.167,154.378 -57.675,121.695 -94.788,100.29C-67.377,112.771 -39.965,125.253 -12.554,137.734C-33.815,110.38 -63.783,89.902 -96.993,80.033C-69.544,77.473 -42.096,74.912 -14.647,72.351C-41.373,59.845 -71.806,55.394 -100.994,59.722C-82.542,43.463 -60.87,30.875 -37.606,22.901C-62.078,23.043 -86.49,29.322 -107.993,41.003C-110.086,36.807 -112.18,32.611 -114.273,28.415C-106.683,28.323 -99.446,22.059 -98.939,14.487C-98.431,6.914 -105.43,-0.495 -112.987,0.204C-120.545,0.902 -126.061,10.264 -122.494,16.964C-131.656,8.724 -140.817,0.483 -149.978,-7.757C-141.152,-26.204 -125.897,-41.498 -107.472,-50.37C-132.514,-44.52 -156.584,-34.537 -178.415,-20.946C-171.63,-41.471 -161.164,-60.773 -147.665,-77.658C-166.654,-68.04 -183.956,-55.104 -198.552,-39.611C-197.618,-66.433 -194.354,-92.097 -188.648,-118.251C-187.085,-125.412 -189.25,-137.889 -197.22,-126.796C-214.234,-103.113 -229.178,-77.229 -237.53,-48.74C-239.013,-43.679 -245.219,-29.047 -243.227,-24.122C-254.691,-52.477 -279.839,-74.928 -309.307,-83.117C-288.825,-64.838 -275.407,-38.835 -272.377,-11.55C-285.032,-32.663 -306.264,-48.461 -330.123,-54.517C-316.447,-42.322 -305.724,-26.839 -299.118,-9.749C-295.963,-1.588 -295.159,10.157 -303.255,13.472C-307.49,6.192 -314.931,-2.251 -322.626,1.173C-328.105,3.611 -329.503,11.244 -327.113,16.744C-324.724,22.244 -319.711,26.076 -314.902,29.659C-316.817,33.115 -318.732,36.572 -320.647,40.029C-341.75,29.021 -365.487,23.107 -389.287,22.928C-366.483,30.352 -345.33,42.805 -327.773,59.143C-356.391,55.715 -385.918,60.223 -412.21,72.033C-385.797,75.79 -359.201,78.258 -332.548,79.425C-364.395,91.038 -393.004,111.395 -414.414,137.676C-387.827,125.61 -361.241,113.544 -334.654,101.479C-370.514,123.168 -400.002,155.255 -418.592,192.816C-392.284,169.099 -361.994,149.812 -329.375,136.006C-368.676,166.819 -402.112,205.086 -427.375,248.166C-397.346,233.089 -367.316,218.013 -337.287,202.937C-377.301,230.75 -420.255,264.089 -428.138,312.178C-403.056,290.944 -377.974,269.709 -352.892,248.475C-388.879,285.153 -414.747,331.661 -426.926,381.58C-411.32,358.215 -391.875,337.421 -369.608,320.285C-386.598,355.495 -400.316,392.282 -410.526,430.02C-399.871,415.654 -386.747,403.124 -371.904,393.145C-371.722,407.98 -367.672,422.391 -360.857,435.531C-361.09,435.724 -361.322,435.918 -361.543,436.134L-360.757,435.723C-360.716,435.801 -360.676,435.878 -360.636,435.956C-367.101,444.493 -373.594,453.01 -380.096,461.52C-385.683,468.833 -393.843,476.594 -394.219,486.394C-394.596,496.218 -387.02,504.988 -378.009,508.92C-353.821,519.473 -322.345,508.948 -310.695,485.81C-287.353,498.75 -260.542,505.341 -233.836,507.884C-194.383,511.641 -153.144,506.702 -118.602,487.273C-117.331,486.558 -116.074,485.815 -114.824,485.057C-102.795,507.521 -71.848,517.599 -47.999,507.194C-38.988,503.263 -31.412,494.493 -31.789,484.669C-32.165,474.869 -40.325,467.107 -45.912,459.794C-52.538,451.12 -59.158,442.441 -65.746,433.739L-64.465,434.409C-64.927,433.958 -65.421,433.571 -65.932,433.22C-59.519,420.678 -55.413,407.072 -54.382,392.93C-40.103,403.482 -27.279,415.999 -16.384,430.018C-26.555,392.221 -40.333,355.395 -57.47,320.204C-35.07,337.269 -15.556,358.111 0,381.584Z" style="fill:none;fill-rule:nonzero;stroke:rgb(51,51,50);stroke-width:8px;"/>
                </g>
                <g transform="matrix(3.23741,0,0,4.67626,2010.16,7384.39)">
                    <path d="M0,-13.897C2.275,-11.32 2.863,-7.598 0.658,-4.271C-1.03,-1.723 -3.547,0.15 -6.089,1.847C-7.973,3.106 -10.029,4.338 -12.295,4.373C-14.786,4.411 -17.056,2.993 -19.009,1.445C-21.436,-0.479 -23.666,-2.721 -25.176,-5.426C-26.437,-7.685 -27.14,-10.555 -25.883,-12.816C-24.867,-14.645 -22.82,-15.633 -20.831,-16.281C-15.636,-17.974 -9.424,-18.308 -4.176,-16.601C-2.491,-16.053 -1.062,-15.1 0,-13.897" style="fill:rgb(51,51,50);fill-rule:nonzero;"/>
                </g>
                <g transform="matrix(3.23741,0,0,4.67626,2010.16,7384.39)">
                    <path d="M0,-13.897C2.275,-11.32 2.863,-7.598 0.658,-4.271C-1.03,-1.723 -3.547,0.15 -6.089,1.847C-7.973,3.106 -10.029,4.338 -12.295,4.373C-14.786,4.411 -17.056,2.993 -19.009,1.445C-21.436,-0.479 -23.666,-2.721 -25.176,-5.426C-26.437,-7.685 -27.14,-10.555 -25.883,-12.816C-24.867,-14.645 -22.82,-15.633 -20.831,-16.281C-15.636,-17.974 -9.424,-18.308 -4.176,-16.601C-2.491,-16.053 -1.062,-15.1 0,-13.897Z" style="fill:none;fill-rule:nonzero;stroke:rgb(51,51,50);stroke-width:8px;stroke-linecap:round;"/>
                </g>
                <g transform="matrix(0.33017,-4.65188,-3.22053,-0.476913,2158.99,7153.39)">
                    <path d="M-11.763,-10.62C-21.517,-10.619 -29.424,-5.325 -29.424,1.206C-29.424,7.737 -21.517,13.031 -11.763,13.031C-2.009,13.031 5.897,7.737 5.897,1.206C5.897,-5.325 -2.009,-10.62 -11.763,-10.62" style="fill:white;fill-rule:nonzero;"/>
                </g>
                <g transform="matrix(0.33017,-4.65188,-3.22053,-0.476913,2158.99,7153.39)">
                    <ellipse cx="-11.764" cy="1.206" rx="17.661" ry="11.826" style="fill:none;stroke:rgb(51,51,50);stroke-width:5px;stroke-linejoin:miter;"/>
                </g>
                <g transform="matrix(-0.109212,-4.6736,-3.23557,0.15775,2148.83,7186.98)">
                    <path d="M-8.014,-8.289C-14.562,-7.798 -19.869,-3.811 -19.869,0.617C-19.868,5.046 -14.562,8.239 -8.014,7.749C-1.467,7.259 3.84,3.272 3.84,-1.156C3.84,-5.585 -1.467,-8.779 -8.014,-8.289" style="fill:rgb(51,51,50);fill-rule:nonzero;"/>
                </g>
                <g transform="matrix(-0.109212,-4.6736,-3.23557,0.15775,2148.83,7186.98)">
                    <path d="M-8.014,-8.289C-14.562,-7.798 -19.869,-3.811 -19.869,0.617C-19.868,5.046 -14.562,8.239 -8.014,7.749C-1.467,7.259 3.84,3.272 3.84,-1.156C3.84,-5.585 -1.467,-8.779 -8.014,-8.289Z" style="fill:none;fill-rule:nonzero;stroke:rgb(51,51,50);stroke-width:4px;stroke-linejoin:miter;"/>
                </g>
                <g transform="matrix(3.08249,1.42927,0.989492,-4.45248,2143.83,7035.71)">
                    <path d="M-0.291,-2.683C5.197,-0.012 11.911,-0.011 17.4,-2.683" style="fill:none;fill-rule:nonzero;stroke:rgb(51,51,50);stroke-width:5px;stroke-linecap:round;stroke-linejoin:miter;"/>
                </g>
                <g transform="matrix(0.33017,4.65188,3.22053,-0.476913,1751.29,7166.85)">
                    <path d="M11.763,-10.62C21.517,-10.619 29.424,-5.325 29.424,1.206C29.424,7.736 21.517,13.031 11.763,13.031C2.009,13.031 -5.897,7.737 -5.897,1.206C-5.897,-5.325 2.009,-10.62 11.763,-10.62" style="fill:white;fill-rule:nonzero;"/>
                </g>
                <g transform="matrix(0.33017,4.65188,3.22053,-0.476913,1751.29,7166.85)">
                    <ellipse cx="11.764" cy="1.206" rx="17.661" ry="11.826" style="fill:none;stroke:rgb(51,51,50);stroke-width:5px;stroke-linejoin:miter;"/>
                </g>
                <g transform="matrix(-0.109212,4.6736,3.23557,0.15775,1761.44,7200.44)">
                    <path d="M8.014,-8.289C14.562,-7.798 19.869,-3.811 19.869,0.617C19.868,5.046 14.562,8.239 8.014,7.749C1.467,7.259 -3.84,3.272 -3.84,-1.156C-3.84,-5.585 1.467,-8.779 8.014,-8.289" style="fill:rgb(51,51,50);fill-rule:nonzero;"/>
                </g>
                <g transform="matrix(-0.109212,4.6736,3.23557,0.15775,1761.44,7200.44)">
                    <path d="M8.014,-8.289C14.562,-7.798 19.869,-3.811 19.869,0.617C19.868,5.046 14.562,8.239 8.014,7.749C1.467,7.259 -3.84,3.272 -3.84,-1.156C-3.84,-5.585 1.467,-8.779 8.014,-8.289Z" style="fill:none;fill-rule:nonzero;stroke:rgb(51,51,50);stroke-width:4px;stroke-linejoin:miter;"/>
                </g>
                <g transform="matrix(-3.08249,1.42927,0.989492,4.45248,1708.07,7078.12)">
                    <path d="M-17.135,-1.858C-11.647,-4.529 -4.933,-4.53 0.556,-1.858" style="fill:none;fill-rule:nonzero;stroke:rgb(51,51,50);stroke-width:5px;stroke-linecap:round;stroke-linejoin:miter;"/>
                </g>
                <g transform="matrix(3.23741,0,0,4.67626,1892.08,7659.79)">
                    <path d="M0,-5.45C2.212,-2.401 5.836,-0.422 9.598,-0.211C13.359,0 17.182,-1.56 19.722,-4.342" style="fill:none;fill-rule:nonzero;stroke:rgb(51,51,50);stroke-width:5px;stroke-linecap:round;"/>
                </g>
                <g transform="matrix(3.23741,0,0,4.67626,1625.1,9074.39)">
                    <path d="M0,-119.602C-11.99,-106.314 -19.709,-89.231 -21.755,-71.451C-8.828,-82.177 6.606,-89.862 22.956,-93.715C19.152,-77.657 15.349,-61.599 11.545,-45.54C18.546,-53.702 25.548,-61.864 32.549,-70.026C32.723,-49.916 32.897,-29.807 33.071,-9.698C38.248,-23.352 47.077,-35.603 58.393,-44.833C59.698,-29.548 66.307,-14.766 76.829,-3.602C78.634,-15.135 81.597,-26.485 85.659,-37.428C87.155,-23.36 93.697,-9.88 103.825,0C103.099,-11.466 103.99,-23.033 106.462,-34.253C112.045,-25.725 119.031,-18.117 127.053,-11.828C128.616,-21.624 129.166,-31.581 128.69,-41.489C134.241,-35.32 141.064,-30.3 148.605,-26.836C148.723,-33.287 148.841,-39.737 148.959,-46.187" style="fill:none;fill-rule:nonzero;stroke:rgb(51,51,50);stroke-width:8px;stroke-linecap:round;"/>
                </g>
                <g transform="matrix(3.23741,0,0,4.67626,1589.9,7949.2)">
                    <path d="M0,25.568C10.518,34.574 23.289,41.874 37.127,42.374C50.966,42.873 65.708,35.012 69.853,21.8C71.167,17.61 71.318,12.816 69.083,9.036C66.234,4.218 60.426,2.238 55.642,-0.669C49.357,-4.489 44.393,-10.438 41.76,-17.305" style="fill:none;fill-rule:nonzero;stroke:rgb(51,51,50);stroke-width:8px;stroke-linecap:round;"/>
                </g>
                <g transform="matrix(3.23741,0,0,4.67626,2299.03,7879.45)">
                    <path d="M0,-12.36C10.399,-29.948 68.273,-63.338 71.762,-24.529C73.004,-10.709 63.584,0.319 55.146,10.034C44.862,21.873 34.234,35.295 34.171,50.978" style="fill:none;fill-rule:nonzero;stroke:rgb(51,51,50);stroke-width:8px;stroke-linecap:round;"/>
                </g>
            </g>
        </g>
    </g>
</svg>
