<svg width="50" height="50" viewBox="0 0 50 50" fill="none" xmlns="http://www.w3.org/2000/svg">
<rect width="50" height="50" fill="white"/>
<path d="M10.68 40.88C9.72 40.88 8.89333 40.7067 8.2 40.36C7.77333 40.12 7.56 39.84 7.56 39.52C7.56 39.2 7.64 38.9467 7.8 38.76C7.96 38.5467 8.18667 38.44 8.48 38.44C8.74667 38.44 9.13333 38.5467 9.64 38.76C10.2 38.9733 10.5467 39.08 10.68 39.08C11.1867 39.08 11.64 38.8667 12.04 38.44C12.4667 37.9867 12.8 37.4 13.04 36.68C13.52 35.3467 13.76 34.1467 13.76 33.08C13.76 31.9333 13.5733 30.7333 13.2 29.48C12.8533 28.2 12.3733 26.96 11.76 25.76L11.12 24.48C10.4533 23.1467 9.93333 22.0933 9.56 21.32C9.21333 20.5467 8.90667 19.7067 8.64 18.8C8.24 17.52 8.04 16.28 8.04 15.08C8.04 14.12 8.2 13.2133 8.52 12.36C8.86667 11.5067 9.37333 10.7867 10.04 10.2C10.7067 9.56 11.5333 9.24 12.52 9.24C13 9.24 13.4667 9.38667 13.92 9.68C14.3733 9.94667 14.6933 10.2933 14.88 10.72L14.2 11.56C13.5067 11.56 12.9867 11.4267 12.64 11.16C12.16 11.2133 11.7333 11.4533 11.36 11.88C11.0133 12.28 10.7467 12.7467 10.56 13.28C10.4 13.7867 10.32 14.2933 10.32 14.8C10.32 15.8133 10.4533 16.8533 10.72 17.92C11.0133 18.96 11.3867 19.9467 11.84 20.88L14.64 26.48C15.0933 27.44 15.4533 28.52 15.72 29.72C15.9867 30.92 16.12 32.12 16.12 33.32C16.12 35.08 15.6933 36.7333 14.84 38.28C14.3867 39.08 13.8 39.7067 13.08 40.16C12.36 40.64 11.56 40.88 10.68 40.88ZM23.1856 39.96C20.8923 39.96 19.7456 39.56 19.7456 38.76C19.7456 38.12 20.1456 37.8 20.9456 37.8H21.4256C21.5323 37.8267 21.6523 37.84 21.7856 37.84C21.999 37.84 22.1456 37.7733 22.2256 37.64C22.3323 37.5067 22.3856 37.2667 22.3856 36.92C22.3856 34.6533 22.2523 31.56 21.9856 27.64C21.7456 23.56 21.6256 20.48 21.6256 18.4C21.6256 17.6533 21.639 16.9733 21.6656 16.36L21.7056 14.32C21.7056 13.44 21.6656 12.7067 21.5856 12.12C21.2923 12.2267 20.9856 12.28 20.6656 12.28C20.0523 12.28 19.7456 11.96 19.7456 11.32C19.7456 11 19.9323 10.72 20.3056 10.48C20.7056 10.24 21.2123 10.0667 21.8256 9.96C22.9456 9.77333 23.8923 9.68 24.6656 9.68C24.9856 9.68 25.2523 9.78667 25.4656 10C25.7056 10.2133 25.8256 10.4667 25.8256 10.76C25.8256 11.0533 25.7323 11.3067 25.5456 11.52C25.3856 11.7333 25.1723 11.84 24.9056 11.84C24.7456 11.84 24.6123 11.8267 24.5056 11.8H24.1856C23.919 11.8 23.719 11.8667 23.5856 12C23.479 12.1067 23.4256 12.32 23.4256 12.64C23.4256 15.4667 23.599 19.36 23.9456 24.32C24.2656 29.52 24.4256 33.4267 24.4256 36.04V37.56C24.6123 37.5333 24.879 37.52 25.2256 37.52C26.3456 37.52 26.9056 37.9867 26.9056 38.92V39.16L25.9056 39.84C25.879 39.84 25.799 39.8533 25.6656 39.88C25.5323 39.88 25.2656 39.88 24.8656 39.88C23.959 39.9333 23.399 39.96 23.1856 39.96ZM32.9791 40.08C32.4457 40.08 31.9791 39.96 31.5791 39.72C31.2057 39.48 31.0191 39.1467 31.0191 38.72C31.6057 38.1333 31.8991 36.5733 31.8991 34.04C31.8991 32.52 31.7791 30.3067 31.5391 27.4C31.2724 24.6267 31.1391 22.44 31.1391 20.84L31.2191 18.64C31.2457 18 31.2591 17.2667 31.2591 16.44C31.2591 15.6933 31.1257 14.7467 30.8591 13.6C30.5391 12.4 30.3791 11.56 30.3791 11.08C30.3791 10.1467 31.4057 9.68 33.4591 9.68H34.0591C35.4991 9.68 36.7524 10.12 37.8191 11C38.6724 11.7467 39.3924 12.8267 39.9791 14.24C40.3791 15.2 40.7257 16.5333 41.0191 18.24C41.1791 19.7333 41.2591 20.9067 41.2591 21.76V23.04V24.92C41.2057 25.0267 41.1791 25.1333 41.1791 25.24C41.1791 25.4533 41.1924 25.6133 41.2191 25.72C41.2457 25.8267 41.2591 25.96 41.2591 26.12C41.2591 26.9733 41.1257 28 40.8591 29.2C40.6191 30.3733 40.2591 31.5733 39.7791 32.8C38.5791 35.7333 37.2324 37.8133 35.7391 39.04C34.8591 39.7333 33.9391 40.08 32.9791 40.08ZM33.8191 37.76C34.8057 37.1467 35.6724 36.2667 36.4191 35.12C37.1657 33.9467 37.7391 32.6533 38.1391 31.24C38.8591 28.6267 39.2191 25.9867 39.2191 23.32C39.2191 21.88 39.0857 20.3067 38.8191 18.6C38.5257 16.9467 37.8991 15.4533 36.9391 14.12C36.4857 13.48 35.9124 12.9867 35.2191 12.64C34.5257 12.2667 33.7391 12.08 32.8591 12.08V12.12C32.8591 14.52 33.0191 18.1467 33.3391 23C33.6591 27.8267 33.8191 31.48 33.8191 33.96V37.76Z" fill="black"/>
</svg>
