<svg xmlns="http://www.w3.org/2000/svg" xmlns:xlink="http://www.w3.org/1999/xlink" xmlns:lucid="lucid" width="1907.5" height="2369.58"><g transform="translate(-708.0515263376872 -340.5515263376873)" lucid:page-tab-id="LeiVBdd-ZQSk"><path d="M0 0h3244.96v3064.7H0z" fill="#fff"/><path d="M1200.55 360.55h520v170.22h-520z" stroke="#000" stroke-opacity="0" stroke-width="2" fill="#fff" fill-opacity="0"/><use xlink:href="#a" transform="matrix(1,0,0,1,1205.5515263376874,365.5515263376873) translate(188.16374269005846 26.94736842105263)"/><use xlink:href="#b" transform="matrix(1,0,0,1,1205.5515263376874,365.5515263376873) translate(8.654970760233917 67.36842105263158)"/><use xlink:href="#c" transform="matrix(1,0,0,1,1205.5515263376874,365.5515263376873) translate(27.36842105263158 67.36842105263158)"/><use xlink:href="#d" transform="matrix(1,0,0,1,1205.5515263376874,365.5515263376873) translate(195.60233918128654 67.36842105263158)"/><use xlink:href="#e" transform="matrix(1,0,0,1,1205.5515263376874,365.5515263376873) translate(343.3450292397661 67.36842105263158)"/><use xlink:href="#f" transform="matrix(1,0,0,1,1205.5515263376874,365.5515263376873) translate(414.3625730994152 67.36842105263158)"/><use xlink:href="#g" transform="matrix(1,0,0,1,1205.5515263376874,365.5515263376873) translate(4.9590643274853905 107.78947368421052)"/><use xlink:href="#h" transform="matrix(1,0,0,1,1205.5515263376874,365.5515263376873) translate(42.38596491228071 107.78947368421052)"/><use xlink:href="#i" transform="matrix(1,0,0,1,1205.5515263376874,365.5515263376873) translate(90.76023391812865 107.78947368421052)"/><use xlink:href="#j" transform="matrix(1,0,0,1,1205.5515263376874,365.5515263376873) translate(279.57894736842104 107.78947368421052)"/><use xlink:href="#k" transform="matrix(1,0,0,1,1205.5515263376874,365.5515263376873) translate(367.43859649122805 107.78947368421052)"/><use xlink:href="#l" transform="matrix(1,0,0,1,1205.5515263376874,365.5515263376873) translate(431.0643274853801 107.78947368421052)"/><use xlink:href="#m" transform="matrix(1,0,0,1,1205.5515263376874,365.5515263376873) translate(449.7777777777777 107.78947368421052)"/><path d="M1315.55 680.55h290v100h-290z" stroke="#b2b2b2" stroke-width="2" fill="#fff"/><use xlink:href="#n" transform="matrix(1,0,0,1,1320.5515263376874,685.5515263376873) translate(19.4074074074074 32.62962962962963)"/><use xlink:href="#o" transform="matrix(1,0,0,1,1320.5515263376874,685.5515263376873) translate(60.81481481481482 32.62962962962963)"/><use xlink:href="#p" transform="matrix(1,0,0,1,1320.5515263376874,685.5515263376873) translate(111.18518518518519 32.62962962962963)"/><use xlink:href="#q" transform="matrix(1,0,0,1,1320.5515263376874,685.5515263376873) translate(219.18518518518522 32.62962962962963)"/><use xlink:href="#r" transform="matrix(1,0,0,1,1320.5515263376874,685.5515263376873) translate(57.8888888888889 64.62962962962965)"/><use xlink:href="#s" transform="matrix(1,0,0,1,1320.5515263376874,685.5515263376873) translate(87.51851851851853 64.62962962962965)"/><use xlink:href="#t" transform="matrix(1,0,0,1,1320.5515263376874,685.5515263376873) translate(124.55555555555557 64.62962962962965)"/><use xlink:href="#u" transform="matrix(1,0,0,1,1320.5515263376874,685.5515263376873) translate(146.7777777777778 64.62962962962965)"/><path d="M1460.55 531.27v131.9" stroke="#000" fill="none"/><path d="M1461.05 531.28h-1v-.5h1z"/><path d="M1460.55 677.93l-4.63-14.26h9.27z" stroke="#000"/><path d="M1140.55 939.05h240v60h-240z" stroke="#000" stroke-opacity="0" stroke-width="2" fill="#fff" fill-opacity="0"/><use xlink:href="#v" transform="matrix(1,0,0,1,1145.5515263376874,944.0515263376873) translate(93.81481481481482 30.77777777777778)"/><path d="M1640.55 939.55h240v60h-240z" stroke="#000" stroke-opacity="0" stroke-width="2" fill="#fff" fill-opacity="0"/><use xlink:href="#w" transform="matrix(1,0,0,1,1645.5515263376874,944.5515263376873) translate(98.55555555555557 30.77777777777778)"/><path d="M1835.55 939.55h240v60h-240z" stroke="#000" stroke-opacity="0" stroke-width="2" fill="#fff" fill-opacity="0"/><use xlink:href="#x" transform="matrix(1,0,0,1,1840.5515263376874,944.5515263376873) translate(65.25925925925927 30.77777777777778)"/><use xlink:href="#y" transform="matrix(1,0,0,1,1840.5515263376874,944.5515263376873) translate(114.07407407407409 30.77777777777778)"/><path d="M1460.55 782.05v78.25h-200v62.37" stroke="#000" fill="none"/><path d="M1461.05 782.06h-1v-.5h1z"/><path d="M1260.55 937.43l-4.63-14.26h9.27z" stroke="#000"/><path d="M1460.55 782.05v78.5h300v62.62" stroke="#000" fill="none"/><path d="M1461.05 782.06h-1v-.5h1z"/><path d="M1760.55 937.93l-4.63-14.26h9.27z" stroke="#000"/><path d="M1460.55 782.05v78.5h495v62.62" stroke="#000" fill="none"/><path d="M1461.05 782.06h-1v-.5h1z"/><path d="M1955.55 937.93l-4.63-14.26h9.27z" stroke="#000"/><path d="M1120.55 1106.84h280v60h-280z" stroke="#b2b2b2" stroke-width="2" fill="#fff"/><use xlink:href="#z" transform="matrix(1,0,0,1,1125.5515263376874,1111.8376898596998) translate(13.925925925925936 30.77777777777778)"/><use xlink:href="#A" transform="matrix(1,0,0,1,1125.5515263376874,1111.8376898596998) translate(67.03703703703705 30.77777777777778)"/><use xlink:href="#B" transform="matrix(1,0,0,1,1125.5515263376874,1111.8376898596998) translate(134.96296296296296 30.77777777777778)"/><use xlink:href="#C" transform="matrix(1,0,0,1,1125.5515263376874,1111.8376898596998) translate(183.70370370370372 30.77777777777778)"/><use xlink:href="#D" transform="matrix(1,0,0,1,1125.5515263376874,1111.8376898596998) translate(214.74074074074073 30.77777777777778)"/><path d="M1260.55 999.55v89.9" stroke="#000" fill="none"/><path d="M1261.05 999.56h-1v-.5h1z"/><path d="M1260.55 1104.22l-4.63-14.27h9.27z" stroke="#000"/><path d="M1735.55 1120.55h260v94.32h-260z" stroke="#b2b2b2" stroke-width="2" fill="#fff"/><use xlink:href="#E" transform="matrix(1,0,0,1,1740.5515263376874,1125.5515263376872) translate(38.92063492063493 20.944444444444446)"/><use xlink:href="#F" transform="matrix(1,0,0,1,1740.5515263376874,1125.5515263376872) translate(80.76190476190479 20.944444444444446)"/><use xlink:href="#G" transform="matrix(1,0,0,1,1740.5515263376874,1125.5515263376872) translate(123.93650793650797 20.944444444444446)"/><use xlink:href="#H" transform="matrix(1,0,0,1,1740.5515263376874,1125.5515263376872) translate(192.19047619047623 20.944444444444446)"/><use xlink:href="#I" transform="matrix(1,0,0,1,1740.5515263376874,1125.5515263376872) translate(42.63492063492065 48.37301587301588)"/><use xlink:href="#J" transform="matrix(1,0,0,1,1740.5515263376874,1125.5515263376872) translate(125.17460317460319 48.37301587301588)"/><use xlink:href="#K" transform="matrix(1,0,0,1,1740.5515263376874,1125.5515263376872) translate(172.03174603174608 48.37301587301588)"/><use xlink:href="#L" transform="matrix(1,0,0,1,1740.5515263376874,1125.5515263376872) translate(83.84126984126986 75.80158730158732)"/><path d="M1760.55 1000.05v59.5h105v43.62" stroke="#000" fill="none"/><path d="M1761.05 1000.06h-1v-.5h1z"/><path d="M1865.55 1117.93l-4.63-14.26h9.27z" stroke="#000"/><path d="M1955.55 1000.05v59.5h-90v43.62" stroke="#000" fill="none"/><path d="M1956.05 1000.06h-1v-.5h1z"/><path d="M1865.55 1117.93l-4.63-14.26h9.27z" stroke="#000"/><path d="M1485.55 1373.35h240v60h-240z" stroke="#000" stroke-opacity="0" stroke-width="2" fill="#fff" fill-opacity="0"/><use xlink:href="#v" transform="matrix(1,0,0,1,1490.5515263376874,1378.3546748156746) translate(93.81481481481482 30.77777777777778)"/><path d="M2235.55 1373.35h240v60h-240z" stroke="#000" stroke-opacity="0" stroke-width="2" fill="#fff" fill-opacity="0"/><use xlink:href="#w" transform="matrix(1,0,0,1,2240.5515263376874,1378.3546748156746) translate(98.55555555555557 30.77777777777778)"/><path d="M1865.55 1216.37v78.24h-260v62.37" stroke="#000" fill="none"/><path d="M1866.05 1216.38h-1v-.5h1z"/><path d="M1605.55 1371.74l-4.63-14.27h9.27z" stroke="#000"/><path d="M1865.55 1216.37v78.24h490v62.37" stroke="#000" fill="none"/><path d="M1866.05 1216.38h-1v-.5h1z"/><path d="M2355.55 1371.74l-4.63-14.27h9.27z" stroke="#000"/><path d="M2135.55 1555.2h180v60h-180z" stroke="#b2b2b2" stroke-width="2" fill="#fff"/><use xlink:href="#M" transform="matrix(1,0,0,1,2140.551526337687,1560.197756576681) translate(21.555555555555554 30.77777777777778)"/><path d="M2355.55 1433.85v59.93h-130v44.03" stroke="#000" fill="none"/><path d="M2356.05 1433.87h-1v-.52h1z"/><path d="M2225.55 1552.58l-4.63-14.27h9.27z" stroke="#000"/><path d="M2395.55 1555.2h200v60h-200z" stroke="#b2b2b2" stroke-width="2" fill="#fff"/><use xlink:href="#N" transform="matrix(1,0,0,1,2400.5515263376874,1560.197756576681) translate(0.0555555555555524 16)"/><use xlink:href="#O" transform="matrix(1,0,0,1,2400.5515263376874,1560.197756576681) translate(65.5 16)"/><use xlink:href="#P" transform="matrix(1,0,0,1,2400.5515263376874,1560.197756576681) translate(103.27777777777779 16)"/><use xlink:href="#Q" transform="matrix(1,0,0,1,2400.5515263376874,1560.197756576681) translate(141.05555555555557 16)"/><use xlink:href="#R" transform="matrix(1,0,0,1,2400.5515263376874,1560.197756576681) translate(168.83333333333331 16)"/><use xlink:href="#S" transform="matrix(1,0,0,1,2400.5515263376874,1560.197756576681) translate(6.222222222222216 40)"/><use xlink:href="#T" transform="matrix(1,0,0,1,2400.5515263376874,1560.197756576681) translate(22.888888888888882 40)"/><use xlink:href="#U" transform="matrix(1,0,0,1,2400.5515263376874,1560.197756576681) translate(67.22222222222221 40)"/><use xlink:href="#V" transform="matrix(1,0,0,1,2400.5515263376874,1560.197756576681) translate(117.16666666666666 40)"/><path d="M2355.55 1433.85v59.93h140v44.03" stroke="#000" fill="none"/><path d="M2356.05 1433.87h-1v-.52h1z"/><path d="M2495.55 1552.58l-4.63-14.27h9.27z" stroke="#000"/><path d="M728.05 2411.84h200v60h-200z" stroke="#b2b2b2" stroke-width="2" fill="#fff"/><use xlink:href="#W" transform="matrix(1,0,0,1,733.0515263376872,2416.8439868156743) translate(4.26666666666666 29.80740740740741)"/><use xlink:href="#X" transform="matrix(1,0,0,1,733.0515263376872,2416.8439868156743) translate(52.74074074074075 29.80740740740741)"/><use xlink:href="#Y" transform="matrix(1,0,0,1,733.0515263376872,2416.8439868156743) translate(76.44444444444446 29.80740740740741)"/><use xlink:href="#X" transform="matrix(1,0,0,1,733.0515263376872,2416.8439868156743) translate(115.49629629629632 29.80740740740741)"/><use xlink:href="#Z" transform="matrix(1,0,0,1,733.0515263376872,2416.8439868156743) translate(139.20000000000002 29.80740740740741)"/><path d="M953.05 2411.84h200v60h-200z" stroke="#b2b2b2" stroke-width="2" fill="#fff"/><use xlink:href="#M" transform="matrix(1,0,0,1,958.0515263376872,2416.8439868156743) translate(31.925925925925924 30.77777777777778)"/><path d="M1475.55 1545.2h260v95.35h-260z" stroke="#b2b2b2" stroke-width="2" fill="#fff"/><use xlink:href="#aa" transform="matrix(1,0,0,1,1480.5515263376874,1550.197756576681) translate(10.555555555555557 32.25925925925927)"/><use xlink:href="#o" transform="matrix(1,0,0,1,1480.5515263376874,1550.197756576681) translate(59.37037037037038 32.25925925925927)"/><use xlink:href="#ab" transform="matrix(1,0,0,1,1480.5515263376874,1550.197756576681) translate(109.74074074074076 32.25925925925927)"/><use xlink:href="#ac" transform="matrix(1,0,0,1,1480.5515263376874,1550.197756576681) translate(198.40740740740745 32.25925925925927)"/><use xlink:href="#ad" transform="matrix(1,0,0,1,1480.5515263376874,1550.197756576681) translate(1.7037037037036913 64.25925925925927)"/><use xlink:href="#ae" transform="matrix(1,0,0,1,1480.5515263376874,1550.197756576681) translate(50.51851851851851 64.25925925925927)"/><use xlink:href="#af" transform="matrix(1,0,0,1,1480.5515263376874,1550.197756576681) translate(88.96296296296296 64.25925925925927)"/><use xlink:href="#ag" transform="matrix(1,0,0,1,1480.5515263376874,1550.197756576681) translate(133.40740740740742 64.25925925925927)"/><use xlink:href="#ah" transform="matrix(1,0,0,1,1480.5515263376874,1550.197756576681) translate(183.62962962962965 64.25925925925927)"/><path d="M1605.55 1433.85v93.96" stroke="#000" fill="none"/><path d="M1606.05 1433.87h-1v-.52h1z"/><path d="M1605.55 1542.58l-4.63-14.27h9.27z" stroke="#000"/><path d="M1105.55 1789.26h240v60h-240z" stroke="#000" stroke-opacity="0" stroke-width="2" fill="#fff" fill-opacity="0"/><use xlink:href="#v" transform="matrix(1,0,0,1,1110.5515263376874,1794.2590658597005) translate(93.81481481481482 30.77777777777778)"/><path d="M1795.55 1789.26h240v60h-240z" stroke="#000" stroke-opacity="0" stroke-width="2" fill="#fff" fill-opacity="0"/><g><use xlink:href="#w" transform="matrix(1,0,0,1,1800.5515263376874,1794.2590658597005) translate(98.55555555555557 30.77777777777778)"/></g><path d="M1605.55 1642.05v73.36h-380v57.48" stroke="#000" fill="none"/><path d="M1606.05 1642.06h-1v-.5h1z"/><path d="M1225.55 1787.64l-4.63-14.26h9.27z" stroke="#000"/><path d="M1605.55 1642.05v73.36h310v57.48" stroke="#000" fill="none"/><path d="M1606.05 1642.06h-1v-.5h1z"/><path d="M1915.55 1787.64l-4.63-14.26h9.27z" stroke="#000"/><path d="M940.55 2221.05v94.65h-112.5v78.76M940.55 2221.06v-.5" stroke="#000" fill="none"/><path d="M828.05 2409.23l-4.63-14.27h9.27z" stroke="#000"/><path d="M940.55 2221.05v94.65h112.5v78.76M940.55 2221.06v-.5" stroke="#000" fill="none"/><path d="M1053.05 2409.23l-4.63-14.27h9.27z" stroke="#000"/><path d="M1915.55 1841.05v542.12M1915.55 1841.06v-.5" stroke="#000" fill="none"/><path d="M1915.55 2397.93l-4.63-14.26h9.27z" stroke="#000"/><path d="M1225.55 1849.76v53.4" stroke="#000" fill="none"/><path d="M1226.05 1849.77h-1v-.5h1z"/><path d="M1225.55 1917.93l-4.63-14.26h9.27z" stroke="#000"/><path d="M1095.55 1920.55h260v95.36h-260z" stroke="#b2b2b2" stroke-width="2" fill="#fff"/><g><use xlink:href="#ai" transform="matrix(1,0,0,1,1100.5515263376874,1925.5515263376874) translate(12.512820512820502 35.84615384615385)"/><use xlink:href="#aj" transform="matrix(1,0,0,1,1100.5515263376874,1925.5515263376874) translate(58.73504273504272 35.84615384615385)"/><use xlink:href="#ak" transform="matrix(1,0,0,1,1100.5515263376874,1925.5515263376874) translate(105.23076923076921 35.84615384615385)"/><use xlink:href="#al" transform="matrix(1,0,0,1,1100.5515263376874,1925.5515263376874) translate(194.1196581196581 35.84615384615385)"/><use xlink:href="#am" transform="matrix(1,0,0,1,1100.5515263376874,1925.5515263376874) translate(4.957264957264957 65.38461538461539)"/><use xlink:href="#an" transform="matrix(1,0,0,1,1100.5515263376874,1925.5515263376874) translate(50.017094017094024 65.38461538461539)"/><use xlink:href="#ao" transform="matrix(1,0,0,1,1100.5515263376874,1925.5515263376874) translate(132 65.38461538461539)"/><use xlink:href="#ap" transform="matrix(1,0,0,1,1100.5515263376874,1925.5515263376874) translate(186.56410256410257 65.38461538461539)"/></g><path d="M820.55 2160.55h240v60h-240z" stroke="#000" stroke-opacity="0" stroke-width="2" fill="#fff" fill-opacity="0"/><g><use xlink:href="#v" transform="matrix(1,0,0,1,825.5515263376873,2165.5515263376874) translate(93.81481481481482 30.77777777777778)"/></g><path d="M1365.55 2160.55h240v60h-240z" stroke="#000" stroke-opacity="0" stroke-width="2" fill="#fff" fill-opacity="0"/><g><use xlink:href="#w" transform="matrix(1,0,0,1,1370.5515263376874,2165.5515263376874) translate(98.55555555555557 30.77777777777778)"/></g><path d="M1225.55 2017.4v71.33h-285v55.44" stroke="#000" fill="none"/><path d="M1226.05 2017.42h-1v-.5h1z"/><path d="M940.55 2158.93l-4.63-14.26h9.27z" stroke="#000"/><path d="M1225.55 2017.4v71.33h260v55.44" stroke="#000" fill="none"/><path d="M1226.05 2017.42h-1v-.5h1z"/><path d="M1485.55 2158.93l-4.63-14.26h9.27z" stroke="#000"/><path d="M1385.55 2400.55h200v62.97h-200z" stroke="#b2b2b2" stroke-width="2" fill="#fff"/><g><use xlink:href="#aq" transform="matrix(1,0,0,1,1390.5515263376874,2405.5515263376874) translate(16.194444444444432 19.333333333333332)"/><use xlink:href="#ar" transform="matrix(1,0,0,1,1390.5515263376874,2405.5515263376874) translate(72.80555555555554 19.333333333333332)"/><use xlink:href="#as" transform="matrix(1,0,0,1,1390.5515263376874,2405.5515263376874) translate(123.80555555555556 19.333333333333332)"/><use xlink:href="#at" transform="matrix(1,0,0,1,1390.5515263376874,2405.5515263376874) translate(63.94444444444444 43.333333333333336)"/></g><path d="M1485.55 2221.05v162.12" stroke="#000" fill="none"/><path d="M1486.05 2221.06h-1v-.5h1z"/><path d="M1485.55 2397.93l-4.63-14.26h9.27z" stroke="#000"/><path d="M1815.55 2400.55h200v62.97h-200z" stroke="#b2b2b2" stroke-width="2" fill="#fff"/><g><use xlink:href="#au" transform="matrix(1,0,0,1,1820.5515263376874,2405.5515263376874) translate(17.305555555555543 19.333333333333332)"/><use xlink:href="#as" transform="matrix(1,0,0,1,1820.5515263376874,2405.5515263376874) translate(122.69444444444444 19.333333333333332)"/><use xlink:href="#av" transform="matrix(1,0,0,1,1820.5515263376874,2405.5515263376874) translate(17.33333333333333 43.333333333333336)"/><use xlink:href="#aw" transform="matrix(1,0,0,1,1820.5515263376874,2405.5515263376874) translate(60.61111111111111 43.333333333333336)"/><use xlink:href="#V" transform="matrix(1,0,0,1,1820.5515263376874,2405.5515263376874) translate(106.05555555555554 43.333333333333336)"/></g><path d="M810.55 2567.78h260v95.36h-260z" stroke="#b2b2b2" stroke-width="2" fill="#fff"/><g><use xlink:href="#ax" transform="matrix(1,0,0,1,815.5515263376873,2572.782677532655) translate(40.81481481481482 32.25925925925927)"/><use xlink:href="#ay" transform="matrix(1,0,0,1,815.5515263376873,2572.782677532655) translate(110.37037037037038 32.25925925925927)"/><use xlink:href="#az" transform="matrix(1,0,0,1,815.5515263376873,2572.782677532655) translate(166.5925925925926 32.25925925925927)"/><use xlink:href="#aA" transform="matrix(1,0,0,1,815.5515263376873,2572.782677532655) translate(95.55555555555557 64.25925925925927)"/><use xlink:href="#aB" transform="matrix(1,0,0,1,815.5515263376873,2572.782677532655) translate(110.37037037037038 64.25925925925927)"/></g><path d="M828.05 2473.34v46.47h112.5v30.6" stroke="#000" fill="none"/><path d="M828.55 2473.36h-1v-.52h1z"/><path d="M940.55 2565.16l-4.63-14.26h9.27z" stroke="#000"/><path d="M1053.05 2473.34v46.47h-112.5v30.6" stroke="#000" fill="none"/><path d="M1053.55 2473.36h-1v-.52h1z"/><path d="M940.55 2565.16l-4.63-14.26h9.27z" stroke="#000"/><path d="M940.55 2664.64v39.5h404v-272.1h23.62" stroke="#000" fill="none"/><path d="M941.05 2664.65h-1v-.5h1z"/><path d="M1382.93 2432.03l-14.26 4.64v-9.27z" stroke="#000"/><defs><path fill="#c92d39" d="M24-248c93 1 206-16 204 79-1 75-69 88-152 82V0H24v-248zm52 121c47 0 100 7 100-41 0-47-54-39-100-39v80" id="aC"/><path fill="#c92d39" d="M135-150c-39-12-60 13-60 57V0H25l-1-190h47c2 13-1 29 3 40 6-28 27-53 61-41v41" id="aD"/><path fill="#c92d39" d="M110-194c64 0 96 36 96 99 0 64-35 99-97 99-61 0-95-36-95-99 0-62 34-99 96-99zm-1 164c35 0 45-28 45-65 0-40-10-65-43-65-34 0-45 26-45 65 0 36 10 65 43 65" id="aE"/><path fill="#c92d39" d="M135-194c52 0 70 43 70 98 0 56-19 99-73 100-30 1-46-15-58-35L72 0H24l1-261h50v104c11-23 29-37 60-37zM114-30c31 0 40-27 40-66 0-37-7-63-39-63s-41 28-41 65c0 36 8 64 40 64" id="aF"/><path fill="#c92d39" d="M25 0v-261h50V0H25" id="aG"/><path fill="#c92d39" d="M185-48c-13 30-37 53-82 52C43 2 14-33 14-96s30-98 90-98c62 0 83 45 84 108H66c0 31 8 55 39 56 18 0 30-7 34-22zm-45-69c5-46-57-63-70-21-2 6-4 13-4 21h74" id="aH"/><path fill="#c92d39" d="M220-157c-53 9-28 100-34 157h-49v-107c1-27-5-49-29-50C55-147 81-57 75 0H25l-1-190h47c2 12-1 28 3 38 10-53 101-56 108 0 13-22 24-43 59-42 82 1 51 116 57 194h-49v-107c-1-25-5-48-29-50" id="aI"/><g id="a"><use transform="matrix(0.0935672514619883,0,0,0.0935672514619883,0,0)" xlink:href="#aC"/><use transform="matrix(0.0935672514619883,0,0,0.0935672514619883,22.45614035087719,0)" xlink:href="#aD"/><use transform="matrix(0.0935672514619883,0,0,0.0935672514619883,35.55555555555556,0)" xlink:href="#aE"/><use transform="matrix(0.0935672514619883,0,0,0.0935672514619883,56.04678362573099,0)" xlink:href="#aF"/><use transform="matrix(0.0935672514619883,0,0,0.0935672514619883,76.53801169590643,0)" xlink:href="#aG"/><use transform="matrix(0.0935672514619883,0,0,0.0935672514619883,85.89473684210527,0)" xlink:href="#aH"/><use transform="matrix(0.0935672514619883,0,0,0.0935672514619883,104.60818713450291,0)" xlink:href="#aI"/></g><path d="M33 0v-248h34V0H33" id="aJ"/><use transform="matrix(0.0935672514619883,0,0,0.0935672514619883,0,0)" xlink:href="#aJ" id="b"/><path d="M59-47c-2 24 18 29 38 22v24C64 9 27 4 27-40v-127H5v-23h24l9-43h21v43h35v23H59v120" id="aK"/><path d="M106-169C34-169 62-67 57 0H25v-261h32l-1 103c12-21 28-36 61-36 89 0 53 116 60 194h-32v-121c2-32-8-49-39-48" id="aL"/><path d="M24-231v-30h32v30H24zM24 0v-190h32V0H24" id="aM"/><path d="M117-194c89-4 53 116 60 194h-32v-121c0-31-8-49-39-48C34-167 62-67 57 0H25l-1-190h30c1 10-1 24 2 32 11-22 29-35 61-36" id="aN"/><path d="M143 0L79-87 56-68V0H24v-261h32v163l83-92h37l-77 82L181 0h-38" id="aO"/><path d="M0 4l72-265h28L28 4H0" id="aP"/><path d="M100-194c62-1 85 37 85 99 1 63-27 99-86 99S16-35 15-95c0-66 28-99 85-99zM99-20c44 1 53-31 53-75 0-43-8-75-51-75s-53 32-53 75 10 74 51 75" id="aQ"/><path d="M206 0h-36l-40-164L89 0H53L-1-190h32L70-26l43-164h34l41 164 42-164h31" id="aR"/><g id="c"><use transform="matrix(0.0935672514619883,0,0,0.0935672514619883,0,0)" xlink:href="#aK"/><use transform="matrix(0.0935672514619883,0,0,0.0935672514619883,9.35672514619883,0)" xlink:href="#aL"/><use transform="matrix(0.0935672514619883,0,0,0.0935672514619883,28.07017543859649,0)" xlink:href="#aM"/><use transform="matrix(0.0935672514619883,0,0,0.0935672514619883,35.461988304093566,0)" xlink:href="#aN"/><use transform="matrix(0.0935672514619883,0,0,0.0935672514619883,54.175438596491226,0)" xlink:href="#aO"/><use transform="matrix(0.0935672514619883,0,0,0.0935672514619883,71.01754385964912,0)" xlink:href="#aP"/><use transform="matrix(0.0935672514619883,0,0,0.0935672514619883,80.37426900584795,0)" xlink:href="#aO"/><use transform="matrix(0.0935672514619883,0,0,0.0935672514619883,97.21637426900587,0)" xlink:href="#aN"/><use transform="matrix(0.0935672514619883,0,0,0.0935672514619883,115.9298245614035,0)" xlink:href="#aQ"/><use transform="matrix(0.0935672514619883,0,0,0.0935672514619883,134.64327485380116,0)" xlink:href="#aR"/></g><path d="M135-143c-3-34-86-38-87 0 15 53 115 12 119 90S17 21 10-45l28-5c4 36 97 45 98 0-10-56-113-15-118-90-4-57 82-63 122-42 12 7 21 19 24 35" id="aS"/><path d="M210-169c-67 3-38 105-44 169h-31v-121c0-29-5-50-35-48C34-165 62-65 56 0H25l-1-190h30c1 10-1 24 2 32 10-44 99-50 107 0 11-21 27-35 58-36 85-2 47 119 55 194h-31v-121c0-29-5-49-35-48" id="aT"/><path d="M100-194c63 0 86 42 84 106H49c0 40 14 67 53 68 26 1 43-12 49-29l28 8c-11 28-37 45-77 45C44 4 14-33 15-96c1-61 26-98 85-98zm52 81c6-60-76-77-97-28-3 7-6 17-6 28h103" id="aU"/><g id="d"><use transform="matrix(0.0935672514619883,0,0,0.0935672514619883,0,0)" xlink:href="#aS"/><use transform="matrix(0.0935672514619883,0,0,0.0935672514619883,16.842105263157894,0)" xlink:href="#aQ"/><use transform="matrix(0.0935672514619883,0,0,0.0935672514619883,35.55555555555556,0)" xlink:href="#aT"/><use transform="matrix(0.0935672514619883,0,0,0.0935672514619883,63.53216374269005,0)" xlink:href="#aU"/><use transform="matrix(0.0935672514619883,0,0,0.0935672514619883,82.24561403508773,0)" xlink:href="#aQ"/><use transform="matrix(0.0935672514619883,0,0,0.0935672514619883,100.95906432748538,0)" xlink:href="#aN"/><use transform="matrix(0.0935672514619883,0,0,0.0935672514619883,119.67251461988306,0)" xlink:href="#aU"/></g><g id="e"><use transform="matrix(0.0935672514619883,0,0,0.0935672514619883,0,0)" xlink:href="#aR"/><use transform="matrix(0.0935672514619883,0,0,0.0935672514619883,24.23391812865497,0)" xlink:href="#aL"/><use transform="matrix(0.0935672514619883,0,0,0.0935672514619883,42.94736842105264,0)" xlink:href="#aQ"/></g><path d="M141-36C126-15 110 5 73 4 37 3 15-17 15-53c-1-64 63-63 125-63 3-35-9-54-41-54-24 1-41 7-42 31l-33-3c5-37 33-52 76-52 45 0 72 20 72 64v82c-1 20 7 32 28 27v20c-31 9-61-2-59-35zM48-53c0 20 12 33 32 33 41-3 63-29 60-74-43 2-92-5-92 41" id="aV"/><g id="f"><use transform="matrix(0.0935672514619883,0,0,0.0935672514619883,0,0)" xlink:href="#aR"/><use transform="matrix(0.0935672514619883,0,0,0.0935672514619883,24.23391812865497,0)" xlink:href="#aV"/><use transform="matrix(0.0935672514619883,0,0,0.0935672514619883,42.94736842105264,0)" xlink:href="#aN"/><use transform="matrix(0.0935672514619883,0,0,0.0935672514619883,61.6608187134503,0)" xlink:href="#aK"/><use transform="matrix(0.0935672514619883,0,0,0.0935672514619883,71.01754385964912,0)" xlink:href="#aS"/></g><g id="g"><use transform="matrix(0.0935672514619883,0,0,0.0935672514619883,0,0)" xlink:href="#aK"/><use transform="matrix(0.0935672514619883,0,0,0.0935672514619883,9.35672514619883,0)" xlink:href="#aQ"/></g><path d="M24 0v-261h32V0H24" id="aW"/><g id="h"><use transform="matrix(0.0935672514619883,0,0,0.0935672514619883,0,0)" xlink:href="#aO"/><use transform="matrix(0.0935672514619883,0,0,0.0935672514619883,16.842105263157894,0)" xlink:href="#aM"/><use transform="matrix(0.0935672514619883,0,0,0.0935672514619883,24.233918128654963,0)" xlink:href="#aW"/><use transform="matrix(0.0935672514619883,0,0,0.0935672514619883,31.625730994152043,0)" xlink:href="#aW"/></g><path d="M108 0H70L1-190h34L89-25l56-165h34" id="aX"/><path d="M33 0v-38h34V0H33" id="aY"/><g id="i"><use transform="matrix(0.0935672514619883,0,0,0.0935672514619883,0,0)" xlink:href="#aK"/><use transform="matrix(0.0935672514619883,0,0,0.0935672514619883,9.35672514619883,0)" xlink:href="#aL"/><use transform="matrix(0.0935672514619883,0,0,0.0935672514619883,28.07017543859649,0)" xlink:href="#aU"/><use transform="matrix(0.0935672514619883,0,0,0.0935672514619883,46.783625730994146,0)" xlink:href="#aT"/><use transform="matrix(0.0935672514619883,0,0,0.0935672514619883,74.76023391812866,0)" xlink:href="#aS"/><use transform="matrix(0.0935672514619883,0,0,0.0935672514619883,91.60233918128655,0)" xlink:href="#aU"/><use transform="matrix(0.0935672514619883,0,0,0.0935672514619883,110.3157894736842,0)" xlink:href="#aW"/><use transform="matrix(0.0935672514619883,0,0,0.0935672514619883,117.7076023391813,0)" xlink:href="#aX"/><use transform="matrix(0.0935672514619883,0,0,0.0935672514619883,134.5497076023392,0)" xlink:href="#aU"/><use transform="matrix(0.0935672514619883,0,0,0.0935672514619883,153.26315789473685,0)" xlink:href="#aS"/><use transform="matrix(0.0935672514619883,0,0,0.0935672514619883,170.10526315789474,0)" xlink:href="#aY"/></g><path d="M266 0h-40l-56-210L115 0H75L2-248h35L96-30l15-64 43-154h32l59 218 59-218h35" id="aZ"/><g id="j"><use transform="matrix(0.0935672514619883,0,0,0.0935672514619883,0,0)" xlink:href="#aZ"/><use transform="matrix(0.0935672514619883,0,0,0.0935672514619883,31.719298245614027,0)" xlink:href="#aL"/><use transform="matrix(0.0935672514619883,0,0,0.0935672514619883,50.432748538011694,0)" xlink:href="#aV"/><use transform="matrix(0.0935672514619883,0,0,0.0935672514619883,69.14619883040936,0)" xlink:href="#aK"/></g><path d="M96-169c-40 0-48 33-48 73s9 75 48 75c24 0 41-14 43-38l32 2c-6 37-31 61-74 61-59 0-76-41-82-99-10-93 101-131 147-64 4 7 5 14 7 22l-32 3c-4-21-16-35-41-35" id="ba"/><g id="k"><use transform="matrix(0.0935672514619883,0,0,0.0935672514619883,0,0)" xlink:href="#ba"/><use transform="matrix(0.0935672514619883,0,0,0.0935672514619883,16.842105263157894,0)" xlink:href="#aV"/><use transform="matrix(0.0935672514619883,0,0,0.0935672514619883,35.55555555555556,0)" xlink:href="#aN"/></g><use transform="matrix(0.0935672514619883,0,0,0.0935672514619883,0,0)" xlink:href="#aJ" id="l"/><path d="M85-194c31 0 48 13 60 33l-1-100h32l1 261h-30c-2-10 0-23-3-31C134-8 116 4 85 4 32 4 16-35 15-94c0-66 23-100 70-100zm9 24c-40 0-46 34-46 75 0 40 6 74 45 74 42 0 51-32 51-76 0-42-9-74-50-73" id="bb"/><path d="M103-251c84 0 111 97 45 133-19 10-37 24-39 52H78c0-63 77-55 77-114 0-30-21-42-52-43-32 0-53 17-56 46l-32-2c7-45 34-72 88-72zM77 0v-35h34V0H77" id="bc"/><g id="m"><use transform="matrix(0.0935672514619883,0,0,0.0935672514619883,0,0)" xlink:href="#bb"/><use transform="matrix(0.0935672514619883,0,0,0.0935672514619883,18.71345029239766,0)" xlink:href="#aQ"/><use transform="matrix(0.0935672514619883,0,0,0.0935672514619883,37.42690058479532,0)" xlink:href="#bc"/></g><path d="M30-248c118-7 216 8 213 122C240-48 200 0 122 0H30v-248zM63-27c89 8 146-16 146-99s-60-101-146-95v194" id="bd"/><g id="n"><use transform="matrix(0.07407407407407408,0,0,0.07407407407407408,0,0)" xlink:href="#bd"/><use transform="matrix(0.07407407407407408,0,0,0.07407407407407408,19.185185185185187,0)" xlink:href="#aQ"/></g><path d="M179-190L93 31C79 59 56 82 12 73V49c39 6 53-20 64-50L1-190h34L92-34l54-156h33" id="be"/><path d="M84 4C-5 8 30-112 23-190h32v120c0 31 7 50 39 49 72-2 45-101 50-169h31l1 190h-30c-1-10 1-25-2-33-11 22-28 36-60 37" id="bf"/><g id="o"><use transform="matrix(0.07407407407407408,0,0,0.07407407407407408,0,0)" xlink:href="#be"/><use transform="matrix(0.07407407407407408,0,0,0.07407407407407408,13.333333333333332,0)" xlink:href="#aQ"/><use transform="matrix(0.07407407407407408,0,0,0.07407407407407408,28.148148148148152,0)" xlink:href="#bf"/></g><path d="M115-194c55 1 70 41 70 98S169 2 115 4C84 4 66-9 55-30l1 105H24l-1-265h31l2 30c10-21 28-34 59-34zm-8 174c40 0 45-34 45-75s-6-73-45-74c-42 0-51 32-51 76 0 43 10 73 51 73" id="bg"/><path d="M114-163C36-179 61-72 57 0H25l-1-190h30c1 12-1 29 2 39 6-27 23-49 58-41v29" id="bh"/><g id="p"><use transform="matrix(0.07407407407407408,0,0,0.07407407407407408,0,0)" xlink:href="#bg"/><use transform="matrix(0.07407407407407408,0,0,0.07407407407407408,14.814814814814817,0)" xlink:href="#aU"/><use transform="matrix(0.07407407407407408,0,0,0.07407407407407408,29.629629629629633,0)" xlink:href="#bh"/><use transform="matrix(0.07407407407407408,0,0,0.07407407407407408,38.44444444444445,0)" xlink:href="#ba"/><use transform="matrix(0.07407407407407408,0,0,0.07407407407407408,51.777777777777786,0)" xlink:href="#aU"/><use transform="matrix(0.07407407407407408,0,0,0.07407407407407408,66.59259259259261,0)" xlink:href="#aM"/><use transform="matrix(0.07407407407407408,0,0,0.07407407407407408,72.44444444444446,0)" xlink:href="#aX"/><use transform="matrix(0.07407407407407408,0,0,0.07407407407407408,85.7777777777778,0)" xlink:href="#aU"/></g><g id="q"><use transform="matrix(0.07407407407407408,0,0,0.07407407407407408,0,0)" xlink:href="#aK"/><use transform="matrix(0.07407407407407408,0,0,0.07407407407407408,7.407407407407408,0)" xlink:href="#aL"/><use transform="matrix(0.07407407407407408,0,0,0.07407407407407408,22.222222222222225,0)" xlink:href="#aM"/><use transform="matrix(0.07407407407407408,0,0,0.07407407407407408,28.074074074074076,0)" xlink:href="#aS"/></g><g id="r"><use transform="matrix(0.07407407407407408,0,0,0.07407407407407408,0,0)" xlink:href="#aK"/><use transform="matrix(0.07407407407407408,0,0,0.07407407407407408,7.407407407407408,0)" xlink:href="#aQ"/></g><path d="M115-194c53 0 69 39 70 98 0 66-23 100-70 100C84 3 66-7 56-30L54 0H23l1-261h32v101c10-23 28-34 59-34zm-8 174c40 0 45-34 45-75 0-40-5-75-45-74-42 0-51 32-51 76 0 43 10 73 51 73" id="bi"/><g id="s"><use transform="matrix(0.07407407407407408,0,0,0.07407407407407408,0,0)" xlink:href="#bi"/><use transform="matrix(0.07407407407407408,0,0,0.07407407407407408,14.814814814814817,0)" xlink:href="#aU"/></g><use transform="matrix(0.07407407407407408,0,0,0.07407407407407408,0,0)" xlink:href="#aV" id="t"/><g id="u"><use transform="matrix(0.07407407407407408,0,0,0.07407407407407408,0,0)" xlink:href="#ba"/><use transform="matrix(0.07407407407407408,0,0,0.07407407407407408,13.333333333333332,0)" xlink:href="#bh"/><use transform="matrix(0.07407407407407408,0,0,0.07407407407407408,22.148148148148145,0)" xlink:href="#aM"/><use transform="matrix(0.07407407407407408,0,0,0.07407407407407408,28,0)" xlink:href="#aS"/><use transform="matrix(0.07407407407407408,0,0,0.07407407407407408,41.333333333333336,0)" xlink:href="#aM"/><use transform="matrix(0.07407407407407408,0,0,0.07407407407407408,47.18518518518518,0)" xlink:href="#aS"/><use transform="matrix(0.07407407407407408,0,0,0.07407407407407408,60.51851851851852,0)" xlink:href="#bc"/></g><path d="M137-103V0h-34v-103L8-248h37l75 118 75-118h37" id="bj"/><g id="v"><use transform="matrix(0.07407407407407408,0,0,0.07407407407407408,0,0)" xlink:href="#bj"/><use transform="matrix(0.07407407407407408,0,0,0.07407407407407408,15.333333333333334,0)" xlink:href="#aU"/><use transform="matrix(0.07407407407407408,0,0,0.07407407407407408,30.148148148148152,0)" xlink:href="#aS"/></g><path d="M190 0L58-211 59 0H30v-248h39L202-35l-2-213h31V0h-41" id="bk"/><g id="w"><use transform="matrix(0.07407407407407408,0,0,0.07407407407407408,0,0)" xlink:href="#bk"/><use transform="matrix(0.07407407407407408,0,0,0.07407407407407408,19.185185185185187,0)" xlink:href="#aQ"/></g><g id="x"><use transform="matrix(0.07407407407407408,0,0,0.07407407407407408,0,0)" xlink:href="#bk"/><use transform="matrix(0.07407407407407408,0,0,0.07407407407407408,19.185185185185187,0)" xlink:href="#aQ"/><use transform="matrix(0.07407407407407408,0,0,0.07407407407407408,34.00000000000001,0)" xlink:href="#aK"/></g><g id="y"><use transform="matrix(0.07407407407407408,0,0,0.07407407407407408,0,0)" xlink:href="#aS"/><use transform="matrix(0.07407407407407408,0,0,0.07407407407407408,13.333333333333332,0)" xlink:href="#bf"/><use transform="matrix(0.07407407407407408,0,0,0.07407407407407408,28.148148148148152,0)" xlink:href="#bh"/><use transform="matrix(0.07407407407407408,0,0,0.07407407407407408,36.96296296296296,0)" xlink:href="#aU"/></g><path d="M212-179c-10-28-35-45-73-45-59 0-87 40-87 99 0 60 29 101 89 101 43 0 62-24 78-52l27 14C228-24 195 4 139 4 59 4 22-46 18-125c-6-104 99-153 187-111 19 9 31 26 39 46" id="bl"/><g id="z"><use transform="matrix(0.07407407407407408,0,0,0.07407407407407408,0,0)" xlink:href="#bl"/><use transform="matrix(0.07407407407407408,0,0,0.07407407407407408,19.185185185185187,0)" xlink:href="#aV"/><use transform="matrix(0.07407407407407408,0,0,0.07407407407407408,34.00000000000001,0)" xlink:href="#aW"/><use transform="matrix(0.07407407407407408,0,0,0.07407407407407408,39.85185185185187,0)" xlink:href="#aW"/></g><g id="A"><use transform="matrix(0.07407407407407408,0,0,0.07407407407407408,0,0)" xlink:href="#ba"/><use transform="matrix(0.07407407407407408,0,0,0.07407407407407408,13.333333333333332,0)" xlink:href="#bh"/><use transform="matrix(0.07407407407407408,0,0,0.07407407407407408,22.148148148148145,0)" xlink:href="#aM"/><use transform="matrix(0.07407407407407408,0,0,0.07407407407407408,28,0)" xlink:href="#aS"/><use transform="matrix(0.07407407407407408,0,0,0.07407407407407408,41.333333333333336,0)" xlink:href="#aM"/><use transform="matrix(0.07407407407407408,0,0,0.07407407407407408,47.18518518518518,0)" xlink:href="#aS"/></g><g id="B"><use transform="matrix(0.07407407407407408,0,0,0.07407407407407408,0,0)" xlink:href="#aW"/><use transform="matrix(0.07407407407407408,0,0,0.07407407407407408,5.851851851851853,0)" xlink:href="#aM"/><use transform="matrix(0.07407407407407408,0,0,0.07407407407407408,11.703703703703706,0)" xlink:href="#aN"/><use transform="matrix(0.07407407407407408,0,0,0.07407407407407408,26.51851851851852,0)" xlink:href="#aU"/></g><g id="C"><use transform="matrix(0.07407407407407408,0,0,0.07407407407407408,0,0)" xlink:href="#aQ"/><use transform="matrix(0.07407407407407408,0,0,0.07407407407407408,14.814814814814817,0)" xlink:href="#bh"/></g><path d="M99-251c64 0 84 50 84 122C183-37 130 33 47-8c-14-7-20-23-25-40l30-5c6 39 69 39 84 7 9-19 16-44 16-74-10 22-31 35-62 35-49 0-73-33-73-83 0-54 28-83 82-83zm-1 141c31-1 51-18 51-49 0-36-14-67-51-67-34 0-49 23-49 58 0 34 15 58 49 58" id="bm"/><path d="M27 0v-27h64v-190l-56 39v-29l58-41h29v221h61V0H27" id="bn"/><g id="D"><use transform="matrix(0.07407407407407408,0,0,0.07407407407407408,0,0)" xlink:href="#bm"/><use transform="matrix(0.07407407407407408,0,0,0.07407407407407408,14.814814814814817,0)" xlink:href="#bn"/><use transform="matrix(0.07407407407407408,0,0,0.07407407407407408,27.62962962962963,0)" xlink:href="#bn"/></g><path d="M205 0l-28-72H64L36 0H1l101-248h38L239 0h-34zm-38-99l-47-123c-12 45-31 82-46 123h93" id="bo"/><g id="E"><use transform="matrix(0.0634920634920635,0,0,0.0634920634920635,0,0)" xlink:href="#bo"/><use transform="matrix(0.0634920634920635,0,0,0.0634920634920635,15.23809523809524,0)" xlink:href="#bh"/><use transform="matrix(0.0634920634920635,0,0,0.0634920634920635,22.793650793650794,0)" xlink:href="#aU"/></g><g id="F"><use transform="matrix(0.0634920634920635,0,0,0.0634920634920635,0,0)" xlink:href="#be"/><use transform="matrix(0.0634920634920635,0,0,0.0634920634920635,11.42857142857143,0)" xlink:href="#aQ"/><use transform="matrix(0.0634920634920635,0,0,0.0634920634920635,24.12698412698413,0)" xlink:href="#bf"/></g><path d="M177-190C167-65 218 103 67 71c-23-6-38-20-44-43l32-5c15 47 100 32 89-28v-30C133-14 115 1 83 1 29 1 15-40 15-95c0-56 16-97 71-98 29-1 48 16 59 35 1-10 0-23 2-32h30zM94-22c36 0 50-32 50-73 0-42-14-75-50-75-39 0-46 34-46 75s6 73 46 73" id="bp"/><g id="G"><use transform="matrix(0.0634920634920635,0,0,0.0634920634920635,0,0)" xlink:href="#aR"/><use transform="matrix(0.0634920634920635,0,0,0.0634920634920635,16.444444444444446,0)" xlink:href="#aM"/><use transform="matrix(0.0634920634920635,0,0,0.0634920634920635,21.460317460317466,0)" xlink:href="#aW"/><use transform="matrix(0.0634920634920635,0,0,0.0634920634920635,26.47619047619048,0)" xlink:href="#aW"/><use transform="matrix(0.0634920634920635,0,0,0.0634920634920635,31.492063492063497,0)" xlink:href="#aM"/><use transform="matrix(0.0634920634920635,0,0,0.0634920634920635,36.50793650793651,0)" xlink:href="#aN"/><use transform="matrix(0.0634920634920635,0,0,0.0634920634920635,49.20634920634921,0)" xlink:href="#bp"/></g><g id="H"><use transform="matrix(0.0634920634920635,0,0,0.0634920634920635,0,0)" xlink:href="#aK"/><use transform="matrix(0.0634920634920635,0,0,0.0634920634920635,6.34920634920635,0)" xlink:href="#aQ"/></g><g id="I"><use transform="matrix(0.0634920634920635,0,0,0.0634920634920635,0,0)" xlink:href="#aU"/><use transform="matrix(0.0634920634920635,0,0,0.0634920634920635,12.6984126984127,0)" xlink:href="#aN"/><use transform="matrix(0.0634920634920635,0,0,0.0634920634920635,25.3968253968254,0)" xlink:href="#bp"/><use transform="matrix(0.0634920634920635,0,0,0.0634920634920635,38.0952380952381,0)" xlink:href="#aV"/><use transform="matrix(0.0634920634920635,0,0,0.0634920634920635,50.7936507936508,0)" xlink:href="#bp"/><use transform="matrix(0.0634920634920635,0,0,0.0634920634920635,63.4920634920635,0)" xlink:href="#aU"/></g><g id="J"><use transform="matrix(0.0634920634920635,0,0,0.0634920634920635,0,0)" xlink:href="#aR"/><use transform="matrix(0.0634920634920635,0,0,0.0634920634920635,16.444444444444446,0)" xlink:href="#aM"/><use transform="matrix(0.0634920634920635,0,0,0.0634920634920635,21.460317460317466,0)" xlink:href="#aK"/><use transform="matrix(0.0634920634920635,0,0,0.0634920634920635,27.809523809523817,0)" xlink:href="#aL"/></g><g id="K"><use transform="matrix(0.0634920634920635,0,0,0.0634920634920635,0,0)" xlink:href="#aK"/><use transform="matrix(0.0634920634920635,0,0,0.0634920634920635,6.34920634920635,0)" xlink:href="#aL"/><use transform="matrix(0.0634920634920635,0,0,0.0634920634920635,19.04761904761905,0)" xlink:href="#aM"/><use transform="matrix(0.0634920634920635,0,0,0.0634920634920635,24.063492063492067,0)" xlink:href="#aS"/></g><g id="L"><use transform="matrix(0.0634920634920635,0,0,0.0634920634920635,0,0)" xlink:href="#bg"/><use transform="matrix(0.0634920634920635,0,0,0.0634920634920635,12.6984126984127,0)" xlink:href="#aU"/><use transform="matrix(0.0634920634920635,0,0,0.0634920634920635,25.3968253968254,0)" xlink:href="#bh"/><use transform="matrix(0.0634920634920635,0,0,0.0634920634920635,32.952380952380956,0)" xlink:href="#aS"/><use transform="matrix(0.0634920634920635,0,0,0.0634920634920635,44.38095238095239,0)" xlink:href="#aQ"/><use transform="matrix(0.0634920634920635,0,0,0.0634920634920635,57.07936507936509,0)" xlink:href="#aN"/><use transform="matrix(0.0634920634920635,0,0,0.0634920634920635,69.77777777777779,0)" xlink:href="#bc"/></g><path d="M233-177c-1 41-23 64-60 70L243 0h-38l-65-103H63V0H30v-248c88 3 205-21 203 71zM63-129c60-2 137 13 137-47 0-61-80-42-137-45v92" id="bq"/><g id="M"><use transform="matrix(0.07407407407407408,0,0,0.07407407407407408,0,0)" xlink:href="#bq"/><use transform="matrix(0.07407407407407408,0,0,0.07407407407407408,19.185185185185187,0)" xlink:href="#aU"/><use transform="matrix(0.07407407407407408,0,0,0.07407407407407408,34.00000000000001,0)" xlink:href="#aS"/><use transform="matrix(0.07407407407407408,0,0,0.07407407407407408,47.33333333333334,0)" xlink:href="#aQ"/><use transform="matrix(0.07407407407407408,0,0,0.07407407407407408,62.14814814814816,0)" xlink:href="#bf"/><use transform="matrix(0.07407407407407408,0,0,0.07407407407407408,76.96296296296298,0)" xlink:href="#bh"/><use transform="matrix(0.07407407407407408,0,0,0.07407407407407408,85.7777777777778,0)" xlink:href="#ba"/><use transform="matrix(0.07407407407407408,0,0,0.07407407407407408,99.11111111111113,0)" xlink:href="#aU"/><use transform="matrix(0.07407407407407408,0,0,0.07407407407407408,113.92592592592594,0)" xlink:href="#aS"/></g><path d="M127-220V0H93v-220H8v-28h204v28h-85" id="br"/><g id="N"><use transform="matrix(0.05555555555555555,0,0,0.05555555555555555,0,0)" xlink:href="#br"/><use transform="matrix(0.05555555555555555,0,0,0.05555555555555555,12.166666666666668,0)" xlink:href="#aL"/><use transform="matrix(0.05555555555555555,0,0,0.05555555555555555,23.277777777777782,0)" xlink:href="#aM"/><use transform="matrix(0.05555555555555555,0,0,0.05555555555555555,27.66666666666667,0)" xlink:href="#aN"/><use transform="matrix(0.05555555555555555,0,0,0.05555555555555555,38.777777777777786,0)" xlink:href="#bp"/><use transform="matrix(0.05555555555555555,0,0,0.05555555555555555,49.8888888888889,0)" xlink:href="#aS"/></g><g id="O"><use transform="matrix(0.05555555555555555,0,0,0.05555555555555555,0,0)" xlink:href="#be"/><use transform="matrix(0.05555555555555555,0,0,0.05555555555555555,10,0)" xlink:href="#aQ"/><use transform="matrix(0.05555555555555555,0,0,0.05555555555555555,21.11111111111111,0)" xlink:href="#bf"/></g><g id="P"><use transform="matrix(0.05555555555555555,0,0,0.05555555555555555,0,0)" xlink:href="#ba"/><use transform="matrix(0.05555555555555555,0,0,0.05555555555555555,10,0)" xlink:href="#aV"/><use transform="matrix(0.05555555555555555,0,0,0.05555555555555555,21.11111111111111,0)" xlink:href="#aN"/></g><g id="Q"><use transform="matrix(0.05555555555555555,0,0,0.05555555555555555,0,0)" xlink:href="#bb"/><use transform="matrix(0.05555555555555555,0,0,0.05555555555555555,11.11111111111111,0)" xlink:href="#aQ"/></g><g id="R"><use transform="matrix(0.05555555555555555,0,0,0.05555555555555555,0,0)" xlink:href="#aV"/><use transform="matrix(0.05555555555555555,0,0,0.05555555555555555,11.11111111111111,0)" xlink:href="#aS"/></g><use transform="matrix(0.05555555555555555,0,0,0.05555555555555555,0,0)" xlink:href="#aV" id="S"/><g id="T"><use transform="matrix(0.05555555555555555,0,0,0.05555555555555555,0,0)" xlink:href="#aK"/><use transform="matrix(0.05555555555555555,0,0,0.05555555555555555,5.555555555555555,0)" xlink:href="#aL"/><use transform="matrix(0.05555555555555555,0,0,0.05555555555555555,16.666666666666668,0)" xlink:href="#aM"/><use transform="matrix(0.05555555555555555,0,0,0.05555555555555555,21.055555555555557,0)" xlink:href="#bh"/><use transform="matrix(0.05555555555555555,0,0,0.05555555555555555,27.666666666666668,0)" xlink:href="#bb"/></g><g id="U"><use transform="matrix(0.05555555555555555,0,0,0.05555555555555555,0,0)" xlink:href="#bg"/><use transform="matrix(0.05555555555555555,0,0,0.05555555555555555,11.11111111111111,0)" xlink:href="#aV"/><use transform="matrix(0.05555555555555555,0,0,0.05555555555555555,22.22222222222222,0)" xlink:href="#bh"/><use transform="matrix(0.05555555555555555,0,0,0.05555555555555555,28.833333333333332,0)" xlink:href="#aK"/><use transform="matrix(0.05555555555555555,0,0,0.05555555555555555,34.38888888888889,0)" xlink:href="#be"/></g><g id="V"><use transform="matrix(0.05555555555555555,0,0,0.05555555555555555,0,0)" xlink:href="#aS"/><use transform="matrix(0.05555555555555555,0,0,0.05555555555555555,10,0)" xlink:href="#bf"/><use transform="matrix(0.05555555555555555,0,0,0.05555555555555555,21.11111111111111,0)" xlink:href="#bg"/><use transform="matrix(0.05555555555555555,0,0,0.05555555555555555,32.22222222222222,0)" xlink:href="#bg"/><use transform="matrix(0.05555555555555555,0,0,0.05555555555555555,43.333333333333336,0)" xlink:href="#aQ"/><use transform="matrix(0.05555555555555555,0,0,0.05555555555555555,54.44444444444445,0)" xlink:href="#bh"/><use transform="matrix(0.05555555555555555,0,0,0.05555555555555555,61.055555555555564,0)" xlink:href="#aK"/></g><path d="M197 0v-115H63V0H30v-248h33v105h134v-105h34V0h-34" id="bs"/><g id="W"><use transform="matrix(0.05925925925925927,0,0,0.05925925925925927,0,0)" xlink:href="#bs"/><use transform="matrix(0.05925925925925927,0,0,0.05925925925925927,15.34814814814815,0)" xlink:href="#aQ"/><use transform="matrix(0.05925925925925927,0,0,0.05925925925925927,27.200000000000006,0)" xlink:href="#aR"/></g><g id="X"><use transform="matrix(0.05925925925925927,0,0,0.05925925925925927,0,0)" xlink:href="#aK"/><use transform="matrix(0.05925925925925927,0,0,0.05925925925925927,5.9259259259259265,0)" xlink:href="#aQ"/></g><g id="Y"><use transform="matrix(0.05925925925925927,0,0,0.05925925925925927,0,0)" xlink:href="#aK"/><use transform="matrix(0.05925925925925927,0,0,0.05925925925925927,5.9259259259259265,0)" xlink:href="#aV"/><use transform="matrix(0.05925925925925927,0,0,0.05925925925925927,17.77777777777778,0)" xlink:href="#aW"/><use transform="matrix(0.05925925925925927,0,0,0.05925925925925927,22.459259259259262,0)" xlink:href="#aO"/></g><g id="Z"><use transform="matrix(0.05925925925925927,0,0,0.05925925925925927,0,0)" xlink:href="#aK"/><use transform="matrix(0.05925925925925927,0,0,0.05925925925925927,5.9259259259259265,0)" xlink:href="#aL"/><use transform="matrix(0.05925925925925927,0,0,0.05925925925925927,17.77777777777778,0)" xlink:href="#aU"/><use transform="matrix(0.05925925925925927,0,0,0.05925925925925927,29.629629629629633,0)" xlink:href="#aT"/></g><g id="aa"><use transform="matrix(0.07407407407407408,0,0,0.07407407407407408,0,0)" xlink:href="#bo"/><use transform="matrix(0.07407407407407408,0,0,0.07407407407407408,17.77777777777778,0)" xlink:href="#bh"/><use transform="matrix(0.07407407407407408,0,0,0.07407407407407408,26.592592592592595,0)" xlink:href="#aU"/></g><g id="ab"><use transform="matrix(0.07407407407407408,0,0,0.07407407407407408,0,0)" xlink:href="#aX"/><use transform="matrix(0.07407407407407408,0,0,0.07407407407407408,13.333333333333332,0)" xlink:href="#aM"/><use transform="matrix(0.07407407407407408,0,0,0.07407407407407408,19.185185185185187,0)" xlink:href="#aS"/><use transform="matrix(0.07407407407407408,0,0,0.07407407407407408,32.51851851851852,0)" xlink:href="#aM"/><use transform="matrix(0.07407407407407408,0,0,0.07407407407407408,38.370370370370374,0)" xlink:href="#aK"/><use transform="matrix(0.07407407407407408,0,0,0.07407407407407408,45.77777777777778,0)" xlink:href="#aM"/><use transform="matrix(0.07407407407407408,0,0,0.07407407407407408,51.62962962962963,0)" xlink:href="#aN"/><use transform="matrix(0.07407407407407408,0,0,0.07407407407407408,66.44444444444446,0)" xlink:href="#bp"/></g><g id="ac"><use transform="matrix(0.07407407407407408,0,0,0.07407407407407408,0,0)" xlink:href="#aK"/><use transform="matrix(0.07407407407407408,0,0,0.07407407407407408,7.407407407407408,0)" xlink:href="#aL"/><use transform="matrix(0.07407407407407408,0,0,0.07407407407407408,22.222222222222225,0)" xlink:href="#aM"/><use transform="matrix(0.07407407407407408,0,0,0.07407407407407408,28.074074074074076,0)" xlink:href="#aS"/></g><g id="ad"><use transform="matrix(0.07407407407407408,0,0,0.07407407407407408,0,0)" xlink:href="#aS"/><use transform="matrix(0.07407407407407408,0,0,0.07407407407407408,13.333333333333332,0)" xlink:href="#aM"/><use transform="matrix(0.07407407407407408,0,0,0.07407407407407408,19.185185185185187,0)" xlink:href="#aK"/><use transform="matrix(0.07407407407407408,0,0,0.07407407407407408,26.592592592592595,0)" xlink:href="#aU"/></g><path d="M101-234c-31-9-42 10-38 44h38v23H63V0H32v-167H5v-23h27c-7-52 17-82 69-68v24" id="bt"/><g id="ae"><use transform="matrix(0.07407407407407408,0,0,0.07407407407407408,0,0)" xlink:href="#bt"/><use transform="matrix(0.07407407407407408,0,0,0.07407407407407408,7.407407407407408,0)" xlink:href="#aQ"/><use transform="matrix(0.07407407407407408,0,0,0.07407407407407408,22.222222222222225,0)" xlink:href="#bh"/></g><g id="af"><use transform="matrix(0.07407407407407408,0,0,0.07407407407407408,0,0)" xlink:href="#aK"/><use transform="matrix(0.07407407407407408,0,0,0.07407407407407408,7.407407407407408,0)" xlink:href="#aL"/><use transform="matrix(0.07407407407407408,0,0,0.07407407407407408,22.222222222222225,0)" xlink:href="#aU"/></g><g id="ag"><use transform="matrix(0.07407407407407408,0,0,0.07407407407407408,0,0)" xlink:href="#bt"/><use transform="matrix(0.07407407407407408,0,0,0.07407407407407408,7.407407407407408,0)" xlink:href="#aM"/><use transform="matrix(0.07407407407407408,0,0,0.07407407407407408,13.25925925925926,0)" xlink:href="#bh"/><use transform="matrix(0.07407407407407408,0,0,0.07407407407407408,22.074074074074073,0)" xlink:href="#aS"/><use transform="matrix(0.07407407407407408,0,0,0.07407407407407408,35.40740740740741,0)" xlink:href="#aK"/></g><g id="ah"><use transform="matrix(0.07407407407407408,0,0,0.07407407407407408,0,0)" xlink:href="#aK"/><use transform="matrix(0.07407407407407408,0,0,0.07407407407407408,7.407407407407408,0)" xlink:href="#aM"/><use transform="matrix(0.07407407407407408,0,0,0.07407407407407408,13.25925925925926,0)" xlink:href="#aT"/><use transform="matrix(0.07407407407407408,0,0,0.07407407407407408,35.40740740740741,0)" xlink:href="#aU"/><use transform="matrix(0.07407407407407408,0,0,0.07407407407407408,50.22222222222222,0)" xlink:href="#bc"/></g><g id="ai"><use transform="matrix(0.06837606837606838,0,0,0.06837606837606838,0,0)" xlink:href="#aZ"/><use transform="matrix(0.06837606837606838,0,0,0.06837606837606838,23.17948717948718,0)" xlink:href="#aM"/><use transform="matrix(0.06837606837606838,0,0,0.06837606837606838,28.58119658119658,0)" xlink:href="#aW"/><use transform="matrix(0.06837606837606838,0,0,0.06837606837606838,33.98290598290598,0)" xlink:href="#aW"/></g><g id="aj"><use transform="matrix(0.06837606837606838,0,0,0.06837606837606838,0,0)" xlink:href="#be"/><use transform="matrix(0.06837606837606838,0,0,0.06837606837606838,12.307692307692308,0)" xlink:href="#aQ"/><use transform="matrix(0.06837606837606838,0,0,0.06837606837606838,25.982905982905983,0)" xlink:href="#bf"/></g><g id="ak"><use transform="matrix(0.06837606837606838,0,0,0.06837606837606838,0,0)" xlink:href="#aU"/><use transform="matrix(0.06837606837606838,0,0,0.06837606837606838,13.675213675213676,0)" xlink:href="#aN"/><use transform="matrix(0.06837606837606838,0,0,0.06837606837606838,27.350427350427353,0)" xlink:href="#bp"/><use transform="matrix(0.06837606837606838,0,0,0.06837606837606838,41.02564102564103,0)" xlink:href="#aV"/><use transform="matrix(0.06837606837606838,0,0,0.06837606837606838,54.700854700854705,0)" xlink:href="#bp"/><use transform="matrix(0.06837606837606838,0,0,0.06837606837606838,68.37606837606837,0)" xlink:href="#aU"/></g><g id="al"><use transform="matrix(0.06837606837606838,0,0,0.06837606837606838,0,0)" xlink:href="#aR"/><use transform="matrix(0.06837606837606838,0,0,0.06837606837606838,17.70940170940171,0)" xlink:href="#aM"/><use transform="matrix(0.06837606837606838,0,0,0.06837606837606838,23.111111111111114,0)" xlink:href="#aK"/><use transform="matrix(0.06837606837606838,0,0,0.06837606837606838,29.948717948717952,0)" xlink:href="#aL"/></g><g id="am"><use transform="matrix(0.06837606837606838,0,0,0.06837606837606838,0,0)" xlink:href="#aK"/><use transform="matrix(0.06837606837606838,0,0,0.06837606837606838,6.837606837606838,0)" xlink:href="#aL"/><use transform="matrix(0.06837606837606838,0,0,0.06837606837606838,20.512820512820515,0)" xlink:href="#aM"/><use transform="matrix(0.06837606837606838,0,0,0.06837606837606838,25.914529914529915,0)" xlink:href="#aS"/></g><g id="an"><use transform="matrix(0.06837606837606838,0,0,0.06837606837606838,0,0)" xlink:href="#bg"/><use transform="matrix(0.06837606837606838,0,0,0.06837606837606838,13.675213675213676,0)" xlink:href="#aU"/><use transform="matrix(0.06837606837606838,0,0,0.06837606837606838,27.350427350427353,0)" xlink:href="#bh"/><use transform="matrix(0.06837606837606838,0,0,0.06837606837606838,35.48717948717949,0)" xlink:href="#aS"/><use transform="matrix(0.06837606837606838,0,0,0.06837606837606838,47.7948717948718,0)" xlink:href="#aQ"/><use transform="matrix(0.06837606837606838,0,0,0.06837606837606838,61.47008547008547,0)" xlink:href="#aN"/></g><g id="ao"><use transform="matrix(0.06837606837606838,0,0,0.06837606837606838,0,0)" xlink:href="#bh"/><use transform="matrix(0.06837606837606838,0,0,0.06837606837606838,8.136752136752136,0)" xlink:href="#aM"/><use transform="matrix(0.06837606837606838,0,0,0.06837606837606838,13.538461538461538,0)" xlink:href="#bp"/><use transform="matrix(0.06837606837606838,0,0,0.06837606837606838,27.213675213675213,0)" xlink:href="#aL"/><use transform="matrix(0.06837606837606838,0,0,0.06837606837606838,40.888888888888886,0)" xlink:href="#aK"/></g><g id="ap"><use transform="matrix(0.06837606837606838,0,0,0.06837606837606838,0,0)" xlink:href="#aN"/><use transform="matrix(0.06837606837606838,0,0,0.06837606837606838,13.675213675213676,0)" xlink:href="#aQ"/><use transform="matrix(0.06837606837606838,0,0,0.06837606837606838,27.350427350427353,0)" xlink:href="#aR"/><use transform="matrix(0.06837606837606838,0,0,0.06837606837606838,45.05982905982906,0)" xlink:href="#bc"/></g><path d="M30 0v-248h33v221h125V0H30" id="bu"/><g id="aq"><use transform="matrix(0.05555555555555555,0,0,0.05555555555555555,0,0)" xlink:href="#bu"/><use transform="matrix(0.05555555555555555,0,0,0.05555555555555555,11.11111111111111,0)" xlink:href="#aU"/><use transform="matrix(0.05555555555555555,0,0,0.05555555555555555,22.22222222222222,0)" xlink:href="#aV"/><use transform="matrix(0.05555555555555555,0,0,0.05555555555555555,33.333333333333336,0)" xlink:href="#bh"/><use transform="matrix(0.05555555555555555,0,0,0.05555555555555555,39.94444444444445,0)" xlink:href="#aN"/></g><g id="ar"><use transform="matrix(0.05555555555555555,0,0,0.05555555555555555,0,0)" xlink:href="#aT"/><use transform="matrix(0.05555555555555555,0,0,0.05555555555555555,16.611111111111114,0)" xlink:href="#aQ"/><use transform="matrix(0.05555555555555555,0,0,0.05555555555555555,27.722222222222225,0)" xlink:href="#bh"/><use transform="matrix(0.05555555555555555,0,0,0.05555555555555555,34.333333333333336,0)" xlink:href="#aU"/></g><g id="as"><use transform="matrix(0.05555555555555555,0,0,0.05555555555555555,0,0)" xlink:href="#aV"/><use transform="matrix(0.05555555555555555,0,0,0.05555555555555555,11.11111111111111,0)" xlink:href="#bi"/><use transform="matrix(0.05555555555555555,0,0,0.05555555555555555,22.22222222222222,0)" xlink:href="#aQ"/><use transform="matrix(0.05555555555555555,0,0,0.05555555555555555,33.333333333333336,0)" xlink:href="#bf"/><use transform="matrix(0.05555555555555555,0,0,0.05555555555555555,44.44444444444444,0)" xlink:href="#aK"/></g><g id="at"><use transform="matrix(0.05555555555555555,0,0,0.05555555555555555,0,0)" xlink:href="#aS"/><use transform="matrix(0.05555555555555555,0,0,0.05555555555555555,10,0)" xlink:href="#bf"/><use transform="matrix(0.05555555555555555,0,0,0.05555555555555555,21.11111111111111,0)" xlink:href="#aM"/><use transform="matrix(0.05555555555555555,0,0,0.05555555555555555,25.5,0)" xlink:href="#ba"/><use transform="matrix(0.05555555555555555,0,0,0.05555555555555555,35.5,0)" xlink:href="#aM"/><use transform="matrix(0.05555555555555555,0,0,0.05555555555555555,39.888888888888886,0)" xlink:href="#bb"/><use transform="matrix(0.05555555555555555,0,0,0.05555555555555555,51,0)" xlink:href="#aU"/></g><g id="au"><use transform="matrix(0.05555555555555555,0,0,0.05555555555555555,0,0)" xlink:href="#aJ"/><use transform="matrix(0.05555555555555555,0,0,0.05555555555555555,5.555555555555555,0)" xlink:href="#aN"/><use transform="matrix(0.05555555555555555,0,0,0.05555555555555555,16.666666666666668,0)" xlink:href="#bt"/><use transform="matrix(0.05555555555555555,0,0,0.05555555555555555,22.22222222222222,0)" xlink:href="#aQ"/><use transform="matrix(0.05555555555555555,0,0,0.05555555555555555,33.333333333333336,0)" xlink:href="#bh"/><use transform="matrix(0.05555555555555555,0,0,0.05555555555555555,39.94444444444445,0)" xlink:href="#aT"/><use transform="matrix(0.05555555555555555,0,0,0.05555555555555555,56.555555555555564,0)" xlink:href="#aV"/><use transform="matrix(0.05555555555555555,0,0,0.05555555555555555,67.66666666666667,0)" xlink:href="#aK"/><use transform="matrix(0.05555555555555555,0,0,0.05555555555555555,73.22222222222223,0)" xlink:href="#aM"/><use transform="matrix(0.05555555555555555,0,0,0.05555555555555555,77.61111111111113,0)" xlink:href="#aQ"/><use transform="matrix(0.05555555555555555,0,0,0.05555555555555555,88.72222222222223,0)" xlink:href="#aN"/></g><g id="av"><use transform="matrix(0.05555555555555555,0,0,0.05555555555555555,0,0)" xlink:href="#aW"/><use transform="matrix(0.05555555555555555,0,0,0.05555555555555555,4.388888888888889,0)" xlink:href="#aQ"/><use transform="matrix(0.05555555555555555,0,0,0.05555555555555555,15.5,0)" xlink:href="#aN"/><use transform="matrix(0.05555555555555555,0,0,0.05555555555555555,26.61111111111111,0)" xlink:href="#bp"/></g><g id="aw"><use transform="matrix(0.05555555555555555,0,0,0.05555555555555555,0,0)" xlink:href="#aK"/><use transform="matrix(0.05555555555555555,0,0,0.05555555555555555,5.555555555555555,0)" xlink:href="#aU"/><use transform="matrix(0.05555555555555555,0,0,0.05555555555555555,16.666666666666668,0)" xlink:href="#bh"/><use transform="matrix(0.05555555555555555,0,0,0.05555555555555555,23.27777777777778,0)" xlink:href="#aT"/></g><g id="ax"><use transform="matrix(0.07407407407407408,0,0,0.07407407407407408,0,0)" xlink:href="#aZ"/><use transform="matrix(0.07407407407407408,0,0,0.07407407407407408,25.11111111111111,0)" xlink:href="#aL"/><use transform="matrix(0.07407407407407408,0,0,0.07407407407407408,39.92592592592593,0)" xlink:href="#aV"/><use transform="matrix(0.07407407407407408,0,0,0.07407407407407408,54.74074074074075,0)" xlink:href="#aK"/></g><g id="ay"><use transform="matrix(0.07407407407407408,0,0,0.07407407407407408,0,0)" xlink:href="#aU"/><use transform="matrix(0.07407407407407408,0,0,0.07407407407407408,14.814814814814817,0)" xlink:href="#aW"/><use transform="matrix(0.07407407407407408,0,0,0.07407407407407408,20.666666666666668,0)" xlink:href="#aS"/><use transform="matrix(0.07407407407407408,0,0,0.07407407407407408,34,0)" xlink:href="#aU"/></g><g id="az"><use transform="matrix(0.07407407407407408,0,0,0.07407407407407408,0,0)" xlink:href="#ba"/><use transform="matrix(0.07407407407407408,0,0,0.07407407407407408,13.333333333333332,0)" xlink:href="#aV"/><use transform="matrix(0.07407407407407408,0,0,0.07407407407407408,28.148148148148152,0)" xlink:href="#aN"/></g><use transform="matrix(0.07407407407407408,0,0,0.07407407407407408,0,0)" xlink:href="#aJ" id="aA"/><g id="aB"><use transform="matrix(0.07407407407407408,0,0,0.07407407407407408,0,0)" xlink:href="#bb"/><use transform="matrix(0.07407407407407408,0,0,0.07407407407407408,14.814814814814817,0)" xlink:href="#aQ"/><use transform="matrix(0.07407407407407408,0,0,0.07407407407407408,29.629629629629633,0)" xlink:href="#bc"/></g></defs></g></svg>