<svg width="18" height="18" viewBox="0 0 18 18" fill="none" xmlns="http://www.w3.org/2000/svg">
<path d="M15.8267 13.5711L4.44226 2.18671C4.07126 1.81571 3.46975 1.81571 3.09876 2.18671L3.02805 2.25742C2.65705 2.62841 2.65705 3.22992 3.02805 3.60092L14.4125 14.9853C14.7835 15.3563 15.385 15.3563 15.756 14.9853L15.8267 14.9146C16.1977 14.5436 16.1977 13.9421 15.8267 13.5711Z" fill="#111111"/>
<path d="M14.5046 2.19182L3.03378 13.6627C2.65997 14.0365 2.63674 14.6201 2.98189 14.9663L3.04768 15.0322C3.39283 15.3784 3.97567 15.356 4.34949 14.9822L15.8203 3.51132C16.1941 3.13751 16.2174 2.55386 15.8722 2.20771L15.8064 2.14174C15.4613 1.79558 14.8784 1.81801 14.5046 2.19182Z" fill="#111111"/>
</svg>
