<svg width="18" height="18" viewBox="0 0 18 18" fill="none" xmlns="http://www.w3.org/2000/svg">
<path d="M17.05 8H0.95C0.42533 8 0 8.42533 0 8.95V9.05C0 9.57467 0.42533 10 0.95 10H17.05C17.5747 10 18 9.57467 18 9.05V8.95C18 8.42533 17.5747 8 17.05 8Z" fill="#111111"/>
<path d="M17.05 13H0.95C0.42533 13 0 13.4253 0 13.95V14.05C0 14.5747 0.42533 15 0.95 15H17.05C17.5747 15 18 14.5747 18 14.05V13.95C18 13.4253 17.5747 13 17.05 13Z" fill="#111111"/>
<path d="M17.05 3H0.95C0.42533 3 0 3.42533 0 3.95V4.05C0 4.57467 0.42533 5 0.95 5H17.05C17.5747 5 18 4.57467 18 4.05V3.95C18 3.42533 17.5747 3 17.05 3Z" fill="#111111"/>
</svg>
